{
.appVersion = "845";
DisplayStrings = (
hinion,
i,
oaoaoasd,
SILSON,
T,
LULLIL,
H
);
classes = (
{
automatic = 1;
code = "A Aacute Abreve Abreveacute Abrevegrave Abrevetilde Acaron Acircumflex Acircumflexacute Acircumflexgrave Acircumflextilde Adieresis Adotbelow Agrave Amacron Aogonek Aring Atilde AE B Bdotbelow C Cacute Ccaron Ccedilla Cdotaccent D Eth Dcaron Dcroat Ddotbelow E Eacute Ecaron Ecircumflex Ecircumflexacute Ecircumflexgrave Ecircumflextilde Edieresis Edotaccent Edotbelow Egrave Emacron Eogonek Etilde F G Gbreve Gcaron Gcommaaccent Gdotaccent H Hbar Hdotbelow I Iacute Icaron Icircumflex Idieresis Idotaccent Idotbelow Igrave Imacron Iogonek Itilde J K Kcommaaccent L Lacute Lcaron Lcommaaccent Lslash M N Nacute Ncaron Ncommaaccent Ntilde O Oacute Ocaron Ocircumflex Odieresis Odotbelow Ograve Ohorn Ohornacute Ohorndotbelow Ohorngrave Ohorntilde Omacron Oslash Otilde OE P Thorn Q R Racute Rcaron Rcommaaccent S Sacute Scaron Scedilla Scommaaccent Sdotbelow Schwa T Tbar Tcaron Tcedilla Tcommaaccent U Uacute Ucaron Ucircumflex Udieresis Udieresisacute Udieresiscaron Udieresisgrave Udieresismacron Udotbelow Ugrave Uhorn Uhornacute Uhorngrave Uhorntilde Uhungarumlaut Umacron Uogonek Uring Utilde V W Wacute Wcircumflex Wdieresis Wgrave X Y Yacute Ycircumflex Ydieresis Ydotbelow Ygrave Ytilde Z Zacute Zcaron Zdotaccent Zdotbelow Cacute.loclPLK Nacute.loclPLK Oacute.loclPLK Sacute.loclPLK Zacute.loclPLK";
name = Uppercase;
},
{
code = "";
name = DevaIMatras;
}
);
copyright = "Copyright (c) 2015-2016, Simon Cozens (simon@simon-cozens.org)";
customParameters = (
{
name = fsType;
value = (
    0
);
},
{
name = license;
value = "This Font Software is licensed under the SIL Open Font License, Version 1.1. This license is available with a FAQ at: http://scripts.sil.org/OFL";
},
{
name = licenseURL;
value = "http://scripts.sil.org/OFL";
}
);
date = "2015-07-29 14:31:56 +0000";
designer = "Simon Cozens";
familyName = "Silson";
featurePrefixes = (
{
automatic = 1;

glyphs = (
{
glyphname = A;
lastChange = "2015-12-23 13:14:03 +0000";
layers = (
{
anchors = (
{
name = bottom;
position = "{232, 0}";
},
{
name = ogonek;
position = "{406, 10}";
},
{
name = top;
position = "{232, 680}";
}
);
layerId = "8E5E9D5F-1CFD-4F58-89B8-A9F3704C2D63";
paths = (
{
closed = 1;
nodes = (
"122 0 LINE",
"169 247 LINE",
"295 247 LINE",
"342 0 LINE",
"439 0 LINE",
"300 700 LINE",
"164 700 LINE",
"25 0 LINE"
);
},
{
closed = 1;
nodes = (
"234 604 LINE",
"285 357 LINE",
"183 357 LINE"
);
}
);
width = 464;
},
{
anchors = (
{
name = bottom;
position = "{180, 0}";
},
{
name = ogonek;
position = "{355, 10}";
},
{
name = top;
position = "{300, 684}";
}
);
layerId = "A2919505-2A95-4438-A60E-B7D4573C3483";
paths = (
{
closed = 1;
nodes = (
"68 0 LINE",
"163 247 LINE",
"288 247 LINE",
"292 0 LINE",
"387 0 LINE",
"371 700 LINE",
"235 700 LINE",
"-27 0 LINE"
);
},
{
closed = 1;
nodes = (
"284 605 LINE",
"292 356 LINE",
"198 356 LINE"
);
}
);
width = 440;
},
{
anchors = (
{
name = bottom;
position = "{215, 0}";
},
{
name = ogonek;
position = "{379, 10}";
},
{
name = top;
position = "{215, 695}";
}
);
layerId = "2009CD91-3BC4-40DB-AFF0-7394B85F3EFC";
paths = (
{
closed = 1;
nodes = (
"97 0 LINE",
"144 257 LINE",
"286 257 LINE",
"333 0 LINE",
"400 0 LINE",
"259 700 LINE",
"171 700 LINE",
"30 0 LINE"
);
},
{
closed = 1;
nodes = (
"215 633 LINE",
"272 347 LINE",
"162 347 LINE"
);
}
);
width = 430;
}
);
leftKerningGroup = A;
rightKerningGroup = A;
unicode = 0041;
},
{
glyphname = AE;
lastChange = "2016-02-04 00:10:24 +0000";
layers = (
{
anchors = (
{
name = bottom;
position = "{439, 0}";
},
{
name = top;
position = "{479, 700}";
}
);
components = (
{
name = E;
transform = "{1, 0, 0, 1, 324, 0}";
}
);
layerId = "8E5E9D5F-1CFD-4F58-89B8-A9F3704C2D63";
paths = (
{
closed = 1;
nodes = (
"120 0 LINE",
"224 247 LINE",
"374 247 LINE",
"374 0 LINE",
"439 0 LINE",
"462 700 LINE",
"326 700 LINE",
"25 0 LINE"
);
},
{
closed = 1;
nodes = (
"375 617 LINE",
"375 344 LINE",
"256 344 LINE"
);
}
);
width = 692;
},
{
anchors = (
{
name = bottom;
position = "{277, 0}";
},
{
name = top;
position = "{401, 700}";
}
);
components = (
{
name = E;
transform = "{1, 0, -0.07, 1, 275, -2}";
}
);
layerId = "A2919505-2A95-4438-A60E-B7D4573C3483";
paths = (
{
closed = 1;
nodes = (
"68 0 LINE",
"163 247 LINE",
"288 247 LINE",
"292 0 LINE",
"387 0 LINE",
"371 700 LINE",
"235 700 LINE",
"-27 0 LINE"
);
},
{
closed = 1;
nodes = (
"284 605 LINE",
"292 356 LINE",
"198 356 LINE"
);
}
);
width = 635;
},
{
anchors = (
{
name = bottom;
position = "{308, 0}";
},
{
name = top;
position = "{428, 700}";
}
);
components = (
{
name = E;
transform = "{1, 0, 0, 1, 290, 0}";
}
);
layerId = "2009CD91-3BC4-40DB-AFF0-7394B85F3EFC";
paths = (
{
closed = 1;
nodes = (
"97 0 LINE",
"189 257 LINE",
"333 257 LINE",
"333 0 LINE",
"382 0 LINE",
"382 700 LINE",
"294 700 LINE",
"30 0 LINE"
);
},
{
closed = 1;
nodes = (
"333 633 LINE",
"333 347 LINE",
"223 347 LINE"
);
}
);
width = 616;
}
);
leftMetricsKey = A;
rightMetricsKey = E;
unicode = 00C6;
},
{
glyphname = B;
lastChange = "2016-01-22 10:19:25 +0000";
layers = (
{
anchors = (
{
name = bottom;
position = "{212, 0}";
},
{
name = top;
position = "{212, 700}";
}
);
layerId = "8E5E9D5F-1CFD-4F58-89B8-A9F3704C2D63";
paths = (
{
closed = 1;
nodes = (
"50 6 OFFCURVE",
"56 0 OFFCURVE",
"65 0 CURVE SMOOTH",
"250 0 LINE SMOOTH",
"351 0 OFFCURVE",
"403 35 OFFCURVE",
"403 191 CURVE SMOOTH",
"403 306 OFFCURVE",
"365 327 OFFCURVE",
"327 345 CURVE",
"366 348 OFFCURVE",
"385 420 OFFCURVE",
"385 515 CURVE SMOOTH",
"385 603 OFFCURVE",
"368 700 OFFCURVE",
"242 700 CURVE SMOOTH",
"55 700 LINE SMOOTH",
"52 700 OFFCURVE",
"50 698 OFFCURVE",
"50 695 CURVE",
"50 15 LINE"
);
},
{
closed = 1;
nodes = (
"145 288 LINE",
"252 288 LINE SMOOTH",
"303 288 OFFCURVE",
"308 289 OFFCURVE",
"308 206 CURVE SMOOTH",
"308 105 OFFCURVE",
"304 97 OFFCURVE",
"239 97 CURVE",
"145 97 LINE"
);
},
{
closed = 1;
nodes = (
"145 603 LINE",
"234 603 LINE SMOOTH",
"289 603 OFFCURVE",
"290 589 OFFCURVE",
"290 520 CURVE SMOOTH",
"290 388 OFFCURVE",
"287 385 OFFCURVE",
"234 385 CURVE",
"145 385 LINE"
);
}
);
width = 443;
},
{
anchors = (
{
name = bottom;
position = "{153, 0}";
},
{
name = top;
position = "{276, 700}";
}
);
layerId = "A2919505-2A95-4438-A60E-B7D4573C3483";
paths = (
{
closed = 1;
nodes = (
"9 6 OFFCURVE",
"14 0 OFFCURVE",
"23 0 CURVE SMOOTH",
"178 0 LINE SMOOTH",
"279 0 OFFCURVE",
"344 45 OFFCURVE",
"366 201 CURVE SMOOTH",
"378 286 OFFCURVE",
"354 327 OFFCURVE",
"327 355 CURVE",
"360 378 OFFCURVE",
"388 440 OFFCURVE",
"403 515 CURVE SMOOTH",
"424 618 OFFCURVE",
"379 700 OFFCURVE",
"293 700 CURVE SMOOTH",
"136 700 LINE SMOOTH",
"133 700 OFFCURVE",
"131 698 OFFCURVE",
"130 695 CURVE",
"10 15 LINE"
);
},
{
closed = 1;
nodes = (
"157 309 LINE",
"234 309 LINE SMOOTH",
"285 309 OFFCURVE",
"291 308 OFFCURVE",
"271 206 CURVE SMOOTH",
"251 104 OFFCURVE",
"249 97 OFFCURVE",
"184 97 CURVE",
"120 97 LINE"
);
},
{
closed = 1;
nodes = (
"209 603 LINE",
"268 603 LINE SMOOTH",
"323 603 OFFCURVE",
"321 589 OFFCURVE",
"309 520 CURVE SMOOTH",
"290 408 OFFCURVE",
"286 404 OFFCURVE",
"233 404 CURVE",
"174 404 LINE"
);
}
);
width = 395;
},
{
anchors = (
{
name = bottom;
position = "{178, 0}";
},
{
name = top;
position = "{178, 700}";
}
);
layerId = "2009CD91-3BC4-40DB-AFF0-7394B85F3EFC";
paths = (
{
closed = 1;
nodes = (
"45 0 OFFCURVE",
"45 0 OFFCURVE",
"50 0 CURVE SMOOTH",
"200 0 LINE SMOOTH",
"304 0 OFFCURVE",
"338 42 OFFCURVE",
"338 181 CURVE SMOOTH",
"338 296 OFFCURVE",
"319 322 OFFCURVE",
"281 334 CURVE",
"319 346 OFFCURVE",
"320 401 OFFCURVE",
"320 522 CURVE SMOOTH",
"320 649 OFFCURVE",
"283 700 OFFCURVE",
"192 700 CURVE SMOOTH",
"50 700 LINE",
"45 700 OFFCURVE",
"45 700 OFFCURVE",
"45 695 CURVE",
"45 5 LINE SMOOTH"
);
},
{
closed = 1;
nodes = (
"110 295 LINE",
"202 295 LINE SMOOTH",
"267 295 OFFCURVE",
"272 292 OFFCURVE",
"272 196 CURVE SMOOTH",
"272 81 OFFCURVE",
"264 67 OFFCURVE",
"189 67 CURVE SMOOTH",
"110 67 LINE"
);
},
{
closed = 1;
nodes = (
"110 633 LINE",
"184 633 LINE SMOOTH",
"253 633 OFFCURVE",
"255 605 OFFCURVE",
"255 527 CURVE SMOOTH",
"255 388 OFFCURVE",
"250 365 OFFCURVE",
"184 365 CURVE SMOOTH",
"110 365 LINE"
);
}
);
width = 355;
}
);
leftMetricsKey = I;
rightMetricsKey = D;
unicode = 0042;
},
{
glyphname = C;
lastChange = "2015-12-20 00:15:54 +0000";
layers = (
{
anchors = (
{
name = bottom;
position = "{174, 0}";
},
{
name = top;
position = "{178, 689}";
}
);
background = {
paths = (
{
closed = 1;
nodes = (
"33 391 OFFCURVE",
"32 344 OFFCURVE",
"32 181 CURVE SMOOTH",
"32 19 OFFCURVE",
"31 -4 OFFCURVE",
"186 -4 CURVE",
"325 -4 LINE",
"329 391 LINE",
"173 391 LINE"
);
},
{
closed = 1;
nodes = (
"256 292 LINE",
"256 165 LINE",
"256 85 LINE",
"185 85 LINE",
"129 85 OFFCURVE",
"129 103 OFFCURVE",
"129 174 CURVE SMOOTH",
"129 289 OFFCURVE",
"129 292 OFFCURVE",
"185 292 CURVE"
);
}
);
};
guideLines = (
{
position = "{146, 564}";
}
);
layerId = "8E5E9D5F-1CFD-4F58-89B8-A9F3704C2D63";
paths = (
{
closed = 1;
nodes = (
"317 699 LINE",
"226 707 LINE",
"58 707 OFFCURVE",
"40 624 OFFCURVE",
"40 356 CURVE SMOOTH",
"40 79 OFFCURVE",
"70 -8 OFFCURVE",
"238 -8 CURVE SMOOTH",
"258 -8 OFFCURVE",
"296 -3 OFFCURVE",
"317 0 CURVE",
"317 97 LINE",
"228 97 LINE",
"135 97 OFFCURVE",
"135 101 OFFCURVE",
"135 350 CURVE SMOOTH",
"135 598 OFFCURVE",
"135 602 OFFCURVE",
"228 602 CURVE SMOOTH",
"317 602 LINE"
);
}
);
width = 347;
},
{
anchors = (
{
name = bottom;
position = "{131, 0}";
},
{
name = top;
position = "{256, 689}";
}
);
layerId = "A2919505-2A95-4438-A60E-B7D4573C3483";
paths = (
{
closed = 1;
nodes = (
"397 699 LINE",
"307 707 LINE",
"119 707 OFFCURVE",
"107 624 OFFCURVE",
"59 356 CURVE SMOOTH",
"11 79 OFFCURVE",
"5 -8 OFFCURVE",
"193 -8 CURVE SMOOTH",
"213 -8 OFFCURVE",
"252 -3 OFFCURVE",
"274 0 CURVE",
"291 97 LINE",
"202 97 LINE",
"109 97 OFFCURVE",
"109 101 OFFCURVE",
"153 350 CURVE SMOOTH",
"197 598 OFFCURVE",
"198 602 OFFCURVE",
"291 602 CURVE SMOOTH",
"380 602 LINE"
);
}
);
width = 347;
},
{
anchors = (
{
name = bottom;
position = "{154, 0}";
},
{
name = top;
position = "{158, 689}";
}
);
guideLines = (
{
position = "{111, 157}";
}
);
layerId = "2009CD91-3BC4-40DB-AFF0-7394B85F3EFC";
paths = (
{
closed = 1;
nodes = (
"282 692 LINE",
"205 699 LINE",
"81 699 OFFCURVE",
"35 680 OFFCURVE",
"35 356 CURVE SMOOTH",
"35 21 OFFCURVE",
"89 -3 OFFCURVE",
"218 -3 CURVE SMOOTH",
"231 -3 OFFCURVE",
"254 -1 OFFCURVE",
"282 3 CURVE",
"282 68 LINE",
"208 68 LINE SMOOTH",
"120 68 OFFCURVE",
"100 89 OFFCURVE",
"100 350 CURVE SMOOTH",
"100 608 OFFCURVE",
"120 627 OFFCURVE",
"208 627 CURVE SMOOTH",
"282 627 LINE"
);
}
);
width = 310;
}
);
unicode = 0043;
},
{
glyphname = D;
lastChange = "2015-12-18 04:32:32 +0000";
layers = (
{
anchors = (
{
name = bottom;
position = "{213, 0}";
},
{
name = center;
position = "{213, 350}";
},
{
name = top;
position = "{213, 696}";
}
);
layerId = "8E5E9D5F-1CFD-4F58-89B8-A9F3704C2D63";
paths = (
{
closed = 1;
nodes = (
"50 6 OFFCURVE",
"56 0 OFFCURVE",
"65 0 CURVE SMOOTH",
"218 0 LINE SMOOTH",
"386 0 OFFCURVE",
"406 139 OFFCURVE",
"406 331 CURVE SMOOTH",
"406 541 OFFCURVE",
"399 700 OFFCURVE",
"218 700 CURVE SMOOTH",
"55 700 LINE SMOOTH",
"52 700 OFFCURVE",
"50 698 OFFCURVE",
"50 695 CURVE SMOOTH",
"50 15 LINE SMOOTH"
);
},
{
closed = 1;
nodes = (
"145 599 LINE",
"205 599 LINE",
"305 599 OFFCURVE",
"311 547 OFFCURVE",
"311 334 CURVE SMOOTH",
"311 163 OFFCURVE",
"305 105 OFFCURVE",
"205 105 CURVE",
"145 105 LINE"
);
}
);
width = 446;
},
{
anchors = (
{
name = bottom;
position = "{171, 0}";
},
{
name = center;
position = "{232, 350}";
},
{
name = top;
position = "{294, 700}";
}
);
layerId = "A2919505-2A95-4438-A60E-B7D4573C3483";
paths = (
{
closed = 1;
nodes = (
"9 6 OFFCURVE",
"14 0 OFFCURVE",
"23 0 CURVE SMOOTH",
"176 0 LINE SMOOTH",
"324 0 OFFCURVE",
"388 139 OFFCURVE",
"422 331 CURVE SMOOTH",
"459 541 OFFCURVE",
"461 704 OFFCURVE",
"300 704 CURVE SMOOTH",
"137 704 LINE SMOOTH",
"134 704 OFFCURVE",
"131 702 OFFCURVE",
"131 699 CURVE SMOOTH",
"10 15 LINE SMOOTH"
);
},
{
closed = 1;
nodes = (
"208 594 LINE",
"268 594 LINE",
"358 594 OFFCURVE",
"360 547 OFFCURVE",
"322 334 CURVE SMOOTH",
"292 163 OFFCURVE",
"271 110 OFFCURVE",
"181 110 CURVE",
"121 110 LINE"
);
}
);
width = 427;
},
{
anchors = (
{
name = bottom;
position = "{194, 0}";
},
{
name = center;
position = "{194, 350}";
},
{
name = top;
position = "{194, 700}";
}
);
layerId = "2009CD91-3BC4-40DB-AFF0-7394B85F3EFC";
paths = (
{
closed = 1;
nodes = (
"45 2 OFFCURVE",
"47 0 OFFCURVE",
"50 0 CURVE SMOOTH",
"178 0 LINE SMOOTH",
"333 0 OFFCURVE",
"351 125 OFFCURVE",
"351 330 CURVE SMOOTH",
"351 556 OFFCURVE",
"345 704 OFFCURVE",
"178 704 CURVE SMOOTH",
"50 704 LINE SMOOTH",
"47 704 OFFCURVE",
"45 702 OFFCURVE",
"45 699 CURVE SMOOTH",
"45 5 LINE SMOOTH"
);
},
{
closed = 1;
nodes = (
"110 629 LINE",
"165 629 LINE SMOOTH",
"278 629 OFFCURVE",
"286 563 OFFCURVE",
"286 333 CURVE SMOOTH",
"286 147 OFFCURVE",
"279 75 OFFCURVE",
"165 75 CURVE SMOOTH",
"110 75 LINE"
);
}
);
width = 368;
}
);
leftMetricsKey = I;
unicode = 0044;
},
{
glyphname = E;
lastChange = "2016-01-22 10:19:25 +0000";
layers = (
{
anchors = (
{
name = bottom;
position = "{179, 0}";
},
{
name = ogonek;
position = "{322, 10}";
},
{
name = top;
position = "{186, 693}";
},
{
name = topleft;
position = "{20, 700}";
}
);
layerId = "8E5E9D5F-1CFD-4F58-89B8-A9F3704C2D63";
paths = (
{
closed = 1;
nodes = (
"333 0 LINE",
"333 97 LINE",
"145 97 LINE",
"145 306 LINE",
"325 306 LINE",
"325 403 LINE",
"145 403 LINE",
"145 605 LINE",
"333 605 LINE",
"333 702 LINE",
"50 702 LINE",
"50 0 LINE"
);
}
);
width = 368;
},
{
anchors = (
{
name = bottom;
position = "{137, 0}";
},
{
name = ogonek;
position = "{281, 10}";
},
{
name = top;
position = "{266, 693}";
},
{
name = topleft;
position = "{101, 700}";
}
);
layerId = "A2919505-2A95-4438-A60E-B7D4573C3483";
paths = (
{
closed = 1;
nodes = (
"291 0 LINE",
"308 97 LINE",
"120 97 LINE",
"157 306 LINE",
"337 306 LINE",
"354 403 LINE",
"174 403 LINE",
"209 605 LINE",
"397 605 LINE",
"414 702 LINE",
"131 702 LINE",
"8 0 LINE"
);
}
);
width = 360;
},
{
anchors = (
{
name = bottom;
position = "{163, 0}";
},
{
name = ogonek;
position = "{293, 10}";
},
{
name = top;
position = "{163, 700}";
},
{
name = topleft;
position = "{20, 700}";
}
);
layerId = "2009CD91-3BC4-40DB-AFF0-7394B85F3EFC";
paths = (
{
closed = 1;
nodes = (
"298 0 LINE",
"298 67 LINE",
"110 67 LINE",
"110 321 LINE",
"290 321 LINE",
"290 388 LINE",
"110 388 LINE",
"110 633 LINE",
"298 633 LINE",
"298 700 LINE",
"45 700 LINE",
"45 0 LINE"
);
}
);
width = 326;
}
);
leftKerningGroup = E;
leftMetricsKey = I;
rightKerningGroup = E;
rightMetricsKey = L;
unicode = 0045;
},
{
glyphname = F;
lastChange = "2015-12-18 04:12:34 +0000";
layers = (
{
anchors = (
{
name = bottom;
position = "{180, 0}";
},
{
name = top;
position = "{180, 700}";
}
);
layerId = "8E5E9D5F-1CFD-4F58-89B8-A9F3704C2D63";
paths = (
{
closed = 1;
nodes = (
"145 1 LINE",
"145 306 LINE",
"326 306 LINE",
"326 403 LINE",
"145 403 LINE",
"145 603 LINE",
"334 603 LINE",
"334 700 LINE",
"50 700 LINE",
"50 1 LINE"
);
}
);
width = 369;
},
{
anchors = (
{
name = bottom;
position = "{137, 0}";
},
{
name = top;
position = "{260, 700}";
}
);
layerId = "A2919505-2A95-4438-A60E-B7D4573C3483";
paths = (
{
closed = 1;
nodes = (
"103 1 LINE",
"157 306 LINE",
"338 306 LINE",
"355 403 LINE",
"174 403 LINE",
"209 603 LINE",
"398 603 LINE",
"415 700 LINE",
"131 700 LINE",
"8 1 LINE"
);
}
);
width = 360;
},
{
anchors = (
{
name = bottom;
position = "{164, 0}";
},
{
name = top;
position = "{164, 700}";
}
);
layerId = "2009CD91-3BC4-40DB-AFF0-7394B85F3EFC";
paths = (
{
closed = 1;
nodes = (
"110 0 LINE",
"110 336 LINE",
"291 336 LINE",
"291 403 LINE",
"110 403 LINE",
"110 633 LINE",
"299 633 LINE",
"299 700 LINE",
"45 700 LINE",
"45 0 LINE"
);
}
);
width = 327;
}
);
leftMetricsKey = I;
rightMetricsKey = L;
unicode = 0046;
},
{
glyphname = G;
lastChange = "2016-01-22 10:19:25 +0000";
layers = (
{
anchors = (
{
name = bottom;
position = "{204, 0}";
},
{
name = top;
position = "{204, 700}";
}
);
background = {
paths = (
{
closed = 1;
nodes = (
"373 0 OFFCURVE",
"390 162 OFFCURVE",
"390 358 CURVE",
"390 554 OFFCURVE",
"374 716 OFFCURVE",
"204 716 CURVE SMOOTH",
"35 716 OFFCURVE",
"18 554 OFFCURVE",
"18 358 CURVE SMOOTH",
"18 162 OFFCURVE",
"34 0 OFFCURVE",
"204 0 CURVE SMOOTH"
);
},
{
closed = 1;
nodes = (
"117 105 OFFCURVE",
"117 172 OFFCURVE",
"117 358 CURVE SMOOTH",
"117 544 OFFCURVE",
"117 611 OFFCURVE",
"204 611 CURVE SMOOTH",
"291 611 OFFCURVE",
"291 544 OFFCURVE",
"291 358 CURVE SMOOTH",
"291 172 OFFCURVE",
"291 105 OFFCURVE",
"204 105 CURVE SMOOTH"
);
}
);
};
layerId = "8E5E9D5F-1CFD-4F58-89B8-A9F3704C2D63";
paths = (
{
closed = 1;
nodes = (
"30 94 OFFCURVE",
"47 -10 OFFCURVE",
"203 -10 CURVE SMOOTH",
"341 -10 OFFCURVE",
"387 87 OFFCURVE",
"387 201 CURVE SMOOTH",
"387 354 LINE",
"228 354 LINE",
"228 257 LINE",
"299 257 LINE",
"299 201 LINE",
"299 134 OFFCURVE",
"285 87 OFFCURVE",
"213 87 CURVE SMOOTH",
"138 87 OFFCURVE",
"124 141 OFFCURVE",
"124 354 CURVE",
"124 546 OFFCURVE",
"138 619 OFFCURVE",
"213 619 CURVE SMOOTH",
"284 619 OFFCURVE",
"292 552 OFFCURVE",
"292 497 CURVE",
"387 497 LINE",
"387 622 OFFCURVE",
"316 716 OFFCURVE",
"203 716 CURVE SMOOTH",
"47 716 OFFCURVE",
"30 527 OFFCURVE",
"30 331 CURVE SMOOTH"
);
}
);
width = 417;
},
{
anchors = (
{
name = bottom;
position = "{161, 0}";
},
{
name = top;
position = "{284, 700}";
}
);
layerId = "A2919505-2A95-4438-A60E-B7D4573C3483";
paths = (
{
closed = 1;
nodes = (
"2 114 OFFCURVE",
"22 -10 OFFCURVE",
"158 -10 CURVE SMOOTH",
"275 -10 OFFCURVE",
"359 87 OFFCURVE",
"379 201 CURVE SMOOTH",
"406 354 LINE",
"247 354 LINE",
"230 257 LINE",
"301 257 LINE",
"291 201 LINE",
"279 134 OFFCURVE",
"247 87 OFFCURVE",
"185 87 CURVE SMOOTH",
"110 87 OFFCURVE",
"105 141 OFFCURVE",
"143 354 CURVE",
"177 546 OFFCURVE",
"204 619 OFFCURVE",
"279 619 CURVE SMOOTH",
"334 619 OFFCURVE",
"346 552 OFFCURVE",
"336 497 CURVE",
"431 497 LINE",
"453 622 OFFCURVE",
"416 716 OFFCURVE",
"286 716 CURVE SMOOTH",
"108 716 OFFCURVE",
"88 547 OFFCURVE",
"45 331 CURVE SMOOTH"
);
}
);
width = 417;
},
{
anchors = (
{
name = bottom;
position = "{186, 0}";
},
{
name = top;
position = "{186, 700}";
}
);
background = {
paths = (
{
closed = 1;
nodes = (
"327 -3 OFFCURVE",
"343 133 OFFCURVE",
"343 351 CURVE SMOOTH",
"343 569 OFFCURVE",
"328 704 OFFCURVE",
"182 704 CURVE SMOOTH",
"37 704 OFFCURVE",
"21 569 OFFCURVE",
"21 351 CURVE SMOOTH",
"21 133 OFFCURVE",
"36 -3 OFFCURVE",
"182 -3 CURVE SMOOTH"
);
},
{
closed = 1;
nodes = (
"85 58 OFFCURVE",
"85 163 OFFCURVE",
"85 351 CURVE SMOOTH",
"85 539 OFFCURVE",
"85 643 OFFCURVE",
"182 643 CURVE SMOOTH",
"279 643 OFFCURVE",
"279 539 OFFCURVE",
"279 351 CURVE SMOOTH",
"279 163 OFFCURVE",
"279 58 OFFCURVE",
"182 58 CURVE SMOOTH"
);
}
);
};
layerId = "2009CD91-3BC4-40DB-AFF0-7394B85F3EFC";
paths = (
{
closed = 1;
nodes = (
"25 97 OFFCURVE",
"55 -3 OFFCURVE",
"178 -3 CURVE SMOOTH",
"289 -3 OFFCURVE",
"347 64 OFFCURVE",
"347 201 CURVE SMOOTH",
"347 339 LINE",
"218 339 LINE",
"218 274 LINE",
"289 274 LINE",
"289 201 LINE SMOOTH",
"289 110 OFFCURVE",
"268 64 OFFCURVE",
"188 64 CURVE SMOOTH",
"103 64 OFFCURVE",
"89 120 OFFCURVE",
"89 354 CURVE SMOOTH",
"89 572 OFFCURVE",
"106 637 OFFCURVE",
"188 637 CURVE SMOOTH",
"256 637 OFFCURVE",
"277 586 OFFCURVE",
"282 515 CURVE",
"347 515 LINE",
"342 625 OFFCURVE",
"280 704 OFFCURVE",
"178 704 CURVE SMOOTH",
"17 704 OFFCURVE",
"25 511 OFFCURVE",
"25 331 CURVE SMOOTH"
);
}
);
width = 372;
}
);
leftMetricsKey = O;
rightMetricsKey = O;
unicode = 0047;
},
{
glyphname = H;
lastChange = "2016-02-15 04:40:52 +0000";
layers = (
{
anchors = (
{
name = bottom;
position = "{242, 0}";
},
{
name = center;
position = "{242, 350}";
},
{
name = top;
position = "{242, 700}";
},
{
name = topleft;
position = "{20, 700}";
}
);
layerId = "8E5E9D5F-1CFD-4F58-89B8-A9F3704C2D63";
paths = (
{
closed = 1;
nodes = (
"147 0 LINE",
"147 321 LINE",
"335 321 LINE",
"335 0 LINE",
"432 0 LINE",
"432 700 LINE",
"335 700 LINE",
"335 418 LINE",
"147 418 LINE",
"147 700 LINE",
"50 700 LINE",
"50 0 LINE"
);
}
);
width = 482;
},
{
anchors = (
{
name = bottom;
position = "{200, 0}";
},
{
name = center;
position = "{261, 350}";
},
{
name = top;
position = "{323, 700}";
},
{
name = topleft;
position = "{101, 700}";
}
);
layerId = "A2919505-2A95-4438-A60E-B7D4573C3483";
paths = (
{
closed = 1;
nodes = (
"105 0 LINE",
"161 321 LINE",
"349 321 LINE",
"293 0 LINE",
"390 0 LINE",
"513 700 LINE",
"416 700 LINE",
"366 418 LINE",
"178 418 LINE",
"228 700 LINE",
"131 700 LINE",
"8 0 LINE"
);
}
);
width = 484;
},
{
anchors = (
{
name = bottom;
position = "{201, 0}";
},
{
name = center;
position = "{201, 350}";
},
{
name = top;
position = "{201, 700}";
},
{
name = topleft;
position = "{45, 699}";
}
);
layerId = "2009CD91-3BC4-40DB-AFF0-7394B85F3EFC";
paths = (
{
closed = 1;
nodes = (
"71 0 LINE",
"71 357 LINE",
"330 357 LINE",
"330 0 LINE",
"355 0 LINE",
"355 700 LINE",
"330 700 LINE",
"330 382 LINE",
"71 382 LINE",
"71 699 LINE",
"45 699 LINE",
"45 0 LINE"
);
}
);
width = 401;
}
);
leftMetricsKey = N;
rightMetricsKey = N;
unicode = 0048;
},
{
glyphname = Hbar;
lastChange = "2016-01-22 10:19:25 +0000";
layers = (
{
components = (
{
name = H;
transform = "{1, 0, 0, 1, 71, 0}";
}
);
layerId = "8E5E9D5F-1CFD-4F58-89B8-A9F3704C2D63";
paths = (
{
closed = 1;
nodes = (
"50 553 LINE",
"574 553 LINE",
"574 630 LINE",
"50 630 LINE"
);
}
);
width = 624;
},
{
components = (
{
name = H;
transform = "{1, 0, 0, 1, 78, 0}";
}
);
layerId = "A2919505-2A95-4438-A60E-B7D4573C3483";
paths = (
{
closed = 1;
nodes = (
"105 553 LINE",
"629 553 LINE",
"642 630 LINE",
"118 630 LINE"
);
}
);
width = 625;
},
{
components = (
{
name = H;
transform = "{1, 0, 0, 1, 66, 0}";
}
);
layerId = "2009CD91-3BC4-40DB-AFF0-7394B85F3EFC";
paths = (
{
closed = 1;
nodes = (
"45 563 LINE",
"569 563 LINE",
"569 627 LINE",
"45 627 LINE"
);
}
);
width = 615;
}
);
leftMetricsKey = H;
rightMetricsKey = H;
unicode = 0126;
},
{
glyphname = I;
lastChange = "2016-02-14 05:23:26 +0000";
layers = (
{
anchors = (
{
name = bottom;
position = "{98, 0}";
},
{
name = ogonek;
position = "{154, 10}";
},
{
name = top;
position = "{97, 688}";
},
{
name = topleft;
position = "{20, 700}";
}
);
layerId = "8E5E9D5F-1CFD-4F58-89B8-A9F3704C2D63";
paths = (
{
closed = 1;
nodes = (
"145 0 LINE",
"145 698 LINE",
"50 698 LINE",
"50 0 LINE"
);
}
);
width = 195;
},
{
anchors = (
{
name = bottom;
position = "{54, 0}";
},
{
name = ogonek;
position = "{132, 10}";
},
{
name = top;
position = "{175, 688}";
},
{
name = topleft;
position = "{99, 700}";
}
);
layerId = "A2919505-2A95-4438-A60E-B7D4573C3483";
paths = (
{
closed = 1;
nodes = (
"102 0 LINE",
"225 698 LINE",
"130 698 LINE",
"7 0 LINE"
);
}
);
width = 196;
},
{
anchors = (
{
name = bottom;
position = "{84, 0}";
},
{
name = ogonek;
position = "{135, 10}";
},
{
name = top;
position = "{83, 688}";
},
{
name = topleft;
position = "{6, 700}";
}
);
layerId = "2009CD91-3BC4-40DB-AFF0-7394B85F3EFC";
paths = (
{
closed = 1;
nodes = (
"98 0 LINE",
"98 698 LINE",
"70 698 LINE",
"70 0 LINE"
);
}
);
width = 166;
}
);
leftMetricsKey = l;
rightMetricsKey = l;
unicode = 0049;
},
{
glyphname = J;
lastChange = "2016-01-22 10:19:25 +0000";
layers = (
{
anchors = (
{
name = bottom;
position = "{141, 0}";
},
{
name = top;
position = "{141, 700}";
}
);
layerId = "8E5E9D5F-1CFD-4F58-89B8-A9F3704C2D63";
paths = (
{
closed = 1;
nodes = (
"119 0 LINE",
"218 0 OFFCURVE",
"230 95 OFFCURVE",
"230 139 CURVE SMOOTH",
"230 698 LINE",
"135 698 LINE",
"135 158 LINE SMOOTH",
"135 133 OFFCURVE",
"134 92 OFFCURVE",
"15 97 CURVE",
"15 0 LINE"
);
}
);
width = 280;
},
{
anchors = (
{
name = bottom;
position = "{97, 0}";
},
{
name = top;
position = "{220, 700}";
}
);
layerId = "A2919505-2A95-4438-A60E-B7D4573C3483";
paths = (
{
closed = 1;
nodes = (
"76 0 LINE",
"184 0 OFFCURVE",
"203 95 OFFCURVE",
"211 139 CURVE SMOOTH",
"310 698 LINE",
"215 698 LINE",
"119 158 LINE SMOOTH",
"115 133 OFFCURVE",
"109 92 OFFCURVE",
"-11 97 CURVE",
"-28 0 LINE"
);
}
);
width = 281;
},
{
anchors = (
{
name = bottom;
position = "{122, 0}";
},
{
name = top;
position = "{122, 700}";
}
);
layerId = "2009CD91-3BC4-40DB-AFF0-7394B85F3EFC";
paths = (
{
closed = 1;
nodes = (
"101 2 LINE SMOOTH",
"187 2 OFFCURVE",
"197 83 OFFCURVE",
"197 126 CURVE SMOOTH",
"197 700 LINE",
"132 700 LINE",
"132 145 LINE SMOOTH",
"132 90 OFFCURVE",
"95 68 OFFCURVE",
"12 69 CURVE",
"12 2 LINE"
);
}
);
width = 243;
}
);
rightMetricsKey = I;
unicode = 004A;
},
{
glyphname = K;
lastChange = "2016-01-22 10:19:25 +0000";
layers = (
{
anchors = (
{
name = bottom;
position = "{202, 0}";
},
{
name = top;
position = "{202, 700}";
}
);
layerId = "8E5E9D5F-1CFD-4F58-89B8-A9F3704C2D63";
paths = (
{
closed = 1;
nodes = (
"145 0 LINE",
"145 297 LINE",
"268 0 LINE",
"373 0 LINE",
"222 343 LINE",
"365 700 LINE",
"260 700 LINE",
"145 391 LINE",
"145 700 LINE",
"50 700 LINE",
"50 0 LINE"
);
}
);
width = 382;
},
{
anchors = (
{
name = bottom;
position = "{158, 0}";
},
{
name = top;
position = "{281, 700}";
}
);
layerId = "A2919505-2A95-4438-A60E-B7D4573C3483";
paths = (
{
closed = 1;
nodes = (
"102 0 LINE",
"154 297 LINE",
"225 0 LINE",
"330 0 LINE",
"239 343 LINE",
"445 700 LINE",
"340 700 LINE",
"171 391 LINE",
"225 700 LINE",
"130 700 LINE",
"7 0 LINE"
);
}
);
width = 382;
},
{
anchors = (
{
name = bottom;
position = "{183, 0}";
},
{
name = top;
position = "{183, 700}";
}
);
layerId = "2009CD91-3BC4-40DB-AFF0-7394B85F3EFC";
paths = (
{
closed = 1;
nodes = (
"115 0 LINE",
"115 292 LINE",
"263 0 LINE",
"335 0 LINE",
"191 342 LINE",
"328 700 LINE",
"255 700 LINE",
"115 388 LINE",
"115 700 LINE",
"50 700 LINE",
"50 0 LINE"
);
}
);
width = 341;
}
);
leftKerningGroup = Llike;
leftMetricsKey = L;
unicode = 004B;
},
{
glyphname = L;
lastChange = "2016-02-14 05:25:21 +0000";
layers = (
{
anchors = (
{
name = bottom;
position = "{169, 0}";
},
{
name = center;
position = "{169, 350}";
},
{
name = top;
position = "{141, 660}";
},
{
name = topright;
position = "{318, 700}";
}
);
layerId = "8E5E9D5F-1CFD-4F58-89B8-A9F3704C2D63";
paths = (
{
closed = 1;
nodes = (
"50 2 LINE",
"313 2 LINE",
"313 99 LINE",
"145 99 LINE",
"145 698 LINE",
"50 698 LINE"
);
}
);
width = 318;
},
{
anchors = (
{
name = bottom;
position = "{126, 0}";
},
{
name = center;
position = "{187, 350}";
},
{
name = top;
position = "{179, 670}";
},
{
name = topright;
position = "{398, 700}";
}
);
layerId = "A2919505-2A95-4438-A60E-B7D4573C3483";
paths = (
{
closed = 1;
nodes = (
"7 2 LINE",
"270 2 LINE",
"287 99 LINE",
"119 99 LINE",
"225 698 LINE",
"130 698 LINE"
);
}
);
width = 338;
},
{
anchors = (
{
name = bottom;
position = "{169, 0}";
},
{
name = center;
position = "{169, 350}";
},
{
name = top;
position = "{80, 670}";
},
{
name = topright;
position = "{318, 700}";
}
);
layerId = "2009CD91-3BC4-40DB-AFF0-7394B85F3EFC";
paths = (
{
closed = 1;
nodes = (
"69 0 LINE",
"313 0 LINE",
"313 28 LINE",
"97 28 LINE",
"97 700 LINE",
"69 700 LINE"
);
}
);
width = 313;
}
);
leftKerningGroup = Llike;
unicode = 004C;
},
{
glyphname = Lslash;
lastChange = "2015-12-18 04:12:34 +0000";
layers = (
{
components = (
{
name = L;
transform = "{1, 0, 0, 1, 45, 0}";
}
);
layerId = "8E5E9D5F-1CFD-4F58-89B8-A9F3704C2D63";
paths = (
{
closed = 1;
nodes = (
"50 358 LINE",
"50 253 LINE",
"275 401 LINE",
"275 506 LINE"
);
}
);
width = 393;
},
{
components = (
{
name = L;
transform = "{1, 0, 0, 1, 51, 0}";
}
);
layerId = "A2919505-2A95-4438-A60E-B7D4573C3483";
paths = (
{
closed = 1;
nodes = (
"69 358 LINE",
"51 253 LINE",
"302 401 LINE",
"320 506 LINE"
);
}
);
width = 389;
},
{
components = (
{
name = L;
transform = "{1, 0, 0, 1, 45, 0}";
}
);
layerId = "2009CD91-3BC4-40DB-AFF0-7394B85F3EFC";
paths = (
{
closed = 1;
nodes = (
"50 358 LINE",
"50 283 LINE",
"275 431 LINE",
"275 506 LINE"
);
}
);
width = 386;
}
);
leftMetricsKey = L;
rightMetricsKey = L;
unicode = 0141;
},
{
glyphname = M;
lastChange = "2016-01-22 10:19:25 +0000";
layers = (
{
anchors = (
{
name = bottom;
position = "{270, 0}";
},
{
name = top;
position = "{270, 700}";
}
);
layerId = "8E5E9D5F-1CFD-4F58-89B8-A9F3704C2D63";
paths = (
{
closed = 1;
nodes = (
"140 0 LINE",
"140 506 LINE",
"224 197 LINE",
"298 197 LINE",
"399 506 LINE",
"399 0 LINE",
"489 0 LINE",
"489 699 LINE",
"394 699 LINE",
"267 357 LINE",
"145 699 LINE",
"50 699 LINE",
"50 0 LINE"
);
}
);
width = 539;
},
{
anchors = (
{
name = bottom;
position = "{227, 0}";
},
{
name = top;
position = "{350, 700}";
}
);
layerId = "A2919505-2A95-4438-A60E-B7D4573C3483";
paths = (
{
closed = 1;
nodes = (
"98 0 LINE",
"187 506 LINE",
"216 197 LINE",
"290 197 LINE",
"446 506 LINE",
"357 0 LINE",
"447 0 LINE",
"570 699 LINE",
"475 699 LINE",
"288 357 LINE",
"226 699 LINE",
"131 699 LINE",
"8 0 LINE"
);
}
);
width = 541;
},
{
anchors = (
{
name = bottom;
position = "{250, 0}";
},
{
name = top;
position = "{250, 700}";
}
);
layerId = "2009CD91-3BC4-40DB-AFF0-7394B85F3EFC";
paths = (
{
closed = 1;
nodes = (
"105 0 LINE",
"105 536 LINE",
"215 203 LINE",
"267 203 LINE",
"394 536 LINE",
"394 0 LINE",
"454 0 LINE",
"454 700 LINE",
"384 700 LINE",
"247 323 LINE",
"114 700 LINE",
"45 700 LINE",
"45 0 LINE"
);
}
);
width = 500;
}
);
leftMetricsKey = N;
rightMetricsKey = N;
unicode = 004D;
},
{
glyphname = N;
lastChange = "2015-12-18 04:12:34 +0000";
layers = (
{
anchors = (
{
name = bottom;
position = "{243, 0}";
},
{
name = top;
position = "{249, 702}";
}
);
layerId = "8E5E9D5F-1CFD-4F58-89B8-A9F3704C2D63";
paths = (
{
closed = 1;
nodes = (
"338 700 LINE",
"338 224 LINE",
"141 700 LINE",
"50 700 LINE",
"50 0 LINE",
"147 0 LINE",
"147 475 LINE SMOOTH",
"344 0 LINE",
"435 0 LINE",
"435 700 LINE"
);
}
);
width = 485;
},
{
anchors = (
{
name = bottom;
position = "{200, 0}";
},
{
name = top;
position = "{330, 702}";
}
);
layerId = "A2919505-2A95-4438-A60E-B7D4573C3483";
paths = (
{
closed = 1;
nodes = (
"419 700 LINE",
"335 224 LINE",
"222 700 LINE",
"131 700 LINE",
"8 0 LINE",
"105 0 LINE",
"188 475 LINE SMOOTH",
"302 0 LINE",
"393 0 LINE",
"516 700 LINE"
);
}
);
width = 487;
},
{
anchors = (
{
name = bottom;
position = "{223, 0}";
},
{
name = top;
position = "{223, 700}";
}
);
layerId = "2009CD91-3BC4-40DB-AFF0-7394B85F3EFC";
paths = (
{
closed = 1;
nodes = (
"333 700 LINE",
"333 164 LINE",
"111 700 LINE",
"45 700 LINE",
"45 0 LINE",
"112 0 LINE",
"112 535 LINE",
"334 0 LINE",
"400 0 LINE",
"400 700 LINE"
);
}
);
width = 446;
}
);
leftMetricsKey = I;
rightMetricsKey = I;
unicode = 004E;
},
{
glyphname = O;
lastChange = "2016-01-22 10:23:58 +0000";
layers = (
{
anchors = (
{
name = bottom;
position = "{216, 0}";
},
{
name = center;
position = "{216, 350}";
},
{
name = ogonek;
position = "{389, 10}";
},
{
name = top;
position = "{216, 685}";
},
{
name = topleft;
position = "{20, 700}";
},
{
name = topright;
position = "{331, 599}";
}
);
layerId = "8E5E9D5F-1CFD-4F58-89B8-A9F3704C2D63";
paths = (
{
closed = 1;
nodes = (
"385 -10 OFFCURVE",
"402 152 OFFCURVE",
"402 348 CURVE",
"402 544 OFFCURVE",
"386 706 OFFCURVE",
"216 706 CURVE SMOOTH",
"47 706 OFFCURVE",
"30 544 OFFCURVE",
"30 348 CURVE SMOOTH",
"30 152 OFFCURVE",
"46 -10 OFFCURVE",
"216 -10 CURVE SMOOTH"
);
},
{
closed = 1;
nodes = (
"129 95 OFFCURVE",
"129 162 OFFCURVE",
"129 348 CURVE SMOOTH",
"129 534 OFFCURVE",
"129 601 OFFCURVE",
"216 601 CURVE SMOOTH",
"303 601 OFFCURVE",
"303 534 OFFCURVE",
"303 348 CURVE SMOOTH",
"303 162 OFFCURVE",
"303 95 OFFCURVE",
"216 95 CURVE SMOOTH"
);
}
);
width = 432;
},
{
anchors = (
{
name = bottom;
position = "{172, 0}";
},
{
name = center;
position = "{234, 350}";
},
{
name = ogonek;
position = "{345, 10}";
},
{
name = top;
position = "{293, 685}";
},
{
name = topleft;
position = "{99, 700}";
},
{
name = topright;
position = "{431, 450}";
}
);
layerId = "A2919505-2A95-4438-A60E-B7D4573C3483";
paths = (
{
closed = 1;
nodes = (
"340 -10 OFFCURVE",
"385 152 OFFCURVE",
"420 348 CURVE",
"454 544 OFFCURVE",
"467 706 OFFCURVE",
"297 706 CURVE SMOOTH",
"128 706 OFFCURVE",
"82 544 OFFCURVE",
"48 348 CURVE SMOOTH",
"13 152 OFFCURVE",
"1 -10 OFFCURVE",
"171 -10 CURVE SMOOTH"
);
},
{
closed = 1;
nodes = (
"98 87 OFFCURVE",
"110 156 OFFCURVE",
"144 348 CURVE SMOOTH",
"178 540 OFFCURVE",
"190 609 OFFCURVE",
"280 609 CURVE SMOOTH",
"370 609 OFFCURVE",
"358 540 OFFCURVE",
"324 348 CURVE SMOOTH",
"290 156 OFFCURVE",
"278 87 OFFCURVE",
"188 87 CURVE SMOOTH"
);
}
);
width = 432;
},
{
anchors = (
{
name = bottom;
position = "{186, 0}";
},
{
name = center;
position = "{186, 350}";
},
{
name = ogonek;
position = "{335, 10}";
},
{
name = top;
position = "{186, 700}";
},
{
name = topleft;
position = "{20, 700}";
},
{
name = topright;
position = "{302, 600}";
}
);
layerId = "2009CD91-3BC4-40DB-AFF0-7394B85F3EFC";
paths = (
{
closed = 1;
nodes = (
"331 -3 OFFCURVE",
"347 133 OFFCURVE",
"347 351 CURVE SMOOTH",
"347 569 OFFCURVE",
"332 704 OFFCURVE",
"186 704 CURVE SMOOTH",
"41 704 OFFCURVE",
"25 569 OFFCURVE",
"25 351 CURVE SMOOTH",
"25 133 OFFCURVE",
"40 -3 OFFCURVE",
"186 -3 CURVE SMOOTH"
);
},
{
closed = 1;
nodes = (
"90 61 OFFCURVE",
"90 165 OFFCURVE",
"90 351 CURVE SMOOTH",
"90 537 OFFCURVE",
"90 640 OFFCURVE",
"186 640 CURVE SMOOTH",
"282 640 OFFCURVE",
"282 537 OFFCURVE",
"282 351 CURVE SMOOTH",
"282 165 OFFCURVE",
"282 61 OFFCURVE",
"186 61 CURVE SMOOTH"
);
}
);
width = 372;
}
);
unicode = 004F;
},
{
glyphname = Oslash;
lastChange = "2016-01-22 10:19:25 +0000";
layers = (
{
anchors = (
{
name = bottom;
position = "{239, 0}";
},
{
name = top;
position = "{239, 685}";
}
);
layerId = "8E5E9D5F-1CFD-4F58-89B8-A9F3704C2D63";
paths = (
{
closed = 1;
nodes = (
"408 -10 OFFCURVE",
"425 152 OFFCURVE",
"425 348 CURVE",
"425 544 OFFCURVE",
"409 706 OFFCURVE",
"239 706 CURVE SMOOTH",
"70 706 OFFCURVE",
"53 544 OFFCURVE",
"53 348 CURVE SMOOTH",
"53 152 OFFCURVE",
"55 -10 OFFCURVE",
"239 -10 CURVE SMOOTH"
);
},
{
closed = 1;
nodes = (
"152 95 OFFCURVE",
"152 162 OFFCURVE",
"152 348 CURVE SMOOTH",
"152 534 OFFCURVE",
"152 601 OFFCURVE",
"239 601 CURVE SMOOTH",
"326 601 OFFCURVE",
"326 534 OFFCURVE",
"326 348 CURVE SMOOTH",
"326 162 OFFCURVE",
"326 95 OFFCURVE",
"239 95 CURVE SMOOTH"
);
},
{
closed = 1;
nodes = (
"30 -13 LINE",
"105 -13 LINE",
"448 709 LINE",
"373 709 LINE"
);
}
);
width = 478;
},
{
anchors = (
{
name = bottom;
position = "{182, 0}";
},
{
name = top;
position = "{306, 700}";
}
);
layerId = "A2919505-2A95-4438-A60E-B7D4573C3483";
paths = (
{
closed = 1;
nodes = (
"362 -10 OFFCURVE",
"408 152 OFFCURVE",
"442 348 CURVE",
"477 544 OFFCURVE",
"489 706 OFFCURVE",
"319 706 CURVE SMOOTH",
"150 706 OFFCURVE",
"105 544 OFFCURVE",
"70 348 CURVE SMOOTH",
"36 152 OFFCURVE",
"9 -10 OFFCURVE",
"193 -10 CURVE SMOOTH"
);
},
{
closed = 1;
nodes = (
"125 95 OFFCURVE",
"137 162 OFFCURVE",
"169 348 CURVE SMOOTH",
"202 534 OFFCURVE",
"214 601 OFFCURVE",
"301 601 CURVE SMOOTH",
"388 601 OFFCURVE",
"376 534 OFFCURVE",
"343 348 CURVE SMOOTH",
"311 162 OFFCURVE",
"299 95 OFFCURVE",
"212 95 CURVE SMOOTH"
);
},
{
closed = 1;
nodes = (
"-16 -13 LINE",
"59 -13 LINE",
"529 709 LINE",
"454 709 LINE"
);
}
);
width = 478;
},
{
anchors = (
{
name = bottom;
position = "{202, 0}";
},
{
name = top;
position = "{239, 685}";
}
);
background = {
components = (
{
name = O;
}
);
};
layerId = "2009CD91-3BC4-40DB-AFF0-7394B85F3EFC";
paths = (
{
closed = 1;
nodes = (
"331 -3 OFFCURVE",
"347 133 OFFCURVE",
"347 351 CURVE SMOOTH",
"347 569 OFFCURVE",
"332 704 OFFCURVE",
"186 704 CURVE SMOOTH",
"41 704 OFFCURVE",
"25 569 OFFCURVE",
"25 351 CURVE SMOOTH",
"25 133 OFFCURVE",
"40 -3 OFFCURVE",
"186 -3 CURVE SMOOTH"
);
},
{
closed = 1;
nodes = (
"89 58 OFFCURVE",
"89 163 OFFCURVE",
"89 351 CURVE SMOOTH",
"89 539 OFFCURVE",
"89 643 OFFCURVE",
"186 643 CURVE SMOOTH",
"283 643 OFFCURVE",
"283 539 OFFCURVE",
"283 351 CURVE SMOOTH",
"283 163 OFFCURVE",
"283 58 OFFCURVE",
"186 58 CURVE SMOOTH"
);
},
{
closed = 1;
nodes = (
"30 -13 LINE",
"85 -13 LINE",
"378 709 LINE",
"323 709 LINE"
);
}
);
width = 403;
}
);
leftMetricsKey = O;
rightMetricsKey = O;
unicode = 00D8;
},
{
glyphname = OE;
lastChange = "2016-01-22 10:19:25 +0000";
layers = (
{
layerId = "8E5E9D5F-1CFD-4F58-89B8-A9F3704C2D63";
paths = (
{
closed = 1;
nodes = (
"30 152 OFFCURVE",
"46 -10 OFFCURVE",
"216 -10 CURVE SMOOTH",
"262 -10 OFFCURVE",
"295 1 OFFCURVE",
"588 0 CURVE",
"588 97 LINE",
"400 97 LINE",
"400 306 LINE",
"580 306 LINE",
"580 403 LINE",
"400 403 LINE",
"400 605 LINE",
"588 605 LINE",
"588 702 LINE",
"305 702 LINE",
"268 707 OFFCURVE",
"234 707 OFFCURVE",
"216 706 CURVE SMOOTH",
"47 697 OFFCURVE",
"30 544 OFFCURVE",
"30 348 CURVE SMOOTH"
);
},
{
closed = 1;
nodes = (
"129 534 OFFCURVE",
"129 601 OFFCURVE",
"216 601 CURVE SMOOTH",
"303 601 OFFCURVE",
"303 534 OFFCURVE",
"303 348 CURVE SMOOTH",
"303 162 OFFCURVE",
"303 95 OFFCURVE",
"216 95 CURVE SMOOTH",
"129 95 OFFCURVE",
"129 162 OFFCURVE",
"129 348 CURVE SMOOTH"
);
}
);
width = 623;
},
{
layerId = "A2919505-2A95-4438-A60E-B7D4573C3483";
paths = (
{
closed = 1;
nodes = (
"14 152 OFFCURVE",
"1 -10 OFFCURVE",
"171 -10 CURVE SMOOTH",
"217 -10 OFFCURVE",
"252 1 OFFCURVE",
"545 0 CURVE",
"562 97 LINE",
"374 97 LINE",
"411 306 LINE",
"591 306 LINE",
"608 403 LINE",
"428 403 LINE",
"464 605 LINE",
"652 605 LINE",
"669 702 LINE",
"386 702 LINE",
"350 707 OFFCURVE",
"316 707 OFFCURVE",
"297 706 CURVE SMOOTH",
"127 697 OFFCURVE",
"83 544 OFFCURVE",
"48 348 CURVE SMOOTH"
);
},
{
closed = 1;
nodes = (
"180 534 OFFCURVE",
"192 601 OFFCURVE",
"279 601 CURVE SMOOTH",
"366 601 OFFCURVE",
"354 534 OFFCURVE",
"321 348 CURVE SMOOTH",
"289 162 OFFCURVE",
"277 95 OFFCURVE",
"190 95 CURVE SMOOTH",
"103 95 OFFCURVE",
"115 162 OFFCURVE",
"147 348 CURVE SMOOTH"
);
}
);
width = 614;
},
{
layerId = "2009CD91-3BC4-40DB-AFF0-7394B85F3EFC";
paths = (
{
closed = 1;
nodes = (
"25 133 OFFCURVE",
"40 -3 OFFCURVE",
"186 -3 CURVE",
"302 -2 OFFCURVE",
"419 -1 OFFCURVE",
"535 0 CURVE",
"535 67 LINE",
"347 67 LINE",
"347 321 LINE",
"527 321 LINE",
"527 388 LINE",
"347 388 LINE",
"347 633 LINE",
"535 633 LINE",
"535 700 LINE",
"282 700 LINE",
"250 701 OFFCURVE",
"218 703 OFFCURVE",
"186 704 CURVE",
"41 704 OFFCURVE",
"25 569 OFFCURVE",
"25 351 CURVE SMOOTH"
);
},
{
closed = 1;
nodes = (
"90 537 OFFCURVE",
"90 640 OFFCURVE",
"186 640 CURVE SMOOTH",
"282 640 OFFCURVE",
"282 537 OFFCURVE",
"282 351 CURVE SMOOTH",
"282 165 OFFCURVE",
"282 61 OFFCURVE",
"186 61 CURVE SMOOTH",
"90 61 OFFCURVE",
"90 165 OFFCURVE",
"90 351 CURVE SMOOTH"
);
}
);
width = 563;
}
);
leftMetricsKey = O;
rightMetricsKey = E;
unicode = 0152;
},
{
glyphname = P;
lastChange = "2015-12-18 04:12:58 +0000";
layers = (
{
anchors = (
{
name = bottom;
position = "{205, 0}";
},
{
name = top;
position = "{205, 700}";
}
);
layerId = "8E5E9D5F-1CFD-4F58-89B8-A9F3704C2D63";
paths = (
{
closed = 1;
nodes = (
"147 0 LINE",
"147 306 LINE",
"216 306 LINE SMOOTH",
"359 306 OFFCURVE",
"390 371 OFFCURVE",
"390 514 CURVE SMOOTH",
"390 657 OFFCURVE",
"382 700 OFFCURVE",
"216 700 CURVE SMOOTH",
"58 700 LINE SMOOTH",
"52 700 OFFCURVE",
"50 698 OFFCURVE",
"50 692 CURVE",
"50 0 LINE"
);
},
{
closed = 1;
nodes = (
"148 603 LINE",
"217 603 LINE SMOOTH",
"292 603 OFFCURVE",
"293 579 OFFCURVE",
"293 520 CURVE SMOOTH",
"293 416 OFFCURVE",
"289 403 OFFCURVE",
"217 403 CURVE SMOOTH",
"148 403 LINE"
);
}
);
width = 420;
},
{
anchors = (
{
name = bottom;
position = "{161, 0}";
},
{
name = top;
position = "{284, 700}";
}
);
layerId = "A2919505-2A95-4438-A60E-B7D4573C3483";
paths = (
{
closed = 1;
nodes = (
"104 0 LINE",
"158 306 LINE",
"227 306 LINE SMOOTH",
"370 306 OFFCURVE",
"412 371 OFFCURVE",
"437 514 CURVE SMOOTH",
"462 657 OFFCURVE",
"462 700 OFFCURVE",
"296 700 CURVE SMOOTH",
"138 700 LINE SMOOTH",
"132 700 OFFCURVE",
"130 698 OFFCURVE",
"129 692 CURVE",
"7 0 LINE"
);
},
{
closed = 1;
nodes = (
"211 603 LINE",
"280 603 LINE SMOOTH",
"355 603 OFFCURVE",
"352 579 OFFCURVE",
"341 520 CURVE SMOOTH",
"323 416 OFFCURVE",
"317 403 OFFCURVE",
"245 403 CURVE SMOOTH",
"176 403 LINE"
);
}
);
width = 410;
},
{
anchors = (
{
name = bottom;
position = "{196, 0}";
},
{
name = top;
position = "{196, 700}";
}
);
layerId = "2009CD91-3BC4-40DB-AFF0-7394B85F3EFC";
paths = (
{
closed = 1;
nodes = (
"112 0 LINE",
"112 336 LINE",
"176 336 LINE SMOOTH",
"299 336 OFFCURVE",
"335 380 OFFCURVE",
"335 529 CURVE SMOOTH",
"335 671 OFFCURVE",
"330 700 OFFCURVE",
"176 700 CURVE SMOOTH",
"50 700 LINE SMOOTH",
"47 700 OFFCURVE",
"45 698 OFFCURVE",
"45 695 CURVE SMOOTH",
"45 0 LINE"
);
},
{
closed = 1;
nodes = (
"113 633 LINE",
"177 633 LINE SMOOTH",
"266 633 OFFCURVE",
"268 594 OFFCURVE",
"268 535 CURVE SMOOTH",
"268 421 OFFCURVE",
"258 403 OFFCURVE",
"177 403 CURVE SMOOTH",
"113 403 LINE"
);
}
);
width = 352;
}
);
leftMetricsKey = I;
unicode = 0050;
},
{
glyphname = Thorn;
lastChange = "2016-01-22 10:19:23 +0000";
layers = (
{
layerId = "8E5E9D5F-1CFD-4F58-89B8-A9F3704C2D63";
paths = (
{
closed = 1;
nodes = (
"50 0 LINE",
"148 0 LINE",
"148 138 LINE",
"267 138 LINE SMOOTH",
"410 138 OFFCURVE",
"441 203 OFFCURVE",
"441 346 CURVE SMOOTH",
"441 519 OFFCURVE",
"433 562 OFFCURVE",
"267 562 CURVE SMOOTH",
"150 562 LINE",
"150 700 LINE",
"50 700 LINE"
);
},
{
closed = 1;
nodes = (
"150 465 LINE",
"268 465 LINE SMOOTH",
"343 465 OFFCURVE",
"344 441 OFFCURVE",
"344 352 CURVE SMOOTH",
"344 248 OFFCURVE",
"340 235 OFFCURVE",
"268 235 CURVE SMOOTH",
"150 235 LINE"
);
}
);
width = 471;
},
{
layerId = "A2919505-2A95-4438-A60E-B7D4573C3483";
paths = (
{
closed = 1;
nodes = (
"8 0 LINE",
"106 0 LINE",
"130 138 LINE",
"249 138 LINE SMOOTH",
"392 138 OFFCURVE",
"435 203 OFFCURVE",
"460 346 CURVE SMOOTH",
"491 519 OFFCURVE",
"490 562 OFFCURVE",
"324 562 CURVE SMOOTH",
"207 562 LINE",
"231 700 LINE",
"131 700 LINE"
);
},
{
closed = 1;
nodes = (
"190 465 LINE",
"308 465 LINE SMOOTH",
"383 465 OFFCURVE",
"380 441 OFFCURVE",
"364 352 CURVE SMOOTH",
"346 248 OFFCURVE",
"339 235 OFFCURVE",
"267 235 CURVE SMOOTH",
"149 235 LINE"
);
}
);
width = 463;
},
{
layerId = "2009CD91-3BC4-40DB-AFF0-7394B85F3EFC";
paths = (
{
closed = 1;
nodes = (
"45 0 LINE",
"113 0 LINE",
"113 138 LINE",
"247 138 LINE SMOOTH",
"370 138 OFFCURVE",
"406 182 OFFCURVE",
"406 331 CURVE SMOOTH",
"406 503 OFFCURVE",
"401 532 OFFCURVE",
"247 532 CURVE SMOOTH",
"115 532 LINE",
"115 670 LINE",
"45 670 LINE"
);
},
{
closed = 1;
nodes = (
"115 465 LINE",
"248 465 LINE SMOOTH",
"337 465 OFFCURVE",
"339 426 OFFCURVE",
"339 337 CURVE SMOOTH",
"339 223 OFFCURVE",
"329 205 OFFCURVE",
"248 205 CURVE SMOOTH",
"115 205 LINE"
);
}
);
width = 423;
}
);
leftMetricsKey = P;
rightMetricsKey = P;
unicode = 00DE;
},
{
glyphname = Q;
lastChange = "2016-01-22 10:19:25 +0000";
layers = (
{
anchors = (
{
name = bottom;
position = "{234, 0}";
},
{
name = top;
position = "{234, 700}";
}
);
background = {
paths = (
{
closed = 1;
nodes = (
"393 -11 OFFCURVE",
"411 155 OFFCURVE",
"411 351 CURVE SMOOTH",
"411 547 OFFCURVE",
"392 706 OFFCURVE",
"214 706 CURVE SMOOTH",
"37 706 OFFCURVE",
"20 548 OFFCURVE",
"20 352 CURVE SMOOTH",
"20 156 OFFCURVE",
"37 -11 OFFCURVE",
"214 -11 CURVE SMOOTH"
);
},
{
closed = 1;
nodes = (
"126 90 OFFCURVE",
"126 154 OFFCURVE",
"126 346 CURVE SMOOTH",
"126 532 OFFCURVE",
"126 609 OFFCURVE",
"216 609 CURVE SMOOTH",
"306 609 OFFCURVE",
"306 533 OFFCURVE",
"306 347 CURVE SMOOTH",
"306 155 OFFCURVE",
"306 90 OFFCURVE",
"216 90 CURVE SMOOTH"
);
}
);
};
layerId = "8E5E9D5F-1CFD-4F58-89B8-A9F3704C2D63";
paths = (
{
closed = 1;
nodes = (
"393 -11 OFFCURVE",
"401 155 OFFCURVE",
"401 351 CURVE SMOOTH",
"401 547 OFFCURVE",
"396 706 OFFCURVE",
"224 706 CURVE SMOOTH",
"53 706 OFFCURVE",
"30 548 OFFCURVE",
"30 352 CURVE SMOOTH",
"30 156 OFFCURVE",
"60 -11 OFFCURVE",
"224 -11 CURVE SMOOTH"
);
},
{
closed = 1;
nodes = (
"136 90 OFFCURVE",
"126 154 OFFCURVE",
"126 346 CURVE SMOOTH",
"126 532 OFFCURVE",
"141 610 OFFCURVE",
"221 610 CURVE SMOOTH",
"301 610 OFFCURVE",
"316 533 OFFCURVE",
"316 347 CURVE SMOOTH",
"316 155 OFFCURVE",
"316 90 OFFCURVE",
"226 90 CURVE SMOOTH"
);
},
{
closed = 1;
nodes = (
"447 -34 LINE",
"290 185 LINE",
"196 185 LINE",
"353 -34 LINE"
);
}
);
width = 457;
},
{
anchors = (
{
name = bottom;
position = "{189, 0}";
},
{
name = top;
position = "{312, 700}";
}
);
layerId = "A2919505-2A95-4438-A60E-B7D4573C3483";
paths = (
{
closed = 1;
nodes = (
"347 -11 OFFCURVE",
"384 155 OFFCURVE",
"418 351 CURVE SMOOTH",
"453 547 OFFCURVE",
"476 706 OFFCURVE",
"304 706 CURVE SMOOTH",
"133 706 OFFCURVE",
"82 548 OFFCURVE",
"48 352 CURVE SMOOTH",
"13 156 OFFCURVE",
"14 -11 OFFCURVE",
"178 -11 CURVE SMOOTH"
);
},
{
closed = 1;
nodes = (
"107 90 OFFCURVE",
"109 154 OFFCURVE",
"143 346 CURVE SMOOTH",
"175 532 OFFCURVE",
"204 610 OFFCURVE",
"284 610 CURVE SMOOTH",
"364 610 OFFCURVE",
"366 533 OFFCURVE",
"333 347 CURVE SMOOTH",
"299 155 OFFCURVE",
"287 90 OFFCURVE",
"197 90 CURVE SMOOTH"
);
},
{
closed = 1;
nodes = (
"397 -34 LINE",
"278 185 LINE",
"184 185 LINE",
"303 -34 LINE"
);
}
);
width = 456;
},
{
anchors = (
{
name = bottom;
position = "{186, 0}";
},
{
name = top;
position = "{186, 700}";
}
);
layerId = "2009CD91-3BC4-40DB-AFF0-7394B85F3EFC";
paths = (
{
closed = 1;
nodes = (
"331 -3 OFFCURVE",
"347 133 OFFCURVE",
"347 351 CURVE SMOOTH",
"347 569 OFFCURVE",
"332 704 OFFCURVE",
"186 704 CURVE SMOOTH",
"41 704 OFFCURVE",
"25 569 OFFCURVE",
"25 351 CURVE SMOOTH",
"25 133 OFFCURVE",
"40 -3 OFFCURVE",
"186 -3 CURVE SMOOTH"
);
},
{
closed = 1;
nodes = (
"90 61 OFFCURVE",
"90 165 OFFCURVE",
"90 351 CURVE SMOOTH",
"90 537 OFFCURVE",
"90 640 OFFCURVE",
"186 640 CURVE SMOOTH",
"282 640 OFFCURVE",
"282 537 OFFCURVE",
"282 351 CURVE SMOOTH",
"282 165 OFFCURVE",
"282 61 OFFCURVE",
"186 61 CURVE SMOOTH"
);
},
{
closed = 1;
nodes = (
"378 -19 LINE",
"242 170 LINE",
"185 170 LINE",
"321 -19 LINE"
);
}
);
width = 372;
}
);
leftMetricsKey = O;
unicode = 0051;
},
{
glyphname = R;
lastChange = "2016-01-22 10:19:25 +0000";
layers = (
{
anchors = (
{
name = bottom;
position = "{218, 0}";
},
{
name = top;
position = "{207, 700}";
}
);
background = {
paths = (
{
closed = 1;
nodes = (
"147 0 LINE",
"147 306 LINE",
"216 306 LINE SMOOTH",
"359 306 OFFCURVE",
"390 371 OFFCURVE",
"390 514 CURVE SMOOTH",
"390 657 OFFCURVE",
"382 700 OFFCURVE",
"216 700 CURVE SMOOTH",
"58 700 LINE SMOOTH",
"52 700 OFFCURVE",
"50 698 OFFCURVE",
"50 692 CURVE",
"50 0 LINE"
);
},
{
closed = 1;
nodes = (
"148 603 LINE",
"217 603 LINE SMOOTH",
"292 603 OFFCURVE",
"293 579 OFFCURVE",
"293 520 CURVE SMOOTH",
"293 416 OFFCURVE",
"289 403 OFFCURVE",
"217 403 CURVE SMOOTH",
"148 403 LINE"
);
}
);
};
layerId = "8E5E9D5F-1CFD-4F58-89B8-A9F3704C2D63";
paths = (
{
closed = 1;
nodes = (
"149 0 LINE",
"149 286 LINE",
"208 286 LINE",
"305 0 LINE",
"410 0 LINE",
"304 294 LINE",
"385 315 OFFCURVE",
"390 379 OFFCURVE",
"390 514 CURVE SMOOTH",
"390 657 OFFCURVE",
"382 700 OFFCURVE",
"216 700 CURVE SMOOTH",
"55 700 LINE SMOOTH",
"52 700 OFFCURVE",
"50 698 OFFCURVE",
"50 695 CURVE",
"50 0 LINE"
);
},
{
closed = 1;
nodes = (
"147 603 LINE",
"217 603 LINE SMOOTH",
"291 603 OFFCURVE",
"293 579 OFFCURVE",
"293 520 CURVE SMOOTH",
"293 396 OFFCURVE",
"290 383 OFFCURVE",
"217 383 CURVE SMOOTH",
"147 383 LINE"
);
}
);
width = 435;
},
{
anchors = (
{
name = bottom;
position = "{176, 0}";
},
{
name = top;
position = "{299, 700}";
}
);
layerId = "A2919505-2A95-4438-A60E-B7D4573C3483";
paths = (
{
closed = 1;
nodes = (
"107 0 LINE",
"161 306 LINE",
"220 306 LINE",
"263 0 LINE",
"368 0 LINE",
"317 314 LINE",
"402 335 OFFCURVE",
"418 399 OFFCURVE",
"438 514 CURVE SMOOTH",
"463 657 OFFCURVE",
"463 700 OFFCURVE",
"297 700 CURVE SMOOTH",
"136 700 LINE SMOOTH",
"133 700 OFFCURVE",
"131 698 OFFCURVE",
"130 695 CURVE",
"8 0 LINE"
);
},
{
closed = 1;
nodes = (
"211 603 LINE",
"281 603 LINE SMOOTH",
"355 603 OFFCURVE",
"353 579 OFFCURVE",
"342 520 CURVE SMOOTH",
"324 416 OFFCURVE",
"319 403 OFFCURVE",
"246 403 CURVE SMOOTH",
"176 403 LINE"
);
}
);
width = 436;
},
{
anchors = (
{
name = bottom;
position = "{183, 0}";
},
{
name = top;
position = "{183, 700}";
}
);
background = {
paths = (
{
closed = 1;
nodes = (
"112 0 LINE",
"112 336 LINE",
"196 336 LINE SMOOTH",
"319 336 OFFCURVE",
"355 380 OFFCURVE",
"355 529 CURVE SMOOTH",
"355 671 OFFCURVE",
"350 700 OFFCURVE",
"196 700 CURVE SMOOTH",
"50 700 LINE SMOOTH",
"47 700 OFFCURVE",
"45 698 OFFCURVE",
"45 695 CURVE SMOOTH",
"45 0 LINE"
);
},
{
closed = 1;
nodes = (
"113 633 LINE",
"197 633 LINE SMOOTH",
"286 633 OFFCURVE",
"288 594 OFFCURVE",
"288 535 CURVE SMOOTH",
"288 421 OFFCURVE",
"278 403 OFFCURVE",
"197 403 CURVE SMOOTH",
"113 403 LINE"
);
}
);
};
layerId = "2009CD91-3BC4-40DB-AFF0-7394B85F3EFC";
paths = (
{
closed = 1;
nodes = (
"114 0 LINE",
"114 311 LINE",
"179 311 LINE",
"276 0 LINE",
"349 0 LINE",
"244 315 LINE",
"330 330 OFFCURVE",
"335 380 OFFCURVE",
"335 534 CURVE SMOOTH",
"335 676 OFFCURVE",
"330 705 OFFCURVE",
"176 705 CURVE SMOOTH",
"50 705 LINE SMOOTH",
"47 705 OFFCURVE",
"45 703 OFFCURVE",
"45 700 CURVE SMOOTH",
"45 0 LINE"
);
},
{
closed = 1;
nodes = (
"112 634 LINE",
"177 634 LINE SMOOTH",
"265 634 OFFCURVE",
"268 596 OFFCURVE",
"268 540 CURVE SMOOTH",
"268 396 OFFCURVE",
"259 378 OFFCURVE",
"177 378 CURVE SMOOTH",
"112 378 LINE"
);
}
);
width = 366;
}
);
leftMetricsKey = I;
unicode = 0052;
},
{
glyphname = S;
lastChange = "2015-11-26 07:56:30 +0000";
layers = (
{
anchors = (
{
name = bottom;
position = "{166, 0}";
},
{
name = top;
position = "{196, 680}";
}
);
background = {
paths = (
{
closed = 1;
nodes = (
"109 79 LINE",
"180 79 OFFCURVE",
"203 119 OFFCURVE",
"203 167 CURVE SMOOTH",
"203 341 OFFCURVE",
"23 309 OFFCURVE",
"23 496 CURVE SMOOTH",
"23 637 OFFCURVE",
"68 703 OFFCURVE",
"220 707 CURVE",
"309 698 LINE",
"309 610 LINE",
"161 613 OFFCURVE",
"130 610 OFFCURVE",
"130 500 CURVE SMOOTH",
"130 360 OFFCURVE",
"309 409 OFFCURVE",
"309 170 CURVE SMOOTH",
"309 42 OFFCURVE",
"242 -18 OFFCURVE",
"115 -16 CURVE",
"23 -8 LINE",
"23 80 LINE"
);
}
);
};
layerId = "8E5E9D5F-1CFD-4F58-89B8-A9F3704C2D63";
paths = (
{
closed = 1;
nodes = (
"247 -5 OFFCURVE",
"299 54 OFFCURVE",
"299 177 CURVE SMOOTH",
"299 399 OFFCURVE",
"129 350 OFFCURVE",
"129 517 CURVE SMOOTH",
"129 572 OFFCURVE",
"149 611 OFFCURVE",
"223 611 CURVE",
"299 611 LINE",
"299 699 LINE",
"217 704 LINE",
"79 704 OFFCURVE",
"33 643 OFFCURVE",
"33 514 CURVE SMOOTH",
"33 282 OFFCURVE",
"202 348 OFFCURVE",
"202 173 CURVE SMOOTH",
"202 87 OFFCURVE",
"161 85 OFFCURVE",
"33 88 CURVE",
"33 0 LINE",
"112 -5 LINE"
);
}
);
width = 332;
},
{
anchors = (
{
name = bottom;
position = "{123, 0}";
},
{
name = top;
position = "{272, 680}";
}
);
layerId = "A2919505-2A95-4438-A60E-B7D4573C3483";
paths = (
{
closed = 1;
nodes = (
"203 -5 OFFCURVE",
"265 54 OFFCURVE",
"287 177 CURVE SMOOTH",
"326 399 OFFCURVE",
"147 350 OFFCURVE",
"177 517 CURVE SMOOTH",
"186 572 OFFCURVE",
"213 611 OFFCURVE",
"287 611 CURVE",
"363 611 LINE",
"379 699 LINE",
"298 704 LINE",
"160 704 OFFCURVE",
"103 643 OFFCURVE",
"80 514 CURVE SMOOTH",
"39 282 OFFCURVE",
"220 348 OFFCURVE",
"189 173 CURVE SMOOTH",
"174 87 OFFCURVE",
"133 85 OFFCURVE",
"5 88 CURVE",
"-10 0 LINE",
"68 -5 LINE"
);
}
);
width = 332;
},
{
anchors = (
{
name = bottom;
position = "{148, 0}";
},
{
name = top;
position = "{148, 700}";
}
);
layerId = "2009CD91-3BC4-40DB-AFF0-7394B85F3EFC";
paths = (
{
closed = 1;
nodes = (
"219 -1 OFFCURVE",
"266 49 OFFCURVE",
"266 175 CURVE SMOOTH",
"266 378 OFFCURVE",
"96 351 OFFCURVE",
"96 518 CURVE SMOOTH",
"96 600 OFFCURVE",
"132 636 OFFCURVE",
"205 636 CURVE SMOOTH",
"266 636 LINE",
"266 698 LINE",
"199 702 LINE",
"76 702 OFFCURVE",
"30 655 OFFCURVE",
"30 515 CURVE SMOOTH",
"30 304 OFFCURVE",
"199 347 OFFCURVE",
"199 171 CURVE SMOOTH",
"199 89 OFFCURVE",
"148 62 OFFCURVE",
"30 65 CURVE",
"30 3 LINE",
"95 -1 LINE"
);
}
);
width = 296;
}
);
unicode = 0053;
},
{
glyphname = Schwa;
lastChange = "2015-12-18 05:25:18 +0000";
layers = (
{
layerId = "8E5E9D5F-1CFD-4F58-89B8-A9F3704C2D63";
paths = (
{
closed = 1;
nodes = (
"405 562 OFFCURVE",
"398 705 OFFCURVE",
"217 705 CURVE SMOOTH",
"149 705 OFFCURVE",
"72 685 OFFCURVE",
"33 656 CURVE",
"33 565 LINE SMOOTH",
"33 558 OFFCURVE",
"42 558 OFFCURVE",
"47 563 CURVE",
"101 603 OFFCURVE",
"173 614 OFFCURVE",
"216 611 CURVE SMOOTH",
"303 605 OFFCURVE",
"306 539 OFFCURVE",
"306 396 CURVE",
"44 396 LINE SMOOTH",
"39 396 OFFCURVE",
"33 394 OFFCURVE",
"33 390 CURVE SMOOTH",
"33 75 OFFCURVE",
"42 -3 OFFCURVE",
"217 -3 CURVE SMOOTH",
"434 -3 OFFCURVE",
"405 252 OFFCURVE",
"405 357 CURVE SMOOTH"
);
},
{
closed = 1;
nodes = (
"306 297 LINE",
"306 197 OFFCURVE",
"317 91 OFFCURVE",
"217 91 CURVE SMOOTH",
"117 91 OFFCURVE",
"120 197 OFFCURVE",
"120 297 CURVE"
);
}
);
width = 431;
},
{
layerId = "2009CD91-3BC4-40DB-AFF0-7394B85F3EFC";
paths = (
{
closed = 1;
nodes = (
"367 597 OFFCURVE",
"361 703 OFFCURVE",
"194 703 CURVE SMOOTH",
"132 703 OFFCURVE",
"63 686 OFFCURVE",
"25 661 CURVE",
"25 595 LINE SMOOTH",
"25 592 OFFCURVE",
"28 589 OFFCURVE",
"31 592 CURVE",
"77 624 OFFCURVE",
"137 643 OFFCURVE",
"194 639 CURVE SMOOTH",
"298 632 OFFCURVE",
"298 569 OFFCURVE",
"298 403 CURVE",
"31 403 LINE SMOOTH",
"28 403 OFFCURVE",
"25 402 OFFCURVE",
"25 399 CURVE SMOOTH",
"25 85 OFFCURVE",
"32 12 OFFCURVE",
"194 12 CURVE SMOOTH",
"394 12 OFFCURVE",
"367 273 OFFCURVE",
"367 379 CURVE SMOOTH"
);
},
{
closed = 1;
nodes = (
"298 338 LINE",
"296 237 OFFCURVE",
"317 76 OFFCURVE",
"194 76 CURVE SMOOTH",
"73 76 OFFCURVE",
"83 236 OFFCURVE",
"82 338 CURVE"
);
}
);
width = 393;
},
{
layerId = "A2919505-2A95-4438-A60E-B7D4573C3483";
paths = (
{
closed = 1;
nodes = (
"454 562 OFFCURVE",
"472 705 OFFCURVE",
"291 705 CURVE SMOOTH",
"223 705 OFFCURVE",
"143 685 OFFCURVE",
"99 656 CURVE",
"83 565 LINE",
"81 558 OFFCURVE",
"90 558 OFFCURVE",
"96 563 CURVE",
"157 603 OFFCURVE",
"231 614 OFFCURVE",
"274 611 CURVE SMOOTH",
"360 605 OFFCURVE",
"351 539 OFFCURVE",
"326 396 CURVE",
"64 396 LINE SMOOTH",
"59 396 OFFCURVE",
"52 394 OFFCURVE",
"52 390 CURVE",
"-4 75 OFFCURVE",
"31 -3 OFFCURVE",
"166 -3 CURVE SMOOTH",
"383 -3 OFFCURVE",
"399 252 OFFCURVE",
"418 357 CURVE SMOOTH"
);
},
{
closed = 1;
nodes = (
"308 297 LINE",
"291 197 OFFCURVE",
"283 91 OFFCURVE",
"183 91 CURVE SMOOTH",
"83 91 OFFCURVE",
"105 197 OFFCURVE",
"122 297 CURVE"
);
}
);
width = 421;
}
);
unicode = 018F;
},
{
glyphname = T;
lastChange = "2016-02-14 05:26:24 +0000";
layers = (
{
anchors = (
{
name = bottom;
position = "{202, 0}";
},
{
name = center;
position = "{202, 350}";
},
{
name = top;
position = "{202, 700}";
}
);
layerId = "8E5E9D5F-1CFD-4F58-89B8-A9F3704C2D63";
paths = (
{
closed = 1;
nodes = (
"154 603 LINE",
"154 1 LINE",
"250 1 LINE",
"250 603 LINE",
"394 603 LINE",
"394 700 LINE",
"10 700 LINE",
"10 603 LINE"
);
}
);
width = 404;
},
{
anchors = (
{
name = bottom;
position = "{159, 0}";
},
{
name = center;
position = "{220, 350}";
},
{
name = top;
position = "{282, 700}";
}
);
layerId = "A2919505-2A95-4438-A60E-B7D4573C3483";
paths = (
{
closed = 1;
nodes = (
"217 603 LINE",
"111 1 LINE",
"207 1 LINE",
"313 603 LINE",
"457 603 LINE",
"474 700 LINE",
"90 700 LINE",
"73 603 LINE"
);
}
);
width = 404;
},
{
anchors = (
{
name = bottom;
position = "{185, 0}";
},
{
name = center;
position = "{185, 350}";
},
{
name = top;
position = "{185, 700}";
}
);
layerId = "2009CD91-3BC4-40DB-AFF0-7394B85F3EFC";
paths = (
{
closed = 1;
nodes = (
"172 672 LINE",
"172 0 LINE",
"200 0 LINE",
"200 672 LINE",
"362 672 LINE",
"362 700 LINE",
"8 700 LINE",
"8 672 LINE"
);
}
);
width = 370;
}
);
unicode = 0054;
},
{
glyphname = U;
lastChange = "2016-02-14 05:38:15 +0000";
layers = (
{
anchors = (
{
name = bottom;
position = "{232, 0}";
},
{
name = ogonek;
position = "{317, 10}";
},
{
name = top;
position = "{227, 682}";
},
{
name = topright;
position = "{403, 599}";
}
);
layerId = "8E5E9D5F-1CFD-4F58-89B8-A9F3704C2D63";
paths = (
{
closed = 1;
nodes = (
"317 700 LINE",
"317 314 LINE SMOOTH",
"317 173 OFFCURVE",
"309 87 OFFCURVE",
"231 87 CURVE SMOOTH",
"153 87 OFFCURVE",
"145 173 OFFCURVE",
"145 314 CURVE SMOOTH",
"145 700 LINE",
"50 700 LINE",
"50 331 LINE SMOOTH",
"50 92 OFFCURVE",
"76 -10 OFFCURVE",
"231 -10 CURVE SMOOTH",
"386 -10 OFFCURVE",
"412 92 OFFCURVE",
"412 331 CURVE SMOOTH",
"412 700 LINE"
);
}
);
width = 462;
},
{
anchors = (
{
name = bottom;
position = "{189, 0}";
},
{
name = ogonek;
position = "{374, 10}";
},
{
name = top;
position = "{305, 682}";
},
{
name = topright;
position = "{475, 528}";
}
);
layerId = "A2919505-2A95-4438-A60E-B7D4573C3483";
paths = (
{
closed = 1;
nodes = (
"398 700 LINE",
"330 314 LINE SMOOTH",
"305 173 OFFCURVE",
"282 87 OFFCURVE",
"204 87 CURVE SMOOTH",
"126 87 OFFCURVE",
"133 173 OFFCURVE",
"158 314 CURVE",
"226 700 LINE",
"131 700 LINE SMOOTH",
"66 331 LINE",
"24 92 OFFCURVE",
"32 -10 OFFCURVE",
"187 -10 CURVE SMOOTH",
"342 -10 OFFCURVE",
"386 92 OFFCURVE",
"428 331 CURVE",
"493 700 LINE"
);
}
);
width = 463;
},
{
anchors = (
{
name = bottom;
position = "{202, 0}";
},
{
name = ogonek;
position = "{280, 10}";
},
{
name = top;
position = "{202, 700}";
},
{
name = topright;
position = "{362, 599}";
}
);
layerId = "2009CD91-3BC4-40DB-AFF0-7394B85F3EFC";
paths = (
{
closed = 1;
nodes = (
"332 700 LINE",
"332 268 LINE SMOOTH",
"332 125 OFFCURVE",
"301 14 OFFCURVE",
"201 14 CURVE SMOOTH",
"101 14 OFFCURVE",
"70 125 OFFCURVE",
"70 268 CURVE SMOOTH",
"70 700 LINE",
"45 700 LINE",
"45 285 LINE SMOOTH",
"45 37 OFFCURVE",
"104 -11 OFFCURVE",
"201 -11 CURVE SMOOTH",
"298 -11 OFFCURVE",
"357 37 OFFCURVE",
"357 285 CURVE SMOOTH",
"357 700 LINE"
);
}
);
width = 403;
}
);
leftMetricsKey = N;
rightMetricsKey = N;
unicode = 0055;
},
{
glyphname = V;
lastChange = "2015-12-11 01:34:42 +0000";
layers = (
{
anchors = (
{
name = bottom;
position = "{222, 0}";
},
{
name = top;
position = "{222, 700}";
}
);
layerId = "8E5E9D5F-1CFD-4F58-89B8-A9F3704C2D63";
paths = (
{
closed = 1;
nodes = (
"165 0 LINE",
"290 0 LINE",
"438 699 LINE",
"341 699 LINE",
"230 110 LINE",
"102 699 LINE",
"5 699 LINE"
);
}
);
width = 443;
},
{
anchors = (
{
name = bottom;
position = "{193, 0}";
},
{
name = top;
position = "{316, 700}";
}
);
layerId = "A2919505-2A95-4438-A60E-B7D4573C3483";
paths = (
{
closed = 1;
nodes = (
"137 0 LINE",
"262 0 LINE",
"533 699 LINE",
"436 699 LINE",
"221 110 LINE",
"197 699 LINE",
"100 699 LINE"
);
}
);
width = 473;
},
{
anchors = (
{
name = bottom;
position = "{214, 0}";
},
{
name = top;
position = "{214, 700}";
}
);
layerId = "2009CD91-3BC4-40DB-AFF0-7394B85F3EFC";
paths = (
{
closed = 1;
nodes = (
"169 0 LINE",
"270 0 LINE",
"410 700 LINE",
"345 700 LINE",
"223 95 LINE",
"82 700 LINE",
"17 700 LINE"
);
}
);
width = 427;
}
);
leftKerningGroup = slantedLeft;
rightKerningGroup = slantedRight;
unicode = 0056;
},
{
glyphname = W;
lastChange = "2016-01-22 10:19:23 +0000";
layers = (
{
anchors = (
{
name = bottom;
position = "{305, 0}";
},
{
name = top;
position = "{305, 681}";
}
);
layerId = "8E5E9D5F-1CFD-4F58-89B8-A9F3704C2D63";
paths = (
{
closed = 1;
nodes = (
"108 0 LINE",
"227 0 LINE",
"305 531 LINE",
"383 0 LINE",
"501 0 LINE",
"604 699 LINE",
"518 699 LINE",
"442 182 LINE",
"361 699 LINE",
"249 699 LINE",
"167 182 LINE",
"91 699 LINE",
"5 699 LINE"
);
}
);
width = 609;
},
{
anchors = (
{
name = bottom;
position = "{320, 0}";
},
{
name = top;
position = "{440, 681}";
}
);
layerId = "A2919505-2A95-4438-A60E-B7D4573C3483";
paths = (
{
closed = 1;
nodes = (
"100 0 LINE",
"230 0 LINE",
"414 531 LINE",
"410 0 LINE",
"544 0 LINE",
"786 699 LINE",
"689 699 LINE",
"509 182 LINE",
"505 699 LINE",
"381 699 LINE",
"197 182 LINE",
"197 699 LINE",
"100 699 LINE"
);
}
);
width = 726;
},
{
anchors = (
{
name = bottom;
position = "{283, 0}";
},
{
name = top;
position = "{283, 700}";
}
);
layerId = "2009CD91-3BC4-40DB-AFF0-7394B85F3EFC";
paths = (
{
closed = 1;
nodes = (
"112 0 LINE",
"207 0 LINE",
"283 553 LINE",
"360 0 LINE",
"454 0 LINE",
"549 700 LINE",
"487 700 LINE",
"407 115 LINE",
"318 700 LINE",
"248 700 LINE",
"159 120 LINE",
"80 700 LINE",
"17 700 LINE"
);
}
);
width = 566;
}
);
leftKerningGroup = slantedLeft;
leftMetricsKey = V;
rightKerningGroup = slantedRight;
rightMetricsKey = V;
unicode = 0057;
},
{
glyphname = X;
lastChange = "2015-11-26 10:55:30 +0000";
layers = (
{
anchors = (
{
name = bottom;
position = "{199, 0}";
},
{
name = top;
position = "{199, 700}";
}
);
layerId = "8E5E9D5F-1CFD-4F58-89B8-A9F3704C2D63";
paths = (
{
closed = 1;
nodes = (
"123 0 LINE",
"199 231 LINE",
"275 0 LINE",
"372 0 LINE",
"258 354 LINE",
"372 699 LINE",
"275 699 LINE",
"199 488 LINE",
"123 699 LINE",
"26 699 LINE",
"139 355 LINE",
"26 0 LINE"
);
}
);
width = 398;
},
{
anchors = (
{
name = bottom;
position = "{155, 0}";
},
{
name = top;
position = "{278, 700}";
}
);
layerId = "A2919505-2A95-4438-A60E-B7D4573C3483";
paths = (
{
closed = 1;
nodes = (
"80 0 LINE",
"196 231 LINE",
"232 0 LINE",
"329 0 LINE",
"277 354 LINE",
"452 699 LINE",
"355 699 LINE",
"242 488 LINE",
"203 699 LINE",
"106 699 LINE",
"158 355 LINE",
"-17 0 LINE"
);
}
);
width = 398;
},
{
anchors = (
{
name = bottom;
position = "{162, 0}";
},
{
name = top;
position = "{162, 700}";
}
);
layerId = "2009CD91-3BC4-40DB-AFF0-7394B85F3EFC";
paths = (
{
closed = 1;
nodes = (
"85 0 LINE",
"162 269 LINE",
"239 0 LINE",
"304 0 LINE",
"205 354 LINE",
"304 700 LINE",
"239 700 LINE",
"162 454 LINE",
"85 700 LINE",
"20 700 LINE",
"118 355 LINE",
"20 0 LINE"
);
}
);
width = 324;
}
);
unicode = 0058;
},
{
glyphname = Y;
lastChange = "2015-11-26 07:58:02 +0000";
layers = (
{
anchors = (
{
name = bottom;
position = "{188, 0}";
},
{
name = top;
position = "{186, 676}";
},
{
name = topleft;
position = "{20, 700}";
}
);
layerId = "8E5E9D5F-1CFD-4F58-89B8-A9F3704C2D63";
paths = (
{
closed = 1;
nodes = (
"138 305 LINE",
"138 0 LINE",
"235 0 LINE",
"235 305 LINE",
"361 699 LINE",
"264 699 LINE",
"186 443 LINE",
"112 699 LINE",
"15 699 LINE"
);
}
);
width = 376;
},
{
anchors = (
{
name = bottom;
position = "{144, 0}";
},
{
name = top;
position = "{262, 676}";
},
{
name = topleft;
position = "{99, 700}";
}
);
layerId = "A2919505-2A95-4438-A60E-B7D4573C3483";
paths = (
{
closed = 1;
nodes = (
"148 305 LINE",
"95 0 LINE",
"192 0 LINE",
"245 305 LINE",
"441 699 LINE",
"344 699 LINE",
"221 443 LINE",
"192 699 LINE",
"95 699 LINE"
);
}
);
width = 376;
},
{
anchors = (
{
name = bottom;
position = "{165, 0}";
},
{
name = top;
position = "{165, 700}";
},
{
name = topleft;
position = "{20, 700}";
}
);
layerId = "2009CD91-3BC4-40DB-AFF0-7394B85F3EFC";
paths = (
{
closed = 1;
nodes = (
"131 307 LINE",
"131 0 LINE",
"196 0 LINE",
"196 307 LINE",
"317 699 LINE",
"252 699 LINE",
"163 420 LINE",
"78 699 LINE",
"12 699 LINE"
);
}
);
width = 329;
}
);
rightKerningGroup = slantedRight;
unicode = 0059;
},
{
glyphname = Z;
lastChange = "2015-11-26 05:11:25 +0000";
layers = (
{
anchors = (
{
name = bottom;
position = "{177, 0}";
},
{
name = top;
position = "{177, 700}";
}
);
guideLines = (
{
angle = 90;
position = "{134, 356}";
}
);
layerId = "8E5E9D5F-1CFD-4F58-89B8-A9F3704C2D63";
paths = (
{
closed = 1;
nodes = (
"63 102 OFFCURVE",
"101 101 OFFCURVE",
"134 101 CURVE",
"323 607 LINE",
"289 607 OFFCURVE",
"253 607 OFFCURVE",
"219 607 CURVE",
"30 102 LINE"
);
},
{
closed = 1;
nodes = (
"128 6 OFFCURVE",
"226 6 OFFCURVE",
"323 6 CURVE",
"323 40 OFFCURVE",
"323 67 OFFCURVE",
"323 101 CURVE",
"174 101 OFFCURVE",
"172 102 OFFCURVE",
"30 102 CURVE",
"30 68 OFFCURVE",
"30 40 OFFCURVE",
"30 6 CURVE"
);
},
{
closed = 1;
nodes = (
"323 607 LINE",
"323 640 OFFCURVE",
"323 670 OFFCURVE",
"323 702 CURVE",
"225 702 OFFCURVE",
"128 702 OFFCURVE",
"30 702 CURVE",
"30 670 OFFCURVE",
"30 639 OFFCURVE",
"30 607 CURVE"
);
}
);
width = 353;
},
{
anchors = (
{
name = bottom;
position = "{134, 0}";
},
{
name = top;
position = "{257, 700}";
}
);
layerId = "A2919505-2A95-4438-A60E-B7D4573C3483";
paths = (
{
closed = 1;
nodes = (
"37 101 OFFCURVE",
"75 101 OFFCURVE",
"108 101 CURVE",
"387 607 LINE",
"353 607 OFFCURVE",
"317 607 OFFCURVE",
"283 607 CURVE",
"4 101 LINE"
);
},
{
closed = 1;
nodes = (
"86 6 OFFCURVE",
"184 6 OFFCURVE",
"281 6 CURVE",
"287 40 OFFCURVE",
"291 67 OFFCURVE",
"297 101 CURVE",
"148 101 OFFCURVE",
"147 102 OFFCURVE",
"5 102 CURVE",
"-1 68 OFFCURVE",
"-6 40 OFFCURVE",
"-12 6 CURVE"
);
},
{
closed = 1;
nodes = (
"387 607 LINE",
"392 640 OFFCURVE",
"398 670 OFFCURVE",
"403 702 CURVE",
"305 702 OFFCURVE",
"208 702 OFFCURVE",
"110 702 CURVE",
"105 670 OFFCURVE",
"99 639 OFFCURVE",
"94 607 CURVE"
);
}
);
width = 353;
},
{
anchors = (
{
name = bottom;
position = "{157, 0}";
},
{
name = top;
position = "{157, 700}";
}
);
layerId = "2009CD91-3BC4-40DB-AFF0-7394B85F3EFC";
paths = (
{
closed = 1;
nodes = (
"48 67 OFFCURVE",
"69 66 OFFCURVE",
"93 66 CURVE",
"288 635 LINE",
"264 635 OFFCURVE",
"245 635 OFFCURVE",
"221 635 CURVE",
"25 67 LINE"
);
},
{
closed = 1;
nodes = (
"113 1 OFFCURVE",
"200 1 OFFCURVE",
"288 1 CURVE",
"288 24 OFFCURVE",
"288 44 OFFCURVE",
"288 66 CURVE",
"156 66 OFFCURVE",
"145 67 OFFCURVE",
"25 67 CURVE",
"25 44 OFFCURVE",
"25 23 OFFCURVE",
"25 1 CURVE"
);
},
{
closed = 1;
nodes = (
"288 635 LINE",
"288 657 OFFCURVE",
"288 678 OFFCURVE",
"288 700 CURVE",
"200 700 OFFCURVE",
"113 700 OFFCURVE",
"25 700 CURVE",
"25 678 OFFCURVE",
"25 657 OFFCURVE",
"25 635 CURVE"
);
}
);
width = 313;
}
);
unicode = 005A;
},
{
glyphname = a;
lastChange = "2016-02-10 04:29:28 +0000";
layers = (
{
anchors = (
{
name = bottom;
position = "{169, 0}";
},
{
name = ogonek;
position = "{303, 10}";
},
{
name = top;
position = "{168, 444}";
}
);
layerId = "8E5E9D5F-1CFD-4F58-89B8-A9F3704C2D63";
paths = (
{
closed = 1;
nodes = (
"22 61 OFFCURVE",
"32 -1 OFFCURVE",
"116 -7 CURVE SMOOTH",
"145 -9 OFFCURVE",
"186 -5 OFFCURVE",
"227 15 CURVE",
"227 0 LINE",
"315 0 LINE",
"315 327 LINE SMOOTH",
"315 423 OFFCURVE",
"248 456 OFFCURVE",
"168 456 CURVE SMOOTH",
"111 456 OFFCURVE",
"62 439 OFFCURVE",
"39 416 CURVE",
"39 332 LINE",
"82 364 OFFCURVE",
"95 372 OFFCURVE",
"164 372 CURVE SMOOTH",
"221 372 OFFCURVE",
"227 364 OFFCURVE",
"227 319 CURVE SMOOTH",
"227 266 LINE",
"208 273 OFFCURVE",
"187 280 OFFCURVE",
"153 280 CURVE SMOOTH",
"62 280 OFFCURVE",
"22 229 OFFCURVE",
"22 116 CURVE SMOOTH"
);
},
{
closed = 1;
nodes = (
"109 122 LINE SMOOTH",
"109 198 OFFCURVE",
"112 203 OFFCURVE",
"175 203 CURVE SMOOTH",
"202 203 OFFCURVE",
"216 202 OFFCURVE",
"227 199 CURVE",
"227 99 LINE SMOOTH",
"227 70 OFFCURVE",
"204 64 OFFCURVE",
"169 64 CURVE SMOOTH",
"118 64 OFFCURVE",
"109 68 OFFCURVE",
"109 103 CURVE SMOOTH"
);
}
);
width = 357;
},
{
anchors = (
{
name = bottom;
position = "{126, 0}";
},
{
name = ogonek;
position = "{261, 10}";
},
{
name = top;
position = "{201, 434}";
}
);
layerId = "A2919505-2A95-4438-A60E-B7D4573C3483";
paths = (
{
closed = 1;
nodes = (
"-11 61 OFFCURVE",
"-13 -7 OFFCURVE",
"71 -7 CURVE SMOOTH",
"100 -7 OFFCURVE",
"142 -5 OFFCURVE",
"186 15 CURVE",
"184 0 LINE",
"272 0 LINE",
"329 327 LINE SMOOTH",
"346 423 OFFCURVE",
"285 456 OFFCURVE",
"205 456 CURVE SMOOTH",
"148 456 OFFCURVE",
"96 439 OFFCURVE",
"69 416 CURVE",
"54 332 LINE",
"103 364 OFFCURVE",
"117 372 OFFCURVE",
"186 372 CURVE SMOOTH",
"243 372 OFFCURVE",
"248 364 OFFCURVE",
"240 319 CURVE SMOOTH",
"230 266 LINE",
"213 273 OFFCURVE",
"193 280 OFFCURVE",
"159 280 CURVE SMOOTH",
"68 280 OFFCURVE",
"19 229 OFFCURVE",
"-1 116 CURVE SMOOTH"
);
},
{
closed = 1;
nodes = (
"87 122 LINE SMOOTH",
"100 198 OFFCURVE",
"104 203 OFFCURVE",
"167 203 CURVE SMOOTH",
"194 203 OFFCURVE",
"208 202 OFFCURVE",
"219 199 CURVE",
"201 99 LINE SMOOTH",
"196 70 OFFCURVE",
"172 64 OFFCURVE",
"137 64 CURVE SMOOTH",
"86 64 OFFCURVE",
"78 68 OFFCURVE",
"84 103 CURVE SMOOTH"
);
}
);
width = 363;
},
{
anchors = (
{
name = bottom;
position = "{157, 0}";
},
{
name = ogonek;
position = "{257, -12}";
},
{
name = top;
position = "{158, 460}";
}
);
layerId = "2009CD91-3BC4-40DB-AFF0-7394B85F3EFC";
paths = (
{
closed = 1;
nodes = (
"60 33 OFFCURVE",
"63 9 OFFCURVE",
"93 -1 CURVE SMOOTH",
"117 -9 OFFCURVE",
"188 -14 OFFCURVE",
"230 13 CURVE",
"230 0 LINE",
"252 0 LINE",
"252 329 LINE SMOOTH",
"252 377 OFFCURVE",
"243 436 OFFCURVE",
"156 436 CURVE SMOOTH",
"130 436 OFFCURVE",
"86 426 OFFCURVE",
"63 410 CURVE",
"63 390 LINE",
"80 400 OFFCURVE",
"111 417 OFFCURVE",
"152 417 CURVE SMOOTH",
"219 417 OFFCURVE",
"230 384 OFFCURVE",
"230 321 CURVE SMOOTH",
"230 233 LINE",
"205 245 OFFCURVE",
"177 249 OFFCURVE",
"151 249 CURVE SMOOTH",
"70 249 OFFCURVE",
"60 208 OFFCURVE",
"60 108 CURVE SMOOTH"
);
},
{
closed = 1;
nodes = (
"83 105 LINE SMOOTH",
"83 215 OFFCURVE",
"83 230 OFFCURVE",
"163 230 CURVE SMOOTH",
"211 230 OFFCURVE",
"219 222 OFFCURVE",
"230 212 CURVE",
"230 50 LINE SMOOTH",
"230 31 OFFCURVE",
"216 14 OFFCURVE",
"147 14 CURVE SMOOTH",
"90 14 OFFCURVE",
"83 14 OFFCURVE",
"83 89 CURVE SMOOTH"
);
}
);
width = 320;
}
);
leftKerningGroup = a;
rightKerningGroup = a;
rightMetricsKey = l;
unicode = 0061;
},
{
glyphname = ae;
lastChange = "2016-01-22 10:19:25 +0000";
layers = (
{
anchors = (
{
name = bottom;
position = "{169, 0}";
},
{
name = ogonek;
position = "{303, 10}";
},
{
name = top;
position = "{378, 437}";
}
);
layerId = "8E5E9D5F-1CFD-4F58-89B8-A9F3704C2D63";
paths = (
{
closed = 1;
nodes = (
"82 364 OFFCURVE",
"95 372 OFFCURVE",
"164 372 CURVE SMOOTH",
"221 372 OFFCURVE",
"227 364 OFFCURVE",
"227 319 CURVE SMOOTH",
"227 266 LINE",
"208 273 OFFCURVE",
"187 280 OFFCURVE",
"153 280 CURVE SMOOTH",
"62 280 OFFCURVE",
"22 229 OFFCURVE",
"22 116 CURVE SMOOTH",
"22 61 OFFCURVE",
"32 -7 OFFCURVE",
"116 -7 CURVE SMOOTH",
"163 -7 OFFCURVE",
"228 -9 OFFCURVE",
"282 23 CURVE",
"304 3 OFFCURVE",
"334.997 -9 OFFCURVE",
"378 -9 CURVE SMOOTH",
"415 -9 OFFCURVE",
"480 0 OFFCURVE",
"505 28 CURVE",
"505 112 LINE SMOOTH",
"505 118 OFFCURVE",
"497 118 OFFCURVE",
"495 114 CURVE",
"458 84 OFFCURVE",
"409 76 OFFCURVE",
"379 78 CURVE SMOOTH",
"326 82 OFFCURVE",
"317 117 OFFCURVE",
"317 195 CURVE",
"517 195 LINE SMOOTH",
"521 195 OFFCURVE",
"525 197 OFFCURVE",
"525 200 CURVE SMOOTH",
"525 387 OFFCURVE",
"497 453 OFFCURVE",
"378 453 CURVE SMOOTH",
"330 453 OFFCURVE",
"298 443 OFFCURVE",
"275 424 CURVE",
"248 447 OFFCURVE",
"210 456 OFFCURVE",
"168 456 CURVE SMOOTH",
"111 456 OFFCURVE",
"62 439 OFFCURVE",
"39 416 CURVE",
"39 332 LINE"
);
},
{
closed = 1;
nodes = (
"109 122 LINE SMOOTH",
"109 198 OFFCURVE",
"112 203 OFFCURVE",
"175 203 CURVE SMOOTH",
"202 203 OFFCURVE",
"216 202 OFFCURVE",
"227 199 CURVE",
"227 99 LINE SMOOTH",
"227 70 OFFCURVE",
"204 64 OFFCURVE",
"169 64 CURVE SMOOTH",
"118 64 OFFCURVE",
"109 68 OFFCURVE",
"109 103 CURVE SMOOTH"
);
},
{
closed = 1;
nodes = (
"318 338 OFFCURVE",
"319 369 OFFCURVE",
"378 369 CURVE SMOOTH",
"437 369 OFFCURVE",
"442 338 OFFCURVE",
"443 270 CURVE",
"317 270 LINE"
);
}
);
width = 545;
},
{
anchors = (
{
name = bottom;
position = "{126, 0}";
},
{
name = ogonek;
position = "{262, 10}";
},
{
name = top;
position = "{412, 437}";
}
);
layerId = "A2919505-2A95-4438-A60E-B7D4573C3483";
paths = (
{
closed = 1;
nodes = (
"103 364 OFFCURVE",
"118 372 OFFCURVE",
"187 372 CURVE SMOOTH",
"244 372 OFFCURVE",
"248 364 OFFCURVE",
"240 319 CURVE SMOOTH",
"231 266 LINE",
"213 273 OFFCURVE",
"193 280 OFFCURVE",
"159 280 CURVE SMOOTH",
"68 280 OFFCURVE",
"19 229 OFFCURVE",
"-1 116 CURVE SMOOTH",
"-10 61 OFFCURVE",
"-12 -7 OFFCURVE",
"72 -7 CURVE SMOOTH",
"119 -7 OFFCURVE",
"183 -9 OFFCURVE",
"243 23 CURVE",
"262 3 OFFCURVE",
"290 -9 OFFCURVE",
"333 -9 CURVE SMOOTH",
"370 -9 OFFCURVE",
"437 0 OFFCURVE",
"467 28 CURVE",
"482 112 LINE SMOOTH",
"483 118 OFFCURVE",
"475 118 OFFCURVE",
"472 114 CURVE",
"430 84 OFFCURVE",
"379 76 OFFCURVE",
"350 78 CURVE SMOOTH",
"297 82 OFFCURVE",
"295 117 OFFCURVE",
"308 195 CURVE",
"508 195 LINE SMOOTH",
"512 195 OFFCURVE",
"517 197 OFFCURVE",
"517 200 CURVE SMOOTH",
"550 387 OFFCURVE",
"534 453 OFFCURVE",
"415 453 CURVE SMOOTH",
"367 453 OFFCURVE",
"333 443 OFFCURVE",
"307 424 CURVE",
"284 447 OFFCURVE",
"247 456 OFFCURVE",
"205 456 CURVE SMOOTH",
"148 456 OFFCURVE",
"96 439 OFFCURVE",
"69 416 CURVE",
"55 332 LINE"
);
},
{
closed = 1;
nodes = (
"88 122 LINE SMOOTH",
"101 198 OFFCURVE",
"105 203 OFFCURVE",
"168 203 CURVE SMOOTH",
"195 203 OFFCURVE",
"209 202 OFFCURVE",
"219 199 CURVE",
"201 99 LINE SMOOTH",
"196 70 OFFCURVE",
"172 64 OFFCURVE",
"137 64 CURVE SMOOTH",
"86 64 OFFCURVE",
"78 68 OFFCURVE",
"84 103 CURVE SMOOTH"
);
},
{
closed = 1;
nodes = (
"335 338 OFFCURVE",
"341 369 OFFCURVE",
"400 369 CURVE SMOOTH",
"459 369 OFFCURVE",
"459 338 OFFCURVE",
"448 270 CURVE",
"322 270 LINE"
);
}
);
width = 543;
},
{
anchors = (
{
name = bottom;
position = "{172, 0}";
},
{
name = ogonek;
position = "{306, 10}";
},
{
name = top;
position = "{381, 437}";
}
);
layerId = "2009CD91-3BC4-40DB-AFF0-7394B85F3EFC";
paths = (
{
closed = 1;
nodes = (
"69 368 OFFCURVE",
"89 375 OFFCURVE",
"147 375 CURVE SMOOTH",
"208 375 OFFCURVE",
"216 365 OFFCURVE",
"216 309 CURVE",
"216 247 LINE",
"191 260 OFFCURVE",
"156 260 OFFCURVE",
"136 260 CURVE SMOOTH",
"59 260 OFFCURVE",
"25 214 OFFCURVE",
"25 106 CURVE SMOOTH",
"25 28 OFFCURVE",
"58 2 OFFCURVE",
"107 -5 CURVE SMOOTH",
"124 -7 OFFCURVE",
"224 -15 OFFCURVE",
"251 19 CURVE",
"274 -4 OFFCURVE",
"361 -3 OFFCURVE",
"349 -3 CURVE SMOOTH",
"396 -3 OFFCURVE",
"438 9 OFFCURVE",
"459 28 CURVE",
"459 85 LINE SMOOTH",
"459 90 OFFCURVE",
"451 94 OFFCURVE",
"447 88 CURVE",
"417 67 OFFCURVE",
"382 55 OFFCURVE",
"350 58 CURVE SMOOTH",
"314 61 OFFCURVE",
"278 84 OFFCURVE",
"278 189 CURVE",
"468 189 LINE SMOOTH",
"470 189 OFFCURVE",
"476 189 OFFCURVE",
"476 194 CURVE SMOOTH",
"476 385 OFFCURVE",
"449 439 OFFCURVE",
"347 439 CURVE SMOOTH",
"298 439 OFFCURVE",
"267 426 OFFCURVE",
"248 404 CURVE",
"226 425 OFFCURVE",
"194 436 OFFCURVE",
"151 436 CURVE SMOOTH",
"106 436 OFFCURVE",
"59 422 OFFCURVE",
"36 402 CURVE",
"36 345 LINE"
);
},
{
closed = 1;
nodes = (
"86 112 LINE SMOOTH",
"86 194 OFFCURVE",
"93 203 OFFCURVE",
"158 203 CURVE SMOOTH",
"190 203 OFFCURVE",
"201 202 OFFCURVE",
"214 199 CURVE",
"214 89 LINE",
"214 57 OFFCURVE",
"199 44 OFFCURVE",
"152 44 CURVE SMOOTH",
"98 44 OFFCURVE",
"86 52 OFFCURVE",
"86 93 CURVE SMOOTH"
);
},
{
closed = 1;
nodes = (
"279 328 OFFCURVE",
"280 377 OFFCURVE",
"347 377 CURVE SMOOTH",
"416 377 OFFCURVE",
"420 329 OFFCURVE",
"420 244 CURVE",
"278 244 LINE"
);
}
);
width = 493;
}
);
leftKerningGroup = a;
leftMetricsKey = a;
rightMetricsKey = e;
unicode = 00E6;
},
{
glyphname = b;
lastChange = "2016-02-05 01:13:01 +0000";
layers = (
{
anchors = (
{
name = bottom;
position = "{175, 0}";
},
{
name = top;
position = "{175, 450}";
}
);
background = {
paths = (
{
closed = 1;
nodes = (
"333 212 OFFCURVE",
"333 267 OFFCURVE",
"333 298 CURVE SMOOTH",
"333 364 OFFCURVE",
"305 456 OFFCURVE",
"199 456 CURVE SMOOTH",
"166 456 OFFCURVE",
"143 447 OFFCURVE",
"127 436 CURVE",
"127 700 LINE",
"38 700 LINE",
"38 0 LINE",
"127 0 LINE",
"127 15 LINE",
"168 -5 OFFCURVE",
"223 -3 OFFCURVE",
"244 0 CURVE SMOOTH",
"306 9 OFFCURVE",
"333 62 OFFCURVE",
"333 172 CURVE SMOOTH"
);
},
{
closed = 1;
nodes = (
"127 339 LINE",
"132 355 OFFCURVE",
"140 363 OFFCURVE",
"187 363 CURVE SMOOTH",
"237 363 OFFCURVE",
"244 354 OFFCURVE",
"244 229 CURVE SMOOTH",
"244 129 LINE SMOOTH",
"244 85 OFFCURVE",
"223 81 OFFCURVE",
"184 81 CURVE SMOOTH",
"139 81 OFFCURVE",
"137 85 OFFCURVE",
"127 99 CURVE"
);
}
);
};
layerId = "8E5E9D5F-1CFD-4F58-89B8-A9F3704C2D63";
paths = (
{
closed = 1;
nodes = (
"332 212 OFFCURVE",
"332 267 OFFCURVE",
"332 298 CURVE SMOOTH",
"332 364 OFFCURVE",
"304 456 OFFCURVE",
"198 456 CURVE SMOOTH",
"165 456 OFFCURVE",
"142 447 OFFCURVE",
"126 436 CURVE",
"126 710 LINE",
"37 710 LINE",
"37 0 LINE",
"126 0 LINE",
"126 14 LINE",
"154 3 OFFCURVE",
"181 0 OFFCURVE",
"203 0 CURVE SMOOTH",
"302 0 OFFCURVE",
"332 62 OFFCURVE",
"332 172 CURVE SMOOTH"
);
},
{
closed = 1;
nodes = (
"126 339 LINE",
"131 355 OFFCURVE",
"139 363 OFFCURVE",
"186 363 CURVE SMOOTH",
"236 363 OFFCURVE",
"243 354 OFFCURVE",
"243 229 CURVE SMOOTH",
"243 129 LINE SMOOTH",
"243 85 OFFCURVE",
"222 81 OFFCURVE",
"183 81 CURVE SMOOTH",
"138 81 OFFCURVE",
"136 85 OFFCURVE",
"126 99 CURVE"
);
}
);
width = 352;
},
{
anchors = (
{
name = bottom;
position = "{131, 0}";
},
{
name = top;
position = "{219, 500}";
}
);
layerId = "A2919505-2A95-4438-A60E-B7D4573C3483";
paths = (
{
closed = 1;
nodes = (
"326 212 OFFCURVE",
"336 267 OFFCURVE",
"341 298 CURVE SMOOTH",
"353 364 OFFCURVE",
"341 456 OFFCURVE",
"235 456 CURVE SMOOTH",
"202 456 OFFCURVE",
"177 447 OFFCURVE",
"159 436 CURVE",
"208 710 LINE",
"119 710 LINE",
"-6 0 LINE",
"83 0 LINE",
"85 14 LINE",
"111 3 OFFCURVE",
"138 0 OFFCURVE",
"160 0 CURVE SMOOTH",
"259 0 OFFCURVE",
"300 62 OFFCURVE",
"319 172 CURVE SMOOTH"
);
},
{
closed = 1;
nodes = (
"142 339 LINE",
"150 355 OFFCURVE",
"160 363 OFFCURVE",
"207 363 CURVE SMOOTH",
"257 363 OFFCURVE",
"262 354 OFFCURVE",
"240 229 CURVE SMOOTH",
"222 129 LINE SMOOTH",
"215 85 OFFCURVE",
"193 81 OFFCURVE",
"154 81 CURVE SMOOTH",
"109 81 OFFCURVE",
"108 85 OFFCURVE",
"100 99 CURVE"
);
}
);
width = 350;
},
{
anchors = (
{
name = bottom;
position = "{188, 0}";
},
{
name = top;
position = "{188, 430}";
}
);
background = {
paths = (
{
closed = 1;
nodes = (
"321 203 OFFCURVE",
"321 256 OFFCURVE",
"321 288 CURVE SMOOTH",
"321 379 OFFCURVE",
"288 436 OFFCURVE",
"214 436 CURVE SMOOTH",
"180 436 OFFCURVE",
"155 426 OFFCURVE",
"132 412 CURVE",
"132 700 LINE",
"70 700 LINE",
"70 0 LINE",
"132 0 LINE",
"132 17 LINE",
"171 -6 OFFCURVE",
"225 -3 OFFCURVE",
"248 0 CURVE SMOOTH",
"301 7 OFFCURVE",
"321 26 OFFCURVE",
"321 162 CURVE SMOOTH"
);
},
{
closed = 1;
nodes = (
"132 330 LINE",
"139 356 OFFCURVE",
"146 363 OFFCURVE",
"202 363 CURVE SMOOTH",
"256 363 OFFCURVE",
"259 355 OFFCURVE",
"259 219 CURVE SMOOTH",
"259 119 LINE SMOOTH",
"259 67 OFFCURVE",
"246 61 OFFCURVE",
"199 61 CURVE SMOOTH",
"145 61 OFFCURVE",
"147 64 OFFCURVE",
"132 86 CURVE"
);
}
);
};
layerId = "2009CD91-3BC4-40DB-AFF0-7394B85F3EFC";
paths = (
{
closed = 1;
nodes = (
"321 196 OFFCURVE",
"321 257 OFFCURVE",
"321 289 CURVE SMOOTH",
"321 378 OFFCURVE",
"294 437 OFFCURVE",
"219 437 CURVE SMOOTH",
"185 437 OFFCURVE",
"152 425 OFFCURVE",
"132 411 CURVE",
"132 695 LINE",
"70 695 LINE",
"70 0 LINE",
"132 0 LINE",
"132 17 LINE",
"148 11 OFFCURVE",
"190 -2 OFFCURVE",
"224 -2 CURVE SMOOTH",
"289 -2 OFFCURVE",
"321 44 OFFCURVE",
"321 157 CURVE SMOOTH"
);
},
{
closed = 1;
nodes = (
"132 330 LINE",
"139 356 OFFCURVE",
"144 363 OFFCURVE",
"200 363 CURVE SMOOTH",
"254 363 OFFCURVE",
"257 355 OFFCURVE",
"257 219 CURVE SMOOTH",
"257 119 LINE SMOOTH",
"257 67 OFFCURVE",
"244 61 OFFCURVE",
"197 61 CURVE SMOOTH",
"143 61 OFFCURVE",
"148 66 OFFCURVE",
"132 86 CURVE"
);
}
);
width = 366;
}
);
leftMetricsKey = n;
rightMetricsKey = o;
unicode = 0062;
},
{
glyphname = c;
lastChange = "2016-02-05 01:13:01 +0000";
layers = (
{
anchors = (
{
name = bottom;
position = "{146, 0}";
},
{
name = top;
position = "{142, 441}";
}
);
layerId = "8E5E9D5F-1CFD-4F58-89B8-A9F3704C2D63";
paths = (
{
closed = 1;
nodes = (
"255 450 LINE",
"178 454 LINE",
"43 454 OFFCURVE",
"20 420 OFFCURVE",
"20 245 CURVE SMOOTH",
"20 47 OFFCURVE",
"41 -4 OFFCURVE",
"183 -4 CURVE SMOOTH",
"203 -4 OFFCURVE",
"216 -3 OFFCURVE",
"255 1 CURVE",
"255 85 LINE",
"180 85 LINE SMOOTH",
"109 85 OFFCURVE",
"109 85 OFFCURVE",
"109 234 CURVE SMOOTH",
"109 366 OFFCURVE",
"109 366 OFFCURVE",
"196 366 CURVE SMOOTH",
"255 366 LINE"
);
}
);
width = 270;
},
{
anchors = (
{
name = bottom;
position = "{101, 0}";
},
{
name = top;
position = "{174, 441}";
}
);
layerId = "A2919505-2A95-4438-A60E-B7D4573C3483";
paths = (
{
closed = 1;
nodes = (
"289 450 LINE",
"213 454 LINE",
"78 454 OFFCURVE",
"49 420 OFFCURVE",
"18 245 CURVE SMOOTH",
"-17 47 OFFCURVE",
"5 -4 OFFCURVE",
"137 -4 CURVE SMOOTH",
"157 -4 OFFCURVE",
"170 -3 OFFCURVE",
"210 1 CURVE",
"225 85 LINE",
"150 85 LINE SMOOTH",
"79 85 OFFCURVE",
"79 85 OFFCURVE",
"105 234 CURVE SMOOTH",
"128 368 OFFCURVE",
"128 366 OFFCURVE",
"215 366 CURVE SMOOTH",
"274 366 LINE"
);
}
);
width = 268;
},
{
anchors = (
{
name = bottom;
position = "{146, 0}";
},
{
name = top;
position = "{146, 430}";
}
);
layerId = "2009CD91-3BC4-40DB-AFF0-7394B85F3EFC";
paths = (
{
closed = 1;
nodes = (
"260 430 LINE",
"193 435 LINE",
"76 435 OFFCURVE",
"45 407 OFFCURVE",
"45 235 CURVE SMOOTH",
"45 40 OFFCURVE",
"77 -4 OFFCURVE",
"198 -4 CURVE SMOOTH",
"216 -4 OFFCURVE",
"228 -3 OFFCURVE",
"260 0 CURVE",
"260 62 LINE",
"195 62 LINE SMOOTH",
"114 62 OFFCURVE",
"114 63 OFFCURVE",
"114 224 CURVE SMOOTH",
"114 368 OFFCURVE",
"115 368 OFFCURVE",
"211 368 CURVE SMOOTH",
"260 368 LINE"
);
}
);
width = 275;
}
);
leftKerningGroup = noAscender;
leftMetricsKey = o;
rightKerningGroup = c;
unicode = 0063;
},
{
glyphname = d;
lastChange = "2016-02-14 05:18:15 +0000";
layers = (
{
anchors = (
{
name = bottom;
position = "{179, 0}";
},
{
name = center;
position = "{266, 598}";
},
{
name = top;
position = "{179, 450}";
},
{
name = topright;
position = "{335, 450}";
}
);
background = {
paths = (
{
closed = 1;
nodes = (
"20 57 OFFCURVE",
"46 2 OFFCURVE",
"130 -3 CURVE SMOOTH",
"147 -4 OFFCURVE",
"184 -4 OFFCURVE",
"231 14 CURVE",
"227 14 LINE",
"227 0 LINE",
"315 0 LINE",
"315 710 LINE",
"226 710 LINE",
"227 436 LINE",
"232 436 LINE",
"216 447 OFFCURVE",
"198 456 OFFCURVE",
"154 456 CURVE SMOOTH",
"20 456 OFFCURVE",
"20 369 OFFCURVE",
"20 172 CURVE SMOOTH"
);
},
{
closed = 1;
nodes = (
"230 99 LINE",
"219 85 OFFCURVE",
"206 81 OFFCURVE",
"169 81 CURVE SMOOTH",
"141 81 OFFCURVE",
"102 83 OFFCURVE",
"102 129 CURVE SMOOTH",
"102 229 LINE SMOOTH",
"102 354 OFFCURVE",
"108 363 OFFCURVE",
"166 363 CURVE SMOOTH",
"213 363 OFFCURVE",
"220 357 OFFCURVE",
"229 339 CURVE",
"229 99 LINE"
);
}
);
};
layerId = "8E5E9D5F-1CFD-4F58-89B8-A9F3704C2D63";
paths = (
{
closed = 1;
nodes = (
"20 62 OFFCURVE",
"47 9 OFFCURVE",
"109 0 CURVE SMOOTH",
"130 -3 OFFCURVE",
"185 -5 OFFCURVE",
"226 15 CURVE",
"226 0 LINE",
"315 0 LINE",
"315 700 LINE",
"226 700 LINE",
"226 436 LINE",
"210 447 OFFCURVE",
"187 456 OFFCURVE",
"154 456 CURVE SMOOTH",
"48 456 OFFCURVE",
"20 364 OFFCURVE",
"20 298 CURVE SMOOTH",
"20 267 OFFCURVE",
"20 212 OFFCURVE",
"20 172 CURVE SMOOTH"
);
},
{
closed = 1;
nodes = (
"216 85 OFFCURVE",
"214 81 OFFCURVE",
"169 81 CURVE SMOOTH",
"130 81 OFFCURVE",
"109 85 OFFCURVE",
"109 129 CURVE SMOOTH",
"109 229 LINE SMOOTH",
"109 354 OFFCURVE",
"116 363 OFFCURVE",
"166 363 CURVE SMOOTH",
"213 363 OFFCURVE",
"221 355 OFFCURVE",
"226 339 CURVE",
"226 99 LINE"
);
}
);
width = 357;
},
{
anchors = (
{
name = bottom;
position = "{134, 0}";
},
{
name = center;
position = "{330, 595}";
},
{
name = top;
position = "{213, 450}";
},
{
name = topright;
position = "{369, 450}";
}
);
layerId = "A2919505-2A95-4438-A60E-B7D4573C3483";
paths = (
{
closed = 1;
nodes = (
"-14 62 OFFCURVE",
"3 9 OFFCURVE",
"64 0 CURVE SMOOTH",
"84 -3 OFFCURVE",
"139 -5 OFFCURVE",
"183 15 CURVE",
"181 0 LINE",
"270 0 LINE",
"395 710 LINE",
"306 710 LINE",
"257 436 LINE",
"243 447 OFFCURVE",
"222 456 OFFCURVE",
"189 456 CURVE SMOOTH",
"83 456 OFFCURVE",
"39 364 OFFCURVE",
"27 298 CURVE SMOOTH",
"22 267 OFFCURVE",
"12 212 OFFCURVE",
"5 172 CURVE SMOOTH"
);
},
{
closed = 1;
nodes = (
"186 85 OFFCURVE",
"183 81 OFFCURVE",
"138 81 CURVE SMOOTH",
"99 81 OFFCURVE",
"79 85 OFFCURVE",
"86 129 CURVE SMOOTH",
"104 229 LINE SMOOTH",
"126 354 OFFCURVE",
"135 363 OFFCURVE",
"185 363 CURVE SMOOTH",
"232 363 OFFCURVE",
"238 355 OFFCURVE",
"240 339 CURVE",
"198 99 LINE"
);
}
);
width = 361;
},
{
anchors = (
{
name = bottom;
position = "{184, 0}";
},
{
name = center;
position = "{226, 510}";
},
{
name = top;
position = "{184, 405}";
},
{
name = topright;
position = "{333, 405}";
}
);
layerId = "2009CD91-3BC4-40DB-AFF0-7394B85F3EFC";
paths = (
{
closed = 1;
nodes = (
"45 43 OFFCURVE",
"46 12 OFFCURVE",
"77 0 CURVE SMOOTH",
"107 -12 OFFCURVE",
"182 -13 OFFCURVE",
"224 20 CURVE",
"224 0 LINE",
"246 0 LINE",
"246 700 LINE",
"224 700 LINE",
"224 418 LINE",
"201 437 OFFCURVE",
"168 441 OFFCURVE",
"148 441 CURVE SMOOTH",
"93 441 OFFCURVE",
"45 411 OFFCURVE",
"45 329 CURVE SMOOTH",
"45 295 OFFCURVE",
"45 174 OFFCURVE",
"45 132 CURVE SMOOTH"
);
},
{
closed = 1;
nodes = (
"224 38 OFFCURVE",
"184 10 OFFCURVE",
"146 10 CURVE SMOOTH",
"89 10 OFFCURVE",
"67 18 OFFCURVE",
"67 58 CURVE SMOOTH",
"67 292 LINE SMOOTH",
"67 389 OFFCURVE",
"77 411 OFFCURVE",
"147 411 CURVE SMOOTH",
"204 411 OFFCURVE",
"217 397 OFFCURVE",
"224 382 CURVE",
"224 57 LINE"
);
}
);
width = 314;
}
);
leftMetricsKey = o;
rightMetricsKey = l;
unicode = 0064;
},
{
glyphname = eth;
lastChange = "2015-12-16 04:33:09 +0000";
layers = (
{
layerId = "8E5E9D5F-1CFD-4F58-89B8-A9F3704C2D63";
paths = (
{
closed = 1;
nodes = (
"329 -9 OFFCURVE",
"344 98 OFFCURVE",
"344 226 CURVE SMOOTH",
"344 354 OFFCURVE",
"329 455 OFFCURVE",
"184 455 CURVE SMOOTH",
"33 455 OFFCURVE",
"18 354 OFFCURVE",
"18 226 CURVE SMOOTH",
"18 98 OFFCURVE",
"33 -9 OFFCURVE",
"184 -9 CURVE SMOOTH"
);
},
{
closed = 1;
nodes = (
"108 72 OFFCURVE",
"107 98 OFFCURVE",
"107 220 CURVE SMOOTH",
"107 342 OFFCURVE",
"108 371 OFFCURVE",
"184 371 CURVE SMOOTH",
"260 371 OFFCURVE",
"261 342 OFFCURVE",
"261 220 CURVE SMOOTH",
"261 98 OFFCURVE",
"260 72 OFFCURVE",
"184 72 CURVE SMOOTH"
);
},
{
closed = 1;
nodes = (
"62 563 LINE",
"265 563 OFFCURVE",
"261 341 OFFCURVE",
"261 246 CURVE",
"344 246 LINE",
"344 595 OFFCURVE",
"214 632 OFFCURVE",
"62 632 CURVE"
);
},
{
closed = 1;
nodes = (
"73 521 LINE",
"101 474 LINE",
"289 608 LINE",
"261 655 LINE"
);
}
);
width = 375;
},
{
layerId = "A2919505-2A95-4438-A60E-B7D4573C3483";
paths = (
{
closed = 1;
nodes = (
"263 -9 OFFCURVE",
"297 98 OFFCURVE",
"320 226 CURVE SMOOTH",
"342 354 OFFCURVE",
"345 455 OFFCURVE",
"214 455 CURVE SMOOTH",
"63 455 OFFCURVE",
"30 354 OFFCURVE",
"8 226 CURVE SMOOTH",
"-15 98 OFFCURVE",
"-19 -9 OFFCURVE",
"132 -9 CURVE SMOOTH"
);
},
{
closed = 1;
nodes = (
"71 72 OFFCURVE",
"74 98 OFFCURVE",
"96 220 CURVE SMOOTH",
"117 342 OFFCURVE",
"123 371 OFFCURVE",
"199 371 CURVE SMOOTH",
"275 371 OFFCURVE",
"271 342 OFFCURVE",
"250 220 CURVE SMOOTH",
"228 98 OFFCURVE",
"223 72 OFFCURVE",
"147 72 CURVE SMOOTH"
);
},
{
closed = 1;
nodes = (
"111 563 LINE",
"314 563 OFFCURVE",
"271 341 OFFCURVE",
"254 246 CURVE",
"323 246 LINE",
"385 595 OFFCURVE",
"275 632 OFFCURVE",
"123 632 CURVE"
);
},
{
closed = 1;
nodes = (
"115 521 LINE",
"135 474 LINE",
"346 608 LINE",
"326 655 LINE"
);
}
);
width = 368;
},
{
layerId = "2009CD91-3BC4-40DB-AFF0-7394B85F3EFC";
paths = (
{
closed = 1;
nodes = (
"298 1 OFFCURVE",
"312 99 OFFCURVE",
"312 226 CURVE SMOOTH",
"312 353 OFFCURVE",
"298 445 OFFCURVE",
"168 445 CURVE SMOOTH",
"26 445 OFFCURVE",
"12 353 OFFCURVE",
"12 226 CURVE SMOOTH",
"12 99 OFFCURVE",
"26 1 OFFCURVE",
"168 1 CURVE SMOOTH"
);
},
{
closed = 1;
nodes = (
"82 62 OFFCURVE",
"81 98 OFFCURVE",
"81 220 CURVE SMOOTH",
"81 342 OFFCURVE",
"82 381 OFFCURVE",
"168 381 CURVE SMOOTH",
"254 381 OFFCURVE",
"255 342 OFFCURVE",
"255 220 CURVE SMOOTH",
"255 98 OFFCURVE",
"254 62 OFFCURVE",
"168 62 CURVE SMOOTH"
);
},
{
closed = 1;
nodes = (
"56 573 LINE",
"252 566 OFFCURVE",
"255 355 OFFCURVE",
"255 256 CURVE",
"312 256 LINE",
"310 581 OFFCURVE",
"200 620 OFFCURVE",
"56 622 CURVE"
);
},
{
closed = 1;
nodes = (
"70 518 LINE",
"88 488 LINE",
"260 611 LINE",
"242 641 LINE"
);
}
);
width = 344;
}
);
unicode = 00F0;
},
{
glyphname = e;
lastChange = "2016-02-05 04:11:23 +0000";
layers = (
{
anchors = (
{
name = bottom;
position = "{169, 0}";
},
{
name = ogonek;
position = "{281, 19}";
},
{
name = top;
position = "{171, 437}";
}
);
layerId = "8E5E9D5F-1CFD-4F58-89B8-A9F3704C2D63";
paths = (
{
closed = 1;
nodes = (
"20 99 OFFCURVE",
"41 -9 OFFCURVE",
"171 -9 CURVE SMOOTH",
"218 -9 OFFCURVE",
"271 6 OFFCURVE",
"298 28 CURVE",
"298 112 LINE",
"298 118 OFFCURVE",
"292 118 OFFCURVE",
"288 114 CURVE",
"251 84 OFFCURVE",
"202 76 OFFCURVE",
"172 78 CURVE SMOOTH",
"119 82 OFFCURVE",
"110 117 OFFCURVE",
"110 195 CURVE",
"310 195 LINE SMOOTH",
"314 195 OFFCURVE",
"318 197 OFFCURVE",
"318 200 CURVE SMOOTH",
"318 387 OFFCURVE",
"290 453 OFFCURVE",
"171 453 CURVE",
"21 453 OFFCURVE",
"20 350 OFFCURVE",
"20 225 CURVE SMOOTH"
);
},
{
closed = 1;
nodes = (
"110 270 LINE",
"111 338 OFFCURVE",
"112 369 OFFCURVE",
"171 369 CURVE SMOOTH",
"230 369 OFFCURVE",
"235 338 OFFCURVE",
"236 270 CURVE"
);
}
);
width = 338;
},
{
anchors = (
{
name = bottom;
position = "{127, 0}";
},
{
name = ogonek;
position = "{259, 10}";
},
{
name = top;
position = "{203, 437}";
}
);
layerId = "A2919505-2A95-4438-A60E-B7D4573C3483";
paths = (
{
closed = 1;
nodes = (
"-8 99 OFFCURVE",
"-6 -9 OFFCURVE",
"124 -9 CURVE SMOOTH",
"161 -9 OFFCURVE",
"228 0 OFFCURVE",
"258 28 CURVE",
"272 112 LINE",
"273 118 OFFCURVE",
"265 118 OFFCURVE",
"263 114 CURVE",
"220 84 OFFCURVE",
"170 76 OFFCURVE",
"140 78 CURVE SMOOTH",
"88 82 OFFCURVE",
"85 117 OFFCURVE",
"99 195 CURVE",
"299 195 LINE SMOOTH",
"303 195 OFFCURVE",
"307 197 OFFCURVE",
"308 200 CURVE SMOOTH",
"341 387 OFFCURVE",
"324 453 OFFCURVE",
"205 453 CURVE",
"55 453 OFFCURVE",
"36 350 OFFCURVE",
"14 225 CURVE SMOOTH"
);
},
{
closed = 1;
nodes = (
"112 270 LINE",
"125 338 OFFCURVE",
"132 369 OFFCURVE",
"191 369 CURVE SMOOTH",
"250 369 OFFCURVE",
"249 338 OFFCURVE",
"238 270 CURVE"
);
}
);
width = 334;
},
{
anchors = (
{
name = bottom;
position = "{176, 0}";
},
{
name = ogonek;
position = "{274, 22}";
},
{
name = top;
position = "{178, 422}";
}
);
layerId = "2009CD91-3BC4-40DB-AFF0-7394B85F3EFC";
paths = (
{
closed = 1;
nodes = (
"45 41 OFFCURVE",
"100 -3 OFFCURVE",
"180 -3 CURVE SMOOTH",
"227 -3 OFFCURVE",
"269 9 OFFCURVE",
"290 28 CURVE",
"290 48 LINE",
"290 51 OFFCURVE",
"288 53 OFFCURVE",
"283 49 CURVE",
"253 28 OFFCURVE",
"213 18 OFFCURVE",
"181 19 CURVE SMOOTH",
"86 22 OFFCURVE",
"68 111 OFFCURVE",
"67 229 CURVE",
"299 229 LINE SMOOTH",
"301 229 OFFCURVE",
"307 229 OFFCURVE",
"307 234 CURVE SMOOTH",
"307 405 OFFCURVE",
"280 434 OFFCURVE",
"178 434 CURVE SMOOTH",
"46 434 OFFCURVE",
"45 346 OFFCURVE",
"45 221 CURVE SMOOTH"
);
},
{
closed = 1;
nodes = (
"67 256 LINE",
"69 360 OFFCURVE",
"78 409 OFFCURVE",
"177 409 CURVE SMOOTH",
"274 409 OFFCURVE",
"285 362 OFFCURVE",
"285 256 CURVE"
);
}
);
width = 352;
}
);
leftKerningGroup = e;
leftMetricsKey = o;
rightKerningGroup = e;
rightMetricsKey = o;
unicode = 0065;
},
{
glyphname = f;
lastChange = "2015-12-17 02:32:50 +0000";
layers = (
{
anchors = (
{
name = bottom;
position = "{129, 0}";
},
{
name = top;
position = "{129, 450}";
}
);
layerId = "8E5E9D5F-1CFD-4F58-89B8-A9F3704C2D63";
paths = (
{
closed = 1;
nodes = (
"87 369 LINE",
"87 0 LINE",
"176 0 LINE",
"176 369 LINE",
"246 369 LINE",
"246 450 LINE",
"176 450 LINE",
"176 573 LINE SMOOTH",
"176 596 OFFCURVE",
"186 606 OFFCURVE",
"201 606 CURVE SMOOTH",
"249 606 LINE",
"249 695 LINE",
"172 699 LINE",
"86 699 OFFCURVE",
"87 624 OFFCURVE",
"87 536 CURVE SMOOTH",
"87 450 LINE",
"17 450 LINE",
"17 369 LINE"
);
}
);
width = 257;
},
{
anchors = (
{
name = bottom;
position = "{85, 0}";
},
{
name = top;
position = "{173, 500}";
}
);
layerId = "A2919505-2A95-4438-A60E-B7D4573C3483";
paths = (
{
closed = 1;
nodes = (
"110 375 LINE",
"44 0 LINE",
"133 0 LINE",
"199 375 LINE",
"269 375 LINE",
"282 450 LINE",
"212 450 LINE",
"234 573 LINE SMOOTH",
"238 596 OFFCURVE",
"249 606 OFFCURVE",
"264 606 CURVE SMOOTH",
"312 606 LINE",
"328 695 LINE",
"252 699 LINE",
"166 699 OFFCURVE",
"154 624 OFFCURVE",
"138 536 CURVE SMOOTH",
"123 450 LINE",
"53 450 LINE",
"40 375 LINE"
);
}
);
width = 257;
},
{
anchors = (
{
name = bottom;
position = "{124, 0}";
},
{
name = top;
position = "{124, 430}";
}
);
layerId = "2009CD91-3BC4-40DB-AFF0-7394B85F3EFC";
paths = (
{
closed = 1;
nodes = (
"92 365 LINE",
"92 0 LINE",
"154 0 LINE",
"154 365 LINE",
"224 365 LINE",
"224 430 LINE",
"154 430 LINE",
"154 594 LINE SMOOTH",
"154 623 OFFCURVE",
"169 642 OFFCURVE",
"194 642 CURVE SMOOTH",
"227 642 LINE",
"227 697 LINE",
"164 700 LINE",
"107 700 OFFCURVE",
"92 669 OFFCURVE",
"92 552 CURVE SMOOTH",
"92 430 LINE",
"22 430 LINE",
"22 365 LINE"
);
}
);
width = 247;
}
);
unicode = 0066;
},
{
glyphname = g;
lastChange = "2016-01-22 10:19:25 +0000";
layers = (
{
anchors = (
{
name = bottom;
position = "{184, 0}";
},
{
name = top;
position = "{177, 440}";
}
);
background = {
paths = (
{
closed = 1;
nodes = (
"26 85 OFFCURVE",
"26 -1 OFFCURVE",
"157 -1 CURVE SMOOTH",
"187 -1 OFFCURVE",
"217 8 OFFCURVE",
"233 19 CURVE",
"232 -253 LINE",
"315 -253 LINE",
"315 451 LINE",
"233 451 LINE",
"233 437 LINE",
"186 454 OFFCURVE",
"161 453 OFFCURVE",
"133 453 CURVE SMOOTH",
"53 453 OFFCURVE",
"26 395 OFFCURVE",
"26 280 CURVE SMOOTH"
);
},
{
closed = 1;
nodes = (
"235 115 LINE",
"225 96 OFFCURVE",
"206 91 OFFCURVE",
"169 91 CURVE SMOOTH",
"111 91 OFFCURVE",
"102 94 OFFCURVE",
"102 224 CURVE SMOOTH",
"102 323 LINE SMOOTH",
"102 369 OFFCURVE",
"115 370 OFFCURVE",
"172 370 CURVE SMOOTH",
"199 370 OFFCURVE",
"222 369 OFFCURVE",
"235 352 CURVE"
);
}
);
};
layerId = "8E5E9D5F-1CFD-4F58-89B8-A9F3704C2D63";
paths = (
{
closed = 1;
nodes = (
"38 -214 OFFCURVE",
"49 -255 OFFCURVE",
"184 -255 CURVE SMOOTH",
"298 -255 OFFCURVE",
"319 -219 OFFCURVE",
"319 -35 CURVE SMOOTH",
"319 450 LINE",
"235 450 LINE",
"235 438 LINE",
"222 446 OFFCURVE",
"173 455 OFFCURVE",
"142 455 CURVE SMOOTH",
"38 455 OFFCURVE",
"30 379 OFFCURVE",
"30 227 CURVE SMOOTH",
"30 44 OFFCURVE",
"31 0 OFFCURVE",
"124 0 CURVE SMOOTH",
"138 0 OFFCURVE",
"147 0 OFFCURVE",
"161 0 CURVE SMOOTH",
"185 0 OFFCURVE",
"207 2 OFFCURVE",
"234 15 CURVE",
"234 -73 LINE SMOOTH",
"234 -169 OFFCURVE",
"227 -171 OFFCURVE",
"183 -171 CURVE SMOOTH",
"128 -171 OFFCURVE",
"118 -169 OFFCURVE",
"119 -73 CURVE",
"38 -73 LINE"
);
},
{
closed = 1;
nodes = (
"133 81 OFFCURVE",
"112 85 OFFCURVE",
"112 129 CURVE SMOOTH",
"112 162 OFFCURVE",
"112 196 OFFCURVE",
"112 229 CURVE SMOOTH",
"112 354 OFFCURVE",
"119 363 OFFCURVE",
"169 363 CURVE SMOOTH",
"216 363 OFFCURVE",
"224 355 OFFCURVE",
"229 339 CURVE",
"229 99 LINE",
"219 85 OFFCURVE",
"217 81 OFFCURVE",
"172 81 CURVE SMOOTH"
);
}
);
width = 361;
},
{
anchors = (
{
name = bottom;
position = "{101, 0}";
},
{
name = top;
position = "{209, 450}";
}
);
layerId = "A2919505-2A95-4438-A60E-B7D4573C3483";
paths = (
{
closed = 1;
nodes = (
"-58 -211 OFFCURVE",
"-55 -255 OFFCURVE",
"83 -255 CURVE SMOOTH",
"197 -255 OFFCURVE",
"229 -219 OFFCURVE",
"262 -35 CURVE SMOOTH",
"347 450 LINE",
"258 450 LINE",
"256 438 LINE",
"245 446 OFFCURVE",
"197 453 OFFCURVE",
"166 453 CURVE SMOOTH",
"46 453 OFFCURVE",
"33 336 OFFCURVE",
"14 227 CURVE SMOOTH",
"-12 91 OFFCURVE",
"-26 0 OFFCURVE",
"68 0 CURVE SMOOTH",
"81 0 OFFCURVE",
"93 -1 OFFCURVE",
"105 -1 CURVE SMOOTH",
"129 -1 OFFCURVE",
"152 2 OFFCURVE",
"181 15 CURVE",
"165 -73 LINE SMOOTH",
"147 -178 OFFCURVE",
"139 -180 OFFCURVE",
"95 -180 CURVE SMOOTH",
"29 -180 OFFCURVE",
"34 -158 OFFCURVE",
"50 -73 CURVE",
"-31 -73 LINE"
);
},
{
closed = 1;
nodes = (
"97 81 OFFCURVE",
"77 84 OFFCURVE",
"77 112 CURVE SMOOTH",
"77 116 OFFCURVE",
"78 121 OFFCURVE",
"96 229 CURVE SMOOTH",
"118 354 OFFCURVE",
"127 363 OFFCURVE",
"177 363 CURVE SMOOTH",
"224 363 OFFCURVE",
"231 355 OFFCURVE",
"233 339 CURVE",
"190 99 LINE",
"178 85 OFFCURVE",
"175 81 OFFCURVE",
"130 81 CURVE SMOOTH"
);
}
);
width = 359;
},
{
anchors = (
{
name = bottom;
position = "{144, 0}";
},
{
name = top;
position = "{150, 430}";
}
);
layerId = "2009CD91-3BC4-40DB-AFF0-7394B85F3EFC";
paths = (
{
closed = 1;
nodes = (
"17 -184 OFFCURVE",
"17 -255 OFFCURVE",
"146 -255 CURVE SMOOTH",
"241 -255 OFFCURVE",
"264 -225 OFFCURVE",
"264 -45 CURVE SMOOTH",
"264 430 LINE",
"202 430 LINE",
"202 420 LINE",
"190 425 OFFCURVE",
"135 433 OFFCURVE",
"105 433 CURVE SMOOTH",
"17 433 OFFCURVE",
"17 360 OFFCURVE",
"17 222 CURVE SMOOTH",
"17 10 OFFCURVE",
"26 -5 OFFCURVE",
"96 -5 CURVE SMOOTH",
"104 -5 OFFCURVE",
"117 -6 OFFCURVE",
"131 -6 CURVE SMOOTH",
"152 -6 OFFCURVE",
"178 -3 OFFCURVE",
"201 11 CURVE",
"201 -83 LINE SMOOTH",
"201 -179 OFFCURVE",
"194 -193 OFFCURVE",
"145 -193 CURVE SMOOTH",
"87 -193 OFFCURVE",
"74 -179 OFFCURVE",
"74 -101 CURVE",
"17 -101 LINE"
);
},
{
closed = 1;
nodes = (
"91 56 OFFCURVE",
"76 71 OFFCURVE",
"76 119 CURVE SMOOTH",
"76 154 OFFCURVE",
"76 189 OFFCURVE",
"76 224 CURVE SMOOTH",
"76 360 OFFCURVE",
"83 373 OFFCURVE",
"138 373 CURVE SMOOTH",
"176 373 OFFCURVE",
"195 364 OFFCURVE",
"203 336 CURVE",
"203 84 LINE",
"186 60 OFFCURVE",
"177 56 OFFCURVE",
"141 56 CURVE SMOOTH"
);
}
);
width = 312;
}
);
leftKerningGroup = noAscender;
rightMetricsKey = l;
unicode = 0067;
},
{
glyphname = glottalstop;
lastChange = "2015-11-27 11:23:52 +0000";
layers = (
{
layerId = "8E5E9D5F-1CFD-4F58-89B8-A9F3704C2D63";
paths = (
{
closed = 1;
nodes = (
"22 631 OFFCURVE",
"21 552 OFFCURVE",
"20 552 CURVE SMOOTH",
"19 552 OFFCURVE",
"52 605 OFFCURVE",
"102 617 CURVE SMOOTH",
"147 627 OFFCURVE",
"178 595 OFFCURVE",
"178 537 CURVE SMOOTH",
"178 383 OFFCURVE",
"91 430 OFFCURVE",
"91 227 CURVE SMOOTH",
"91 0 LINE",
"180 0 LINE",
"180 223 LINE SMOOTH",
"180 392 OFFCURVE",
"270 339 OFFCURVE",
"270 505 CURVE SMOOTH",
"270 644 OFFCURVE",
"206 714 OFFCURVE",
"100 704 CURVE SMOOTH",
"59 700 OFFCURVE",
"30 685 OFFCURVE",
"22 663 CURVE"
);
}
);
width = 290;
},
{
layerId = "2009CD91-3BC4-40DB-AFF0-7394B85F3EFC";
paths = (
{
closed = 1;
nodes = (
"37 680 OFFCURVE",
"35 609 OFFCURVE",
"36 609 CURVE SMOOTH",
"38 609 OFFCURVE",
"42 629 OFFCURVE",
"98 643 CURVE SMOOTH",
"153 655 OFFCURVE",
"193 615 OFFCURVE",
"193 548 CURVE SMOOTH",
"193 397 OFFCURVE",
"106 399 OFFCURVE",
"106 228 CURVE SMOOTH",
"106 1 LINE",
"165 1 LINE",
"165 224 LINE SMOOTH",
"165 354 OFFCURVE",
"255 370 OFFCURVE",
"255 516 CURVE SMOOTH",
"255 644 OFFCURVE",
"200 709 OFFCURVE",
"101 700 CURVE SMOOTH",
"67 697 OFFCURVE",
"44 686 OFFCURVE",
"37 671 CURVE"
);
}
);
width = 600;
},
{
layerId = "A2919505-2A95-4438-A60E-B7D4573C3483";
paths = (
{
closed = 1;
nodes = (
"94 631 OFFCURVE",
"79 552 OFFCURVE",
"78 552 CURVE SMOOTH",
"77 552 OFFCURVE",
"120 605 OFFCURVE",
"172 617 CURVE SMOOTH",
"219 627 OFFCURVE",
"244 595 OFFCURVE",
"234 537 CURVE SMOOTH",
"207 383 OFFCURVE",
"128 430 OFFCURVE",
"92 227 CURVE SMOOTH",
"52 0 LINE",
"141 0 LINE",
"180 223 LINE SMOOTH",
"210 392 OFFCURVE",
"291 339 OFFCURVE",
"320 505 CURVE SMOOTH",
"345 644 OFFCURVE",
"293 714 OFFCURVE",
"185 704 CURVE SMOOTH",
"143 700 OFFCURVE",
"112 685 OFFCURVE",
"100 663 CURVE"
);
}
);
width = 291;
}
);
unicode = 0294;
},
{
glyphname = h;
lastChange = "2016-02-08 06:15:29 +0000";
layers = (
{
anchors = (
{
name = bottom;
position = "{184, 0}";
},
{
name = center;
position = "{84, 225}";
},
{
name = top;
position = "{190, 660}";
}
);
background = {
anchors = (
{
name = top;
position = "{189, 450}";
}
);
paths = (
{
closed = 1;
nodes = (
"126 0 LINE",
"126 340 LINE",
"140 357 OFFCURVE",
"162 366 OFFCURVE",
"183 366 CURVE SMOOTH",
"215 366 OFFCURVE",
"246 346 OFFCURVE",
"246 300 CURVE SMOOTH",
"246 0 LINE",
"335 0 LINE",
"335 296 LINE SMOOTH",
"335 394 OFFCURVE",
"307 455 OFFCURVE",
"227 455 CURVE SMOOTH",
"178 455 OFFCURVE",
"145 432 OFFCURVE",
"126 417 CURVE",
"126 450 LINE",
"37 450 LINE",
"37 0 LINE"
);
}
);
};
layerId = "8E5E9D5F-1CFD-4F58-89B8-A9F3704C2D63";
paths = (
{
closed = 1;
nodes = (
"126 0 LINE",
"126 331 LINE",
"136 355 OFFCURVE",
"159 368 OFFCURVE",
"183 368 CURVE SMOOTH",
"213 368 OFFCURVE",
"242 348 OFFCURVE",
"242 302 CURVE SMOOTH",
"242 0 LINE",
"331 0 LINE",
"331 298 LINE SMOOTH",
"331 393 OFFCURVE",
"283 455 OFFCURVE",
"209 455 CURVE SMOOTH",
"166 455 OFFCURVE",
"138 434 OFFCURVE",
"126 419 CURVE",
"126 700 LINE",
"37 700 LINE",
"37 0 LINE"
);
}
);
width = 368;
},
{
anchors = (
{
name = bottom;
position = "{140, 0}";
},
{
name = center;
position = "{133, 536}";
},
{
name = top;
position = "{228, 500}";
}
);
layerId = "A2919505-2A95-4438-A60E-B7D4573C3483";
paths = (
{
closed = 1;
nodes = (
"83 0 LINE",
"141 331 LINE",
"155 355 OFFCURVE",
"180 368 OFFCURVE",
"204 368 CURVE SMOOTH",
"234 368 OFFCURVE",
"260 348 OFFCURVE",
"252 302 CURVE SMOOTH",
"199 0 LINE",
"288 0 LINE",
"340 298 LINE SMOOTH",
"357 393 OFFCURVE",
"320 455 OFFCURVE",
"246 455 CURVE SMOOTH",
"203 455 OFFCURVE",
"171 434 OFFCURVE",
"156 419 CURVE",
"206 700 LINE",
"117 700 LINE",
"-6 0 LINE"
);
}
);
width = 368;
},
{
anchors = (
{
name = bottom;
position = "{201, 0}";
},
{
name = center;
position = "{101, 215}";
},
{
name = top;
position = "{201, 430}";
}
);
background = {
paths = (
{
closed = 1;
nodes = (
"92 0 LINE",
"92 351 LINE",
"107 373 OFFCURVE",
"178 410 OFFCURVE",
"230 410 CURVE SMOOTH",
"301 410 OFFCURVE",
"315 341 OFFCURVE",
"315 295 CURVE SMOOTH",
"315 0 LINE",
"337 0 LINE",
"337 276 LINE SMOOTH",
"337 374 OFFCURVE",
"305 433 OFFCURVE",
"228 433 CURVE SMOOTH",
"170 433 OFFCURVE",
"110 399 OFFCURVE",
"92 380 CURVE",
"92 430 LINE",
"70 430 LINE",
"70 0 LINE"
);
}
);
};
layerId = "2009CD91-3BC4-40DB-AFF0-7394B85F3EFC";
paths = (
{
closed = 1;
nodes = (
"92 0 LINE",
"92 355 LINE",
"112 377 OFFCURVE",
"149 414 OFFCURVE",
"223 414 CURVE SMOOTH",
"287 414 OFFCURVE",
"309 366 OFFCURVE",
"309 300 CURVE SMOOTH",
"309 0 LINE",
"331 0 LINE",
"331 300 LINE SMOOTH",
"331 398 OFFCURVE",
"288 435 OFFCURVE",
"222 435 CURVE SMOOTH",
"148 435 OFFCURVE",
"110 401 OFFCURVE",
"92 382 CURVE",
"92 700 LINE",
"70 700 LINE",
"70 0 LINE"
);
}
);
width = 399;
}
);
leftMetricsKey = i;
rightMetricsKey = n;
unicode = 0068;
},
{
glyphname = i;
lastChange = "2016-02-08 05:59:10 +0000";
layers = (
{
anchors = (
{
name = bottom;
position = "{82, 0}";
}
);
components = (
{
name = idotless;
transform = "{1, 0, 0, 1, 14, 0}";
}
);
layerId = "8E5E9D5F-1CFD-4F58-89B8-A9F3704C2D63";
paths = (
{
closed = 1;
nodes = (
"37 514 LINE",
"126 514 LINE",
"126 630 LINE",
"37 630 LINE"
);
}
);
width = 163;
},
{
anchors = (
{
name = bottom;
position = "{39, 0}";
}
);
components = (
{
name = idotless;
transform = "{1, 0, 0, 1, 20, 0}";
}
);
layerId = "A2919505-2A95-4438-A60E-B7D4573C3483";
paths = (
{
closed = 1;
nodes = (
"85 514 LINE",
"174 514 LINE",
"194 630 LINE",
"105 630 LINE"
);
}
);
width = 163;
},
{
anchors = (
{
name = bottom;
position = "{54, 0}";
}
);
components = (
{
name = idotless;
}
);
layerId = "2009CD91-3BC4-40DB-AFF0-7394B85F3EFC";
paths = (
{
closed = 1;
nodes = (
"70 544 LINE",
"92 544 LINE",
"92 600 LINE",
"70 600 LINE"
);
}
);
width = 160;
}
);
leftKerningGroup = Llike;
leftMetricsKey = n;
rightMetricsKey = n;
unicode = 0069;
},
{
glyphname = idotless;
lastChange = "2016-02-05 01:03:27 +0000";
layers = (
{
anchors = (
{
name = bottom;
position = "{67, 0}";
},
{
name = ogonek;
position = "{101, 10}";
},
{
name = top;
position = "{68, 441}";
}
);
layerId = "8E5E9D5F-1CFD-4F58-89B8-A9F3704C2D63";
paths = (
{
closed = 1;
nodes = (
"112 0 LINE",
"112 449 LINE",
"23 449 LINE",
"23 0 LINE"
);
}
);
width = 134;
},
{
anchors = (
{
name = bottom;
position = "{27, 0}";
},
{
name = ogonek;
position = "{81, 10}";
},
{
name = top;
position = "{96, 441}";
}
);
layerId = "A2919505-2A95-4438-A60E-B7D4573C3483";
paths = (
{
closed = 1;
nodes = (
"62 0 LINE",
"141 449 LINE",
"52 449 LINE",
"-27 0 LINE"
);
}
);
width = 134;
},
{
anchors = (
{
name = bottom;
position = "{81, 0}";
},
{
name = ogonek;
position = "{92, 10}";
},
{
name = top;
position = "{81, 430}";
}
);
layerId = "2009CD91-3BC4-40DB-AFF0-7394B85F3EFC";
paths = (
{
closed = 1;
nodes = (
"92 0 LINE",
"92 430 LINE",
"70 430 LINE",
"70 0 LINE"
);
}
);
width = 162;
}
);
leftKerningGroup = Llike;
leftMetricsKey = n;
rightMetricsKey = n;
unicode = 0131;
},
{
glyphname = j;
lastChange = "2016-02-05 01:13:21 +0000";
layers = (
{
components = (
{
name = jdotless;
}
);
layerId = "8E5E9D5F-1CFD-4F58-89B8-A9F3704C2D63";
paths = (
{
closed = 1;
nodes = (
"72 514 LINE",
"161 514 LINE",
"161 630 LINE",
"72 630 LINE"
);
}
);
width = 198;
},
{
components = (
{
name = jdotless;
transform = "{1, 0, 0, 1, 1, 0}";
}
);
layerId = "A2919505-2A95-4438-A60E-B7D4573C3483";
paths = (
{
closed = 1;
nodes = (
"119 514 LINE",
"208 514 LINE",
"229 630 LINE",
"140 630 LINE"
);
}
);
width = 198;
},
{
components = (
{
name = jdotless;
transform = "{1, 0, 0, 1, 0, -10}";
}
);
layerId = "2009CD91-3BC4-40DB-AFF0-7394B85F3EFC";
paths = (
{
closed = 1;
nodes = (
"70 524 LINE",
"132 524 LINE",
"132 620 LINE",
"70 620 LINE"
);
}
);
width = 202;
}
);
rightMetricsKey = i;
unicode = 006A;
},
{
glyphname = jdotless;
lastChange = "2015-11-26 07:59:06 +0000";
layers = (
{
anchors = (
{
name = bottom;
position = "{92, 0}";
},
{
name = top;
position = "{92, 450}";
}
);
layerId = "8E5E9D5F-1CFD-4F58-89B8-A9F3704C2D63";
paths = (
{
closed = 1;
nodes = (
"74 -248 LINE",
"158 -248 OFFCURVE",
"159 -173 OFFCURVE",
"159 -85 CURVE SMOOTH",
"159 451 LINE",
"70 451 LINE",
"70 -136 LINE SMOOTH",
"70 -159 OFFCURVE",
"70 -159 OFFCURVE",
"55 -159 CURVE SMOOTH",
"-3 -159 LINE",
"-3 -244 LINE"
);
}
);
width = 183;
},
{
anchors = (
{
name = bottom;
position = "{52, 0}";
},
{
name = top;
position = "{132, 450}";
}
);
layerId = "A2919505-2A95-4438-A60E-B7D4573C3483";
paths = (
{
closed = 1;
nodes = (
"-20 -248 LINE",
"64 -248 OFFCURVE",
"78 -173 OFFCURVE",
"94 -85 CURVE SMOOTH",
"189 451 LINE",
"100 451 LINE",
"-4 -136 LINE SMOOTH",
"-8 -159 OFFCURVE",
"-8 -159 OFFCURVE",
"-23 -159 CURVE SMOOTH",
"-81 -159 LINE",
"-96 -244 LINE"
);
}
);
width = 183;
},
{
anchors = (
{
name = bottom;
position = "{78, 0}";
},
{
name = top;
position = "{78, 430}";
}
);
layerId = "2009CD91-3BC4-40DB-AFF0-7394B85F3EFC";
paths = (
{
closed = 1;
nodes = (
"61 -237 LINE",
"128 -237 OFFCURVE",
"132 -173 OFFCURVE",
"132 -85 CURVE SMOOTH",
"132 440 LINE",
"70 440 LINE",
"70 -150 LINE SMOOTH",
"70 -173 OFFCURVE",
"70 -173 OFFCURVE",
"55 -173 CURVE SMOOTH",
"-3 -173 LINE",
"-3 -234 LINE"
);
}
);
width = 156;
}
);
unicode = 0237;
},
{
glyphname = k;
lastChange = "2016-01-22 10:19:25 +0000";
layers = (
{
anchors = (
{
name = bottom;
position = "{172, 0}";
},
{
name = top;
position = "{172, 450}";
}
);
layerId = "8E5E9D5F-1CFD-4F58-89B8-A9F3704C2D63";
paths = (
{
closed = 1;
nodes = (
"42 0 LINE",
"126 0 LINE",
"126 173 LINE",
"147 213 LINE",
"240 0 LINE",
"330 0 LINE",
"202 281 LINE",
"317 449 LINE",
"208 449 LINE",
"126 293 LINE",
"126 700 LINE",
"42 700 LINE"
);
}
);
width = 342;
},
{
anchors = (
{
name = bottom;
position = "{132, 0}";
},
{
name = top;
position = "{220, 500}";
}
);
layerId = "A2919505-2A95-4438-A60E-B7D4573C3483";
paths = (
{
closed = 1;
nodes = (
"-2 0 LINE",
"87 0 LINE",
"114 153 LINE",
"142 193 LINE",
"201 0 LINE",
"291 0 LINE",
"208 273 LINE",
"357 449 LINE",
"248 449 LINE",
"140 303 LINE",
"210 698 LINE",
"121 698 LINE"
);
}
);
width = 355;
},
{
anchors = (
{
name = bottom;
position = "{156, 0}";
},
{
name = top;
position = "{156, 430}";
}
);
guideLines = (
{
angle = 56;
position = "{208, 328}";
}
);
layerId = "2009CD91-3BC4-40DB-AFF0-7394B85F3EFC";
paths = (
{
closed = 1;
nodes = (
"42 0 LINE",
"101 0 LINE",
"101 169 LINE",
"135 220 LINE",
"239 0 LINE",
"296 0 LINE",
"172 274 LINE",
"279 434 LINE",
"207 434 LINE",
"101 296 LINE",
"101 700 LINE",
"42 700 LINE"
);
}
);
width = 310;
}
);
leftKerningGroup = Llike;
leftMetricsKey = l;
unicode = 006B;
},
{
glyphname = l;
lastChange = "2016-02-14 05:22:53 +0000";
layers = (
{
anchors = (
{
name = bottom;
position = "{85, 0}";
},
{
name = center;
position = "{85, 355}";
},
{
name = top;
position = "{85, 670}";
},
{
name = topright;
position = "{154, 670}";
}
);
layerId = "8E5E9D5F-1CFD-4F58-89B8-A9F3704C2D63";
paths = (
{
closed = 1;
nodes = (
"126 0 LINE",
"126 700 LINE",
"37 700 LINE",
"37 0 LINE"
);
}
);
width = 163;
},
{
anchors = (
{
name = bottom;
position = "{47, 0}";
},
{
name = center;
position = "{109, 355}";
},
{
name = top;
position = "{165, 670}";
},
{
name = topright;
position = "{234, 670}";
}
);
layerId = "A2919505-2A95-4438-A60E-B7D4573C3483";
paths = (
{
closed = 1;
nodes = (
"88 0 LINE",
"211 700 LINE",
"122 700 LINE",
"-1 0 LINE"
);
}
);
width = 179;
},
{
anchors = (
{
name = bottom;
position = "{84, 0}";
},
{
name = center;
position = "{84, 355}";
},
{
name = top;
position = "{84, 680}";
},
{
name = topright;
position = "{120, 680}";
}
);
layerId = "2009CD91-3BC4-40DB-AFF0-7394B85F3EFC";
paths = (
{
closed = 1;
nodes = (
"92 0 LINE",
"92 700 LINE",
"70 700 LINE",
"70 0 LINE"
);
}
);
width = 160;
}
);
leftKerningGroup = Llike;
leftMetricsKey = i;
rightMetricsKey = i;
unicode = 006C;
},
{
glyphname = lambdastroke;
lastChange = "2015-12-19 04:20:59 +0000";
layers = (
{
layerId = "8E5E9D5F-1CFD-4F58-89B8-A9F3704C2D63";
paths = (
{
closed = 1;
nodes = (
"127 604 OFFCURVE",
"218 459 OFFCURVE",
"227.276 371.623 CURVE",
"39 0 LINE",
"136 0 LINE",
"278.712 256.881 LINE",
"302 199 OFFCURVE",
"346 88 OFFCURVE",
"413 0 CURVE",
"509 0 LINE",
"359 220 OFFCURVE",
"285 700 OFFCURVE",
"35 700 CURVE",
"35 604 LINE"
);
},
{
closed = 1;
nodes = (
"121 413 LINE",
"363 561 LINE",
"317 634 LINE",
"75 486 LINE"
);
}
);
width = 544;
},
{
layerId = "2009CD91-3BC4-40DB-AFF0-7394B85F3EFC";
paths = (
{
closed = 1;
nodes = (
"146 619 OFFCURVE",
"236 424 OFFCURVE",
"243 348 CURVE",
"63 0 LINE",
"127 0 LINE",
"291 280 LINE",
"309 241 OFFCURVE",
"372 99 OFFCURVE",
"430 0 CURVE",
"497 0 LINE",
"369 225 OFFCURVE",
"267 682 OFFCURVE",
"50 700 CURVE",
"50 634 LINE"
);
},
{
closed = 1;
nodes = (
"131 440 LINE",
"347 572 LINE",
"317 619 LINE",
"101 487 LINE"
);
}
);
width = 600;
},
{
layerId = "A2919505-2A95-4438-A60E-B7D4573C3483";
paths = (
{
closed = 1;
nodes = (
"184 604 OFFCURVE",
"249 459 OFFCURVE",
"243 372 CURVE",
"-11 0 LINE",
"86 0 LINE",
"274 257 LINE",
"287 199 OFFCURVE",
"312 88 OFFCURVE",
"363 0 CURVE",
"459 0 LINE",
"348 220 OFFCURVE",
"358 700 OFFCURVE",
"108 700 CURVE",
"92 604 LINE"
);
},
{
closed = 1;
nodes = (
"144 413 LINE",
"412 561 LINE",
"379 634 LINE",
"111 486 LINE"
);
}
);
width = 523;
}
);
unicode = 019B;
},
{
glyphname = lslash;
lastChange = "2015-12-17 02:31:08 +0000";
layers = (
{
components = (
{
alignment = -1;
name = l;
transform = "{1, 0, 0, 1, 39, 0}";
}
);
layerId = "8E5E9D5F-1CFD-4F58-89B8-A9F3704C2D63";
paths = (
{
closed = 1;
nodes = (
"12 358 LINE",
"12 253 LINE",
"237 401 LINE",
"237 506 LINE"
);
}
);
width = 249;
},
{
components = (
{
alignment = -1;
name = l;
transform = "{1, 0, 0, 1, 49, 0}";
}
);
layerId = "A2919505-2A95-4438-A60E-B7D4573C3483";
paths = (
{
closed = 1;
nodes = (
"35 358 LINE",
"17 253 LINE",
"268 401 LINE",
"286 506 LINE"
);
}
);
width = 249;
},
{
components = (
{
alignment = -1;
name = l;
transform = "{1, 0, 0, 1, 42, 0}";
}
);
layerId = "2009CD91-3BC4-40DB-AFF0-7394B85F3EFC";
paths = (
{
closed = 1;
nodes = (
"15 338 LINE",
"15 253 LINE",
"240 401 LINE",
"240 486 LINE"
);
}
);
width = 255;
}
);
leftKerningGroup = Llike;
unicode = 0142;
},
{
glyphname = m;
lastChange = "2016-02-07 11:07:11 +0000";
layers = (
{
anchors = (
{
name = bottom;
position = "{257, 0}";
},
{
name = top;
position = "{257, 450}";
}
);
layerId = "8E5E9D5F-1CFD-4F58-89B8-A9F3704C2D63";
paths = (
{
closed = 1;
nodes = (
"126 0 LINE",
"126 346 LINE",
"136 360 OFFCURVE",
"150 367 OFFCURVE",
"164 367 CURVE SMOOTH",
"188 367 OFFCURVE",
"210 347 OFFCURVE",
"210 301 CURVE SMOOTH",
"210 0 LINE",
"299 0 LINE",
"299 346 LINE",
"309 359 OFFCURVE",
"323 367 OFFCURVE",
"339 367 CURVE SMOOTH",
"364 367 OFFCURVE",
"388 347 OFFCURVE",
"388 301 CURVE SMOOTH",
"388 0 LINE",
"477 0 LINE",
"477 297 LINE SMOOTH",
"477 388 OFFCURVE",
"446 455 OFFCURVE",
"363 455 CURVE SMOOTH",
"313 455 OFFCURVE",
"299 430 OFFCURVE",
"286 417 CURVE",
"273 441 OFFCURVE",
"233 455 OFFCURVE",
"202 455 CURVE SMOOTH",
"161 455 OFFCURVE",
"139 430 OFFCURVE",
"126 417 CURVE",
"126 450 LINE",
"37 450 LINE",
"37 0 LINE"
);
}
);
width = 514;
},
{
anchors = (
{
name = bottom;
position = "{213, 0}";
},
{
name = top;
position = "{301, 500}";
}
);
layerId = "A2919505-2A95-4438-A60E-B7D4573C3483";
paths = (
{
closed = 1;
nodes = (
"83 0 LINE",
"144 346 LINE",
"156 360 OFFCURVE",
"171 367 OFFCURVE",
"185 367 CURVE SMOOTH",
"209 367 OFFCURVE",
"238 347 OFFCURVE",
"230 301 CURVE SMOOTH",
"177 0 LINE",
"251 0 LINE",
"312 346 LINE",
"324 359 OFFCURVE",
"344 367 OFFCURVE",
"360 367 CURVE SMOOTH",
"385 367 OFFCURVE",
"406 347 OFFCURVE",
"398 301 CURVE SMOOTH",
"345 0 LINE",
"434 0 LINE",
"486 297 LINE SMOOTH",
"502 388 OFFCURVE",
"483 455 OFFCURVE",
"400 455 CURVE SMOOTH",
"350 455 OFFCURVE",
"331 430 OFFCURVE",
"316 417 CURVE",
"307 441 OFFCURVE",
"269 455 OFFCURVE",
"239 455 CURVE SMOOTH",
"198 455 OFFCURVE",
"171 430 OFFCURVE",
"156 417 CURVE",
"162 450 LINE",
"73 450 LINE",
"-6 0 LINE"
);
}
);
width = 514;
},
{
anchors = (
{
name = bottom;
position = "{243, 0}";
},
{
name = top;
position = "{243, 430}";
}
);
background = {
paths = (
{
closed = 1;
nodes = (
"92 0 LINE",
"92 355 LINE",
"112 377 OFFCURVE",
"139 410 OFFCURVE",
"200 410 CURVE SMOOTH",
"271 410 OFFCURVE",
"315 366 OFFCURVE",
"315 300 CURVE SMOOTH",
"315 0 LINE",
"337 0 LINE",
"337 300 LINE SMOOTH",
"337 398 OFFCURVE",
"275 436 OFFCURVE",
"212 436 CURVE SMOOTH",
"152 436 OFFCURVE",
"110 401 OFFCURVE",
"92 382 CURVE",
"92 430 LINE",
"70 430 LINE",
"70 0 LINE"
);
}
);
};
layerId = "2009CD91-3BC4-40DB-AFF0-7394B85F3EFC";
paths = (
{
closed = 1;
nodes = (
"91 0 LINE",
"92 355 LINE",
"105 377 OFFCURVE",
"121 410 OFFCURVE",
"152 410 CURVE SMOOTH",
"186 410 OFFCURVE",
"212 369 OFFCURVE",
"212 324 CURVE SMOOTH",
"212 0 LINE",
"234 0 LINE",
"234 359 LINE",
"244 381 OFFCURVE",
"262 410 OFFCURVE",
"294 410 CURVE SMOOTH",
"336 410 OFFCURVE",
"354 357 OFFCURVE",
"354 300 CURVE SMOOTH",
"354 0 LINE",
"376 0 LINE",
"376 300 LINE SMOOTH",
"376 409 OFFCURVE",
"335 435 OFFCURVE",
"302 435 CURVE SMOOTH",
"259 435 OFFCURVE",
"229 391 OFFCURVE",
"224 382 CURVE",
"215 404 OFFCURVE",
"196 435 OFFCURVE",
"160 435 CURVE SMOOTH",
"119 435 OFFCURVE",
"97 395 OFFCURVE",
"92 386 CURVE",
"92 430 LINE",
"70 430 LINE",
"70 0 LINE"
);
}
);
width = 446;
}
);
leftKerningGroup = noAscender;
leftMetricsKey = n;
rightMetricsKey = n;
unicode = 006D;
},
{
glyphname = n;
lastChange = "2016-02-08 05:59:05 +0000";
layers = (
{
anchors = (
{
name = bottom;
position = "{186, 0}";
},
{
name = top;
position = "{189, 450}";
}
);
layerId = "8E5E9D5F-1CFD-4F58-89B8-A9F3704C2D63";
paths = (
{
closed = 1;
nodes = (
"126 0 LINE",
"126 340 LINE",
"140 357 OFFCURVE",
"162 366 OFFCURVE",
"183 366 CURVE SMOOTH",
"215 366 OFFCURVE",
"246 346 OFFCURVE",
"246 300 CURVE SMOOTH",
"246 0 LINE",
"335 0 LINE",
"335 296 LINE SMOOTH",
"335 394 OFFCURVE",
"307 455 OFFCURVE",
"227 455 CURVE SMOOTH",
"178 455 OFFCURVE",
"145 432 OFFCURVE",
"126 417 CURVE",
"126 450 LINE",
"37 450 LINE",
"37 0 LINE"
);
}
);
width = 372;
},
{
anchors = (
{
name = bottom;
position = "{142, 0}";
},
{
name = top;
position = "{225, 450}";
}
);
layerId = "A2919505-2A95-4438-A60E-B7D4573C3483";
paths = (
{
closed = 1;
nodes = (
"83 0 LINE",
"143 340 LINE",
"160 357 OFFCURVE",
"183 366 OFFCURVE",
"204 366 CURVE SMOOTH",
"236 366 OFFCURVE",
"264 346 OFFCURVE",
"255 300 CURVE SMOOTH",
"203 0 LINE",
"292 0 LINE",
"344 296 LINE SMOOTH",
"361 394 OFFCURVE",
"344 455 OFFCURVE",
"264 455 CURVE SMOOTH",
"215 455 OFFCURVE",
"178 432 OFFCURVE",
"156 417 CURVE",
"162 450 LINE",
"73 450 LINE",
"-6 0 LINE"
);
}
);
width = 372;
},
{
anchors = (
{
name = bottom;
position = "{204, 0}";
},
{
name = top;
position = "{199, 430}";
}
);
layerId = "2009CD91-3BC4-40DB-AFF0-7394B85F3EFC";
paths = (
{
closed = 1;
nodes = (
"92 0 LINE",
"92 355 LINE",
"112 377 OFFCURVE",
"139 410 OFFCURVE",
"200 410 CURVE SMOOTH",
"271 410 OFFCURVE",
"315 366 OFFCURVE",
"315 300 CURVE SMOOTH",
"315 0 LINE",
"337 0 LINE",
"337 300 LINE SMOOTH",
"337 398 OFFCURVE",
"275 436 OFFCURVE",
"212 436 CURVE SMOOTH",
"152 436 OFFCURVE",
"110 401 OFFCURVE",
"92 382 CURVE",
"92 430 LINE",
"70 430 LINE",
"70 0 LINE"
);
}
);
width = 405;
}
);
leftKerningGroup = noAscender;
rightKerningGroup = noAscender;
unicode = 006E;
},
{
glyphname = eng;
lastChange = "2015-12-19 02:40:12 +0000";
layers = (
{
layerId = "8E5E9D5F-1CFD-4F58-89B8-A9F3704C2D63";
paths = (
{
closed = 1;
nodes = (
"126 0 LINE",
"126 340 LINE",
"140 357 OFFCURVE",
"162 366 OFFCURVE",
"183 366 CURVE SMOOTH",
"215 366 OFFCURVE",
"246 346 OFFCURVE",
"246 300 CURVE SMOOTH",
"246 -124 LINE SMOOTH",
"246 -147 OFFCURVE",
"246 -147 OFFCURVE",
"231 -147 CURVE SMOOTH",
"173 -147 LINE",
"173 -232 LINE",
"250 -236 LINE",
"334 -236 OFFCURVE",
"335 -161 OFFCURVE",
"335 -73 CURVE SMOOTH",
"335 296 LINE SMOOTH",
"335 394 OFFCURVE",
"307 455 OFFCURVE",
"227 455 CURVE SMOOTH",
"178 455 OFFCURVE",
"145 432 OFFCURVE",
"126 417 CURVE",
"126 450 LINE",
"37 450 LINE",
"37 0 LINE"
);
}
);
width = 372;
},
{
layerId = "2009CD91-3BC4-40DB-AFF0-7394B85F3EFC";
paths = (
{
closed = 1;
nodes = (
"92 0 LINE",
"92 312 LINE",
"101 339 OFFCURVE",
"126 361 OFFCURVE",
"160 361 CURVE SMOOTH",
"205 361 OFFCURVE",
"235 341 OFFCURVE",
"235 295 CURVE SMOOTH",
"235 -161 LINE SMOOTH",
"235 -184 OFFCURVE",
"235 -184 OFFCURVE",
"220 -184 CURVE SMOOTH",
"162 -184 LINE",
"162 -245 LINE",
"226 -248 LINE",
"293 -248 OFFCURVE",
"297 -184 OFFCURVE",
"297 -96 CURVE SMOOTH",
"297 276 LINE SMOOTH",
"297 374 OFFCURVE",
"265 433 OFFCURVE",
"188 433 CURVE SMOOTH",
"142 433 OFFCURVE",
"110 412 OFFCURVE",
"92 397 CURVE",
"92 430 LINE",
"30 430 LINE",
"30 0 LINE"
);
}
);
width = 327;
},
{
layerId = "A2919505-2A95-4438-A60E-B7D4573C3483";
paths = (
{
closed = 1;
nodes = (
"83 0 LINE",
"143 340 LINE",
"160 357 OFFCURVE",
"184 366 OFFCURVE",
"205 366 CURVE SMOOTH",
"237 366 OFFCURVE",
"264 346 OFFCURVE",
"256 300 CURVE SMOOTH",
"181 -124 LINE SMOOTH",
"177 -147 OFFCURVE",
"177 -147 OFFCURVE",
"162 -147 CURVE SMOOTH",
"104 -147 LINE",
"89 -232 LINE",
"165 -236 LINE",
"249 -236 OFFCURVE",
"264 -161 OFFCURVE",
"279 -73 CURVE SMOOTH",
"344 296 LINE SMOOTH",
"361 394 OFFCURVE",
"344 455 OFFCURVE",
"264 455 CURVE SMOOTH",
"215 455 OFFCURVE",
"178 432 OFFCURVE",
"157 417 CURVE",
"162 450 LINE",
"73 450 LINE",
"-6 0 LINE"
);
}
);
width = 372;
}
);
leftMetricsKey = n;
rightMetricsKey = n;
unicode = 014B;
},
{
glyphname = o;
lastChange = "2016-02-05 00:58:43 +0000";
layers = (
{
anchors = (
{
name = bottom;
position = "{186, 0}";
},
{
name = center;
position = "{186, 225}";
},
{
name = ogonek;
position = "{333, 10}";
},
{
name = top;
position = "{182, 435}";
},
{
name = topright;
position = "{300, 342}";
}
);
layerId = "8E5E9D5F-1CFD-4F58-89B8-A9F3704C2D63";
paths = (
{
closed = 1;
nodes = (
"337 -9 OFFCURVE",
"352 98 OFFCURVE",
"352 226 CURVE SMOOTH",
"352 354 OFFCURVE",
"337 455 OFFCURVE",
"186 455 CURVE SMOOTH",
"35 455 OFFCURVE",
"20 354 OFFCURVE",
"20 226 CURVE SMOOTH",
"20 98 OFFCURVE",
"35 -9 OFFCURVE",
"186 -9 CURVE SMOOTH"
);
},
{
closed = 1;
nodes = (
"110 72 OFFCURVE",
"109 98 OFFCURVE",
"109 220 CURVE SMOOTH",
"109 342 OFFCURVE",
"110 371 OFFCURVE",
"186 371 CURVE SMOOTH",
"262 371 OFFCURVE",
"263 342 OFFCURVE",
"263 220 CURVE SMOOTH",
"263 98 OFFCURVE",
"262 72 OFFCURVE",
"186 72 CURVE SMOOTH"
);
}
);
width = 372;
},
{
anchors = (
{
name = bottom;
position = "{140, 0}";
},
{
name = center;
position = "{184, 250}";
},
{
name = ogonek;
position = "{287, 10}";
},
{
name = top;
position = "{213, 435}";
},
{
name = topright;
position = "{331, 272}";
}
);
layerId = "A2919505-2A95-4438-A60E-B7D4573C3483";
paths = (
{
closed = 1;
nodes = (
"290 -9 OFFCURVE",
"324 98 OFFCURVE",
"346 226 CURVE SMOOTH",
"369 354 OFFCURVE",
"372 455 OFFCURVE",
"221 455 CURVE SMOOTH",
"70 455 OFFCURVE",
"37 354 OFFCURVE",
"14 226 CURVE SMOOTH",
"-8 98 OFFCURVE",
"-12 -9 OFFCURVE",
"139 -9 CURVE SMOOTH"
);
},
{
closed = 1;
nodes = (
"77 72 OFFCURVE",
"81 98 OFFCURVE",
"102 220 CURVE SMOOTH",
"124 342 OFFCURVE",
"130 371 OFFCURVE",
"206 371 CURVE SMOOTH",
"282 371 OFFCURVE",
"278 342 OFFCURVE",
"256 220 CURVE SMOOTH",
"235 98 OFFCURVE",
"229 72 OFFCURVE",
"153 72 CURVE SMOOTH"
);
}
);
width = 368;
},
{
anchors = (
{
name = bottom;
position = "{191, -3}";
},
{
name = center;
position = "{191, 215}";
},
{
name = ogonek;
position = "{338, 0}";
},
{
name = top;
position = "{191, 433}";
},
{
name = topright;
position = "{286, 323}";
}
);
layerId = "2009CD91-3BC4-40DB-AFF0-7394B85F3EFC";
paths = (
{
closed = 1;
nodes = (
"323 -4 OFFCURVE",
"337 98 OFFCURVE",
"337 215 CURVE SMOOTH",
"337 332 OFFCURVE",
"323 433 OFFCURVE",
"191 433 CURVE SMOOTH",
"59 433 OFFCURVE",
"45 332 OFFCURVE",
"45 215 CURVE SMOOTH",
"45 98 OFFCURVE",
"59 -4 OFFCURVE",
"191 -4 CURVE SMOOTH"
);
},
{
closed = 1;
nodes = (
"94 15 OFFCURVE",
"67 68 OFFCURVE",
"67 211 CURVE SMOOTH",
"67 353 OFFCURVE",
"94 411 OFFCURVE",
"191 411 CURVE SMOOTH",
"288 411 OFFCURVE",
"315 353 OFFCURVE",
"315 211 CURVE SMOOTH",
"315 68 OFFCURVE",
"288 15 OFFCURVE",
"191 15 CURVE SMOOTH"
);
}
);
width = 382;
}
);
leftKerningGroup = o;
rightKerningGroup = o;
unicode = 006F;
},
{
glyphname = oe;
lastChange = "2016-01-22 10:19:25 +0000";
layers = (
{
layerId = "8E5E9D5F-1CFD-4F58-89B8-A9F3704C2D63";
paths = (
{
closed = 1;
nodes = (
"20 98 OFFCURVE",
"35 -9 OFFCURVE",
"186 -9 CURVE SMOOTH",
"244 -9 OFFCURVE",
"282 7 OFFCURVE",
"307 33 CURVE",
"329 7 OFFCURVE",
"363 -9 OFFCURVE",
"413 -9 CURVE SMOOTH",
"450 -9 OFFCURVE",
"515 0 OFFCURVE",
"540 28 CURVE",
"540 112 LINE SMOOTH",
"540 118 OFFCURVE",
"532 118 OFFCURVE",
"530 114 CURVE",
"493 84 OFFCURVE",
"444 76 OFFCURVE",
"414 78 CURVE SMOOTH",
"361 82 OFFCURVE",
"352 117 OFFCURVE",
"352 195 CURVE",
"552 195 LINE SMOOTH",
"556 195 OFFCURVE",
"560 197 OFFCURVE",
"560 200 CURVE SMOOTH",
"560 387 OFFCURVE",
"532 453 OFFCURVE",
"413 453 CURVE SMOOTH",
"360 453 OFFCURVE",
"326 440 OFFCURVE",
"303 418 CURVE",
"278 441 OFFCURVE",
"241 455 OFFCURVE",
"186 455 CURVE SMOOTH",
"35 455 OFFCURVE",
"20 354 OFFCURVE",
"20 226 CURVE SMOOTH"
);
},
{
closed = 1;
nodes = (
"109 342 OFFCURVE",
"110 371 OFFCURVE",
"186 371 CURVE SMOOTH",
"265 371 OFFCURVE",
"262 334 OFFCURVE",
"262 225 CURVE SMOOTH",
"262 109 OFFCURVE",
"269 72 OFFCURVE",
"186 72 CURVE SMOOTH",
"110 72 OFFCURVE",
"109 98 OFFCURVE",
"109 220 CURVE SMOOTH"
);
},
{
closed = 1;
nodes = (
"353 338 OFFCURVE",
"354 369 OFFCURVE",
"413 369 CURVE SMOOTH",
"472 369 OFFCURVE",
"477 338 OFFCURVE",
"478 270 CURVE",
"352 270 LINE"
);
}
);
width = 580;
},
{
layerId = "A2919505-2A95-4438-A60E-B7D4573C3483";
paths = (
{
closed = 1;
nodes = (
"-9 98 OFFCURVE",
"-13 -9 OFFCURVE",
"138 -9 CURVE SMOOTH",
"196 -9 OFFCURVE",
"237 7 OFFCURVE",
"267 33 CURVE",
"284 7 OFFCURVE",
"315 -9 OFFCURVE",
"365 -9 CURVE SMOOTH",
"402 -9 OFFCURVE",
"469 0 OFFCURVE",
"499 28 CURVE",
"514 112 LINE SMOOTH",
"515 118 OFFCURVE",
"507 118 OFFCURVE",
"504 114 CURVE",
"462 84 OFFCURVE",
"411 76 OFFCURVE",
"382 78 CURVE SMOOTH",
"329 82 OFFCURVE",
"327 117 OFFCURVE",
"340 195 CURVE",
"540 195 LINE SMOOTH",
"544 195 OFFCURVE",
"549 197 OFFCURVE",
"549 200 CURVE SMOOTH",
"582 387 OFFCURVE",
"566 453 OFFCURVE",
"447 453 CURVE SMOOTH",
"394 453 OFFCURVE",
"358 440 OFFCURVE",
"331 418 CURVE",
"310 441 OFFCURVE",
"275 455 OFFCURVE",
"220 455 CURVE SMOOTH",
"69 455 OFFCURVE",
"36 354 OFFCURVE",
"14 226 CURVE SMOOTH"
);
},
{
closed = 1;
nodes = (
"123 342 OFFCURVE",
"129 371 OFFCURVE",
"205 371 CURVE SMOOTH",
"287 371 OFFCURVE",
"274 332 OFFCURVE",
"256 225 CURVE SMOOTH",
"232 113 OFFCURVE",
"241 72 OFFCURVE",
"153 72 CURVE SMOOTH",
"77 72 OFFCURVE",
"80 98 OFFCURVE",
"102 220 CURVE SMOOTH"
);
},
{
closed = 1;
nodes = (
"367 338 OFFCURVE",
"373 369 OFFCURVE",
"432 369 CURVE SMOOTH",
"491 369 OFFCURVE",
"491 338 OFFCURVE",
"480 270 CURVE",
"354 270 LINE"
);
}
);
width = 575;
},
{
layerId = "2009CD91-3BC4-40DB-AFF0-7394B85F3EFC";
paths = (
{
closed = 1;
nodes = (
"17 98 OFFCURVE",
"31 -4 OFFCURVE",
"163 -4 CURVE SMOOTH",
"221 -4 OFFCURVE",
"256 16 OFFCURVE",
"277 47 CURVE",
"299 11 OFFCURVE",
"333 -3 OFFCURVE",
"382 -3 CURVE SMOOTH",
"429 -3 OFFCURVE",
"471 9 OFFCURVE",
"492 28 CURVE",
"492 85 LINE SMOOTH",
"492 90 OFFCURVE",
"484 94 OFFCURVE",
"480 88 CURVE",
"450 67 OFFCURVE",
"415 55 OFFCURVE",
"383 58 CURVE SMOOTH",
"347 61 OFFCURVE",
"311 84 OFFCURVE",
"311 189 CURVE",
"501 189 LINE SMOOTH",
"503 189 OFFCURVE",
"509 189 OFFCURVE",
"509 194 CURVE SMOOTH",
"509 385 OFFCURVE",
"482 439 OFFCURVE",
"380 439 CURVE SMOOTH",
"322 439 OFFCURVE",
"289 421 OFFCURVE",
"271 391 CURVE",
"249 417 OFFCURVE",
"215 433 OFFCURVE",
"163 433 CURVE SMOOTH",
"31 433 OFFCURVE",
"17 332 OFFCURVE",
"17 215 CURVE SMOOTH"
);
},
{
closed = 1;
nodes = (
"79 323 OFFCURVE",
"87 370 OFFCURVE",
"163 370 CURVE SMOOTH",
"239 370 OFFCURVE",
"247 323 OFFCURVE",
"247 211 CURVE SMOOTH",
"247 99 OFFCURVE",
"239 55 OFFCURVE",
"163 55 CURVE SMOOTH",
"87 55 OFFCURVE",
"79 99 OFFCURVE",
"79 211 CURVE SMOOTH"
);
},
{
closed = 1;
nodes = (
"312 328 OFFCURVE",
"313 377 OFFCURVE",
"380 377 CURVE SMOOTH",
"449 377 OFFCURVE",
"453 329 OFFCURVE",
"453 244 CURVE",
"311 244 LINE"
);
}
);
width = 526;
}
);
leftMetricsKey = o;
rightMetricsKey = e;
unicode = 0153;
},
{
glyphname = p;
lastChange = "2016-02-05 01:13:01 +0000";
layers = (
{
anchors = (
{
name = bottom;
position = "{176, 0}";
},
{
name = top;
position = "{176, 450}";
}
);
layerId = "8E5E9D5F-1CFD-4F58-89B8-A9F3704C2D63";
paths = (
{
closed = 1;
nodes = (
"126 -253 LINE",
"126 15 LINE",
"153 2 OFFCURVE",
"187 -1 OFFCURVE",
"212 -1 CURVE SMOOTH",
"314 -1 OFFCURVE",
"333 47 OFFCURVE",
"333 182 CURVE",
"333 280 LINE",
"333 394 OFFCURVE",
"305 455 OFFCURVE",
"222 455 CURVE SMOOTH",
"195 455 OFFCURVE",
"163 449 OFFCURVE",
"126 437 CURVE",
"126 450 LINE",
"37 450 LINE",
"37 -253 LINE"
);
},
{
closed = 1;
nodes = (
"126 339 LINE",
"131 355 OFFCURVE",
"139 363 OFFCURVE",
"186 363 CURVE SMOOTH",
"236 363 OFFCURVE",
"243 354 OFFCURVE",
"243 229 CURVE SMOOTH",
"243 129 LINE SMOOTH",
"243 85 OFFCURVE",
"222 81 OFFCURVE",
"183 81 CURVE SMOOTH",
"138 81 OFFCURVE",
"136 85 OFFCURVE",
"126 99 CURVE"
);
}
);
width = 353;
},
{
anchors = (
{
name = bottom;
position = "{132, 0}";
},
{
name = top;
position = "{220, 500}";
}
);
layerId = "A2919505-2A95-4438-A60E-B7D4573C3483";
paths = (
{
closed = 1;
nodes = (
"38 -253 LINE",
"85 15 LINE",
"110 2 OFFCURVE",
"143 -1 OFFCURVE",
"168 -1 CURVE SMOOTH",
"270 -1 OFFCURVE",
"298 47 OFFCURVE",
"322 182 CURVE",
"339 280 LINE",
"359 394 OFFCURVE",
"341 453 OFFCURVE",
"258 453 CURVE SMOOTH",
"229 453 OFFCURVE",
"197 447 OFFCURVE",
"159 437 CURVE",
"162 451 LINE",
"73 451 LINE",
"-51 -253 LINE"
);
},
{
closed = 1;
nodes = (
"142 339 LINE",
"150 355 OFFCURVE",
"160 363 OFFCURVE",
"207 363 CURVE SMOOTH",
"257 363 OFFCURVE",
"262 354 OFFCURVE",
"240 229 CURVE SMOOTH",
"222 129 LINE SMOOTH",
"215 85 OFFCURVE",
"193 81 OFFCURVE",
"154 81 CURVE SMOOTH",
"109 81 OFFCURVE",
"108 85 OFFCURVE",
"100 99 CURVE"
);
}
);
width = 352;
},
{
anchors = (
{
name = bottom;
position = "{193, 0}";
},
{
name = top;
position = "{193, 430}";
}
);
layerId = "2009CD91-3BC4-40DB-AFF0-7394B85F3EFC";
paths = (
{
closed = 1;
nodes = (
"132 -253 LINE",
"132 23 LINE",
"153 7 OFFCURVE",
"188 -1 OFFCURVE",
"228 -1 CURVE SMOOTH",
"309 -1 OFFCURVE",
"327 33 OFFCURVE",
"327 172 CURVE SMOOTH",
"327 250 LINE SMOOTH",
"327 366 OFFCURVE",
"322 431 OFFCURVE",
"238 431 CURVE SMOOTH",
"214 431 OFFCURVE",
"170 426 OFFCURVE",
"132 417 CURVE",
"132 431 LINE",
"70 431 LINE",
"70 -253 LINE"
);
},
{
closed = 1;
nodes = (
"132 340 LINE",
"139 366 OFFCURVE",
"156 373 OFFCURVE",
"202 373 CURVE SMOOTH",
"257 373 OFFCURVE",
"264 355 OFFCURVE",
"264 219 CURVE SMOOTH",
"264 123 LINE SMOOTH",
"264 71 OFFCURVE",
"239 65 OFFCURVE",
"199 65 CURVE SMOOTH",
"155 65 OFFCURVE",
"147 68 OFFCURVE",
"132 90 CURVE"
);
}
);
width = 372;
}
);
leftKerningGroup = noAscender;
leftMetricsKey = n;
rightKerningGroup = noAscender;
rightMetricsKey = o;
unicode = 0070;
},
{
glyphname = thorn;
lastChange = "2016-01-22 10:19:23 +0000";
layers = (
{
anchors = (
{
name = bottom;
position = "{176, 0}";
},
{
name = top;
position = "{176, 450}";
}
);
layerId = "8E5E9D5F-1CFD-4F58-89B8-A9F3704C2D63";
paths = (
{
closed = 1;
nodes = (
"127 -253 LINE",
"127 14 LINE",
"139 9 OFFCURVE",
"150 6 OFFCURVE",
"161 4 CURVE SMOOTH",
"180 0 OFFCURVE",
"198 -1 OFFCURVE",
"213 -1 CURVE SMOOTH",
"315 -1 OFFCURVE",
"334 47 OFFCURVE",
"334 182 CURVE SMOOTH",
"334 280 LINE SMOOTH",
"334 391 OFFCURVE",
"308 450 OFFCURVE",
"230 453 CURVE",
"220 455 OFFCURVE",
"210 456 OFFCURVE",
"198 456 CURVE SMOOTH",
"176 456 OFFCURVE",
"153 452 OFFCURVE",
"127 438 CURVE",
"127 700 LINE",
"37 700 LINE",
"37 -253 LINE"
);
},
{
closed = 1;
nodes = (
"127 339 LINE",
"132 355 OFFCURVE",
"140 363 OFFCURVE",
"186 363 CURVE SMOOTH",
"236 363 OFFCURVE",
"243 354 OFFCURVE",
"243 229 CURVE SMOOTH",
"243 129 LINE SMOOTH",
"243 85 OFFCURVE",
"222 81 OFFCURVE",
"183 81 CURVE SMOOTH",
"139 81 OFFCURVE",
"137 85 OFFCURVE",
"127 99 CURVE"
);
}
);
width = 354;
},
{
anchors = (
{
name = bottom;
position = "{135, 0}";
},
{
name = top;
position = "{215, 450}";
}
);
layerId = "A2919505-2A95-4438-A60E-B7D4573C3483";
paths = (
{
closed = 1;
nodes = (
"39 -253 LINE",
"86 14 LINE",
"97 9 OFFCURVE",
"108 6 OFFCURVE",
"119 4 CURVE SMOOTH",
"137 0 OFFCURVE",
"155 -1 OFFCURVE",
"170 -1 CURVE SMOOTH",
"272 -1 OFFCURVE",
"299 47 OFFCURVE",
"323 182 CURVE SMOOTH",
"340 280 LINE SMOOTH",
"360 391 OFFCURVE",
"344 450 OFFCURVE",
"267 453 CURVE",
"257 455 OFFCURVE",
"247 456 OFFCURVE",
"235 456 CURVE SMOOTH",
"205 456 OFFCURVE",
"182 449 OFFCURVE",
"165 439 CURVE",
"206 700 LINE",
"117 700 LINE",
"-50 -253 LINE"
);
},
{
closed = 1;
nodes = (
"144 339 LINE",
"152 355 OFFCURVE",
"161 363 OFFCURVE",
"207 363 CURVE SMOOTH",
"257 363 OFFCURVE",
"262 354 OFFCURVE",
"240 229 CURVE SMOOTH",
"223 129 LINE SMOOTH",
"215 85 OFFCURVE",
"193 81 OFFCURVE",
"155 81 CURVE SMOOTH",
"110 81 OFFCURVE",
"109 85 OFFCURVE",
"101 99 CURVE"
);
}
);
width = 353;
},
{
anchors = (
{
name = bottom;
position = "{153, 0}";
},
{
name = top;
position = "{153, 430}";
}
);
layerId = "2009CD91-3BC4-40DB-AFF0-7394B85F3EFC";
paths = (
{
closed = 1;
nodes = (
"89 -252 LINE",
"89 14 LINE",
"99 10 OFFCURVE",
"130 7 OFFCURVE",
"141 5 CURVE SMOOTH",
"155 2 OFFCURVE",
"171 0 OFFCURVE",
"190 0 CURVE SMOOTH",
"276 0 OFFCURVE",
"296 31 OFFCURVE",
"296 168 CURVE SMOOTH",
"296 266 LINE SMOOTH",
"296 379 OFFCURVE",
"270 422 OFFCURVE",
"205 424 CURVE",
"195 426 OFFCURVE",
"186 427 OFFCURVE",
"175 427 CURVE SMOOTH",
"142 427 OFFCURVE",
"116 417 OFFCURVE",
"88 397 CURVE",
"88 671 LINE",
"30 671 LINE",
"30 -252 LINE"
);
},
{
closed = 1;
nodes = (
"89 327 LINE",
"97 355 OFFCURVE",
"116 364 OFFCURVE",
"163 364 CURVE SMOOTH",
"226 364 OFFCURVE",
"235 343 OFFCURVE",
"235 215 CURVE SMOOTH",
"235 115 LINE SMOOTH",
"235 67 OFFCURVE",
"215 52 OFFCURVE",
"160 52 CURVE SMOOTH",
"115 52 OFFCURVE",
"106 55 OFFCURVE",
"89 80 CURVE"
);
}
);
width = 313;
}
);
leftMetricsKey = b;
rightMetricsKey = p;
unicode = 00FE;
},
{
glyphname = q;
lastChange = "2016-02-05 01:13:01 +0000";
layers = (
{
anchors = (
{
name = bottom;
position = "{177, 0}";
},
{
name = top;
position = "{177, 450}";
}
);
layerId = "8E5E9D5F-1CFD-4F58-89B8-A9F3704C2D63";
paths = (
{
closed = 1;
nodes = (
"315 -253 LINE",
"315 451 LINE",
"226 451 LINE",
"226 437 LINE",
"194 446 OFFCURVE",
"159 453 OFFCURVE",
"130 453 CURVE SMOOTH",
"47 453 OFFCURVE",
"20 394 OFFCURVE",
"20 280 CURVE SMOOTH",
"20 85 OFFCURVE",
"20 -1 OFFCURVE",
"154 -1 CURVE SMOOTH",
"181 -1 OFFCURVE",
"212 5 OFFCURVE",
"226 19 CURVE",
"226 -253 LINE"
);
},
{
closed = 1;
nodes = (
"118 91 OFFCURVE",
"102 100 OFFCURVE",
"102 224 CURVE SMOOTH",
"102 323 LINE SMOOTH",
"102 369 OFFCURVE",
"106 373 OFFCURVE",
"169 370 CURVE SMOOTH",
"205 368 OFFCURVE",
"218 366 OFFCURVE",
"229 352 CURVE",
"229 115 LINE",
"220 97 OFFCURVE",
"205 91 OFFCURVE",
"166 91 CURVE SMOOTH"
);
}
);
width = 352;
},
{
anchors = (
{
name = bottom;
position = "{131, 0}";
},
{
name = top;
position = "{219, 500}";
}
);
layerId = "A2919505-2A95-4438-A60E-B7D4573C3483";
paths = (
{
closed = 1;
nodes = (
"225 -253 LINE",
"349 451 LINE",
"263 451 LINE",
"259 437 LINE",
"227 446 OFFCURVE",
"196 453 OFFCURVE",
"164 453 CURVE SMOOTH",
"81 453 OFFCURVE",
"44 394 OFFCURVE",
"24 280 CURVE SMOOTH",
"-10 85 OFFCURVE",
"-26 -1 OFFCURVE",
"108 -1 CURVE SMOOTH",
"139 -1 OFFCURVE",
"172 8 OFFCURVE",
"190 19 CURVE",
"136 -253 LINE"
);
},
{
closed = 1;
nodes = (
"89 91 OFFCURVE",
"74 100 OFFCURVE",
"96 224 CURVE SMOOTH",
"114 323 LINE SMOOTH",
"122 369 OFFCURVE",
"126 373 OFFCURVE",
"189 370 CURVE SMOOTH",
"228 368 OFFCURVE",
"238 365 OFFCURVE",
"246 352 CURVE",
"204 115 LINE",
"192 97 OFFCURVE",
"176 91 OFFCURVE",
"137 91 CURVE SMOOTH"
);
}
);
width = 349;
},
{
anchors = (
{
name = bottom;
position = "{187, 0}";
},
{
name = top;
position = "{187, 430}";
}
);
layerId = "2009CD91-3BC4-40DB-AFF0-7394B85F3EFC";
paths = (
{
closed = 1;
nodes = (
"313 -253 LINE",
"313 431 LINE",
"251 431 LINE",
"251 414 LINE",
"214 424 OFFCURVE",
"177 433 OFFCURVE",
"145 433 CURVE SMOOTH",
"74 433 OFFCURVE",
"45 388 OFFCURVE",
"45 270 CURVE SMOOTH",
"45 75 OFFCURVE",
"45 -1 OFFCURVE",
"169 -1 CURVE SMOOTH",
"198 -1 OFFCURVE",
"241 6 OFFCURVE",
"251 16 CURVE",
"251 -253 LINE"
);
},
{
closed = 1;
nodes = (
"118 71 OFFCURVE",
"106 97 OFFCURVE",
"106 214 CURVE SMOOTH",
"106 313 LINE SMOOTH",
"106 366 OFFCURVE",
"116 373 OFFCURVE",
"183 370 CURVE SMOOTH",
"228 368 OFFCURVE",
"240 363 OFFCURVE",
"253 345 CURVE",
"253 103 LINE",
"242 79 OFFCURVE",
"223 71 OFFCURVE",
"180 71 CURVE SMOOTH"
);
}
);
width = 383;
}
);
leftMetricsKey = o;
rightMetricsKey = n;
unicode = 0071;
},
{
glyphname = r;
lastChange = "2016-02-05 01:13:01 +0000";
layers = (
{
anchors = (
{
name = bottom;
position = "{79, 0}";
},
{
name = top;
position = "{139, 450}";
}
);
layerId = "8E5E9D5F-1CFD-4F58-89B8-A9F3704C2D63";
paths = (
{
closed = 1;
nodes = (
"126 0 LINE",
"126 278 LINE",
"126 320 OFFCURVE",
"167 352 OFFCURVE",
"257 352 CURVE",
"257 435 LINE",
"257 446 OFFCURVE",
"232 455 OFFCURVE",
"214 455 CURVE SMOOTH",
"173 455 OFFCURVE",
"126 409 OFFCURVE",
"126 385 CURVE",
"126 450 LINE",
"37 450 LINE",
"37 0 LINE"
);
}
);
width = 269;
},
{
anchors = (
{
name = bottom;
position = "{40, 0}";
},
{
name = top;
position = "{175, 450}";
}
);
layerId = "A2919505-2A95-4438-A60E-B7D4573C3483";
paths = (
{
closed = 1;
nodes = (
"83 0 LINE",
"137 310 LINE",
"163 363 OFFCURVE",
"262 385 OFFCURVE",
"280 341 CURVE",
"293 416 LINE",
"292 442 OFFCURVE",
"264 453 OFFCURVE",
"238 453 CURVE SMOOTH",
"191 453 OFFCURVE",
"169 417 OFFCURVE",
"152 395 CURVE",
"162 450 LINE",
"73 450 LINE",
"-6 0 LINE"
);
}
);
width = 278;
},
{
anchors = (
{
name = bottom;
position = "{100, 0}";
},
{
name = top;
position = "{166, 430}";
}
);
layerId = "2009CD91-3BC4-40DB-AFF0-7394B85F3EFC";
paths = (
{
closed = 1;
nodes = (
"132 0 LINE",
"132 287 LINE SMOOTH",
"132 338 OFFCURVE",
"164 367 OFFCURVE",
"253 361 CURVE",
"253 418 LINE",
"253 429 OFFCURVE",
"229 437 OFFCURVE",
"210 437 CURVE SMOOTH",
"175 437 OFFCURVE",
"132 395 OFFCURVE",
"132 371 CURVE",
"132 430 LINE",
"70 430 LINE",
"70 0 LINE"
);
}
);
width = 261;
}
);
leftKerningGroup = noAscender;
leftMetricsKey = n;
unicode = 0072;
},
{
glyphname = s;
lastChange = "2016-02-08 06:14:53 +0000";
layers = (
{
anchors = (
{
name = bottom;
position = "{110, 0}";
},
{
name = top;
position = "{135, 450}";
}
);
layerId = "8E5E9D5F-1CFD-4F58-89B8-A9F3704C2D63";
paths = (
{
closed = 1;
nodes = (
"197 -5 OFFCURVE",
"244 19 OFFCURVE",
"244 123 CURVE SMOOTH",
"244 298 OFFCURVE",
"106 223 OFFCURVE",
"106 319 CURVE SMOOTH",
"106 351 OFFCURVE",
"136 359 OFFCURVE",
"163 361 CURVE SMOOTH",
"185 363 OFFCURVE",
"216 362 OFFCURVE",
"244 361 CURVE",
"244 445 LINE",
"177 453 LINE",
"170 454 OFFCURVE",
"163 454 OFFCURVE",
"156 454 CURVE SMOOTH",
"65 454 OFFCURVE",
"29 413 OFFCURVE",
"29 323 CURVE SMOOTH",
"29 148 OFFCURVE",
"166 210 OFFCURVE",
"166 123 CURVE SMOOTH",
"166 91 OFFCURVE",
"147 81 OFFCURVE",
"120 81 CURVE SMOOTH",
"111 81 OFFCURVE",
"101 82 OFFCURVE",
"89 83 CURVE",
"25 91 LINE",
"25 7 LINE",
"94 -4 LINE"
);
}
);
width = 269;
},
{
anchors = (
{
name = bottom;
position = "{73, 0}";
},
{
name = top;
position = "{171, 450}";
}
);
layerId = "A2919505-2A95-4438-A60E-B7D4573C3483";
paths = (
{
closed = 1;
nodes = (
"153 -2 OFFCURVE",
"207 35 OFFCURVE",
"222 123 CURVE SMOOTH",
"249 277 OFFCURVE",
"102 223 OFFCURVE",
"119 319 CURVE SMOOTH",
"123 340 OFFCURVE",
"132 356 OFFCURVE",
"183 361 CURVE SMOOTH",
"207 363 OFFCURVE",
"239 363 OFFCURVE",
"264 361 CURVE",
"279 445 LINE",
"213 450 LINE",
"206 451 OFFCURVE",
"199 451 OFFCURVE",
"192 451 CURVE SMOOTH",
"101 451 OFFCURVE",
"57 406 OFFCURVE",
"43 323 CURVE SMOOTH",
"15 168 OFFCURVE",
"160 210 OFFCURVE",
"144 123 CURVE SMOOTH",
"139 91 OFFCURVE",
"118 81 OFFCURVE",
"91 81 CURVE SMOOTH",
"82 81 OFFCURVE",
"72 82 OFFCURVE",
"60 83 CURVE",
"-2 91 LINE",
"-17 7 LINE",
"50 -1 LINE"
);
}
);
width = 269;
},
{
anchors = (
{
name = bottom;
position = "{115, 3}";
},
{
name = top;
position = "{120, 359}";
}
);
layerId = "2009CD91-3BC4-40DB-AFF0-7394B85F3EFC";
paths = (
{
closed = 1;
nodes = (
"177 -4 OFFCURVE",
"207 4 OFFCURVE",
"207 94 CURVE SMOOTH",
"207 285 OFFCURVE",
"54 171 OFFCURVE",
"54 343 CURVE SMOOTH",
"54 392 OFFCURVE",
"67 411 OFFCURVE",
"149 411 CURVE SMOOTH",
"168 411 OFFCURVE",
"182 411 OFFCURVE",
"202 410 CURVE",
"201 430 LINE",
"166 435 LINE SMOOTH",
"161 436 OFFCURVE",
"157 436 OFFCURVE",
"155 436 CURVE SMOOTH",
"77 436 OFFCURVE",
"33 423 OFFCURVE",
"33 329 CURVE SMOOTH",
"33 154 OFFCURVE",
"186 265 OFFCURVE",
"186 79 CURVE SMOOTH",
"186 30 OFFCURVE",
"170 15 OFFCURVE",
"102 15 CURVE SMOOTH",
"96 15 OFFCURVE",
"89 15 OFFCURVE",
"76 15 CURVE",
"38 18 LINE",
"38 0 LINE",
"76 -4 LINE"
);
}
);
width = 239;
}
);
leftKerningGroup = noAscender;
unicode = 0073;
},
{
glyphname = germandbls;
lastChange = "2015-11-24 05:58:49 +0000";
layers = (
{
layerId = "8E5E9D5F-1CFD-4F58-89B8-A9F3704C2D63";
paths = (
{
closed = 1;
nodes = (
"117 0 LINE",
"117 525 LINE SMOOTH",
"117 603 OFFCURVE",
"147 621 OFFCURVE",
"183 621 CURVE",
"240 621 OFFCURVE",
"259 596 OFFCURVE",
"259 533 CURVE SMOOTH",
"259 491 OFFCURVE",
"251 439 OFFCURVE",
"151 439 CURVE",
"151 344 LINE",
"259 344 OFFCURVE",
"259 334 OFFCURVE",
"259 207 CURVE SMOOTH",
"259 129 OFFCURVE",
"253 102 OFFCURVE",
"183 102 CURVE SMOOTH",
"169 102 OFFCURVE",
"159 113 OFFCURVE",
"151 115 CURVE",
"151 11 LINE",
"159 10 OFFCURVE",
"170 0 OFFCURVE",
"181 0 CURVE SMOOTH",
"273 0 OFFCURVE",
"348 5 OFFCURVE",
"348 211 CURVE SMOOTH",
"348 286 OFFCURVE",
"321 387 OFFCURVE",
"270 387 CURVE",
"321 387 OFFCURVE",
"348 473 OFFCURVE",
"348 533 CURVE SMOOTH",
"348 637 OFFCURVE",
"307 708 OFFCURVE",
"200 708 CURVE SMOOTH",
"39 708 OFFCURVE",
"28 605 OFFCURVE",
"28 481 CURVE SMOOTH",
"28 0 LINE"
);
}
);
width = 376;
},
{
layerId = "A2919505-2A95-4438-A60E-B7D4573C3483";
paths = (
{
closed = 1;
nodes = (
"67 0 LINE",
"160 525 LINE SMOOTH",
"173 603 OFFCURVE",
"206 621 OFFCURVE",
"242 621 CURVE",
"299 621 OFFCURVE",
"314 596 OFFCURVE",
"303 533 CURVE SMOOTH",
"296 491 OFFCURVE",
"278 439 OFFCURVE",
"178 439 CURVE",
"162 344 LINE",
"270 344 OFFCURVE",
"268 334 OFFCURVE",
"245 207 CURVE SMOOTH",
"232 129 OFFCURVE",
"221 102 OFFCURVE",
"151 102 CURVE SMOOTH",
"137 102 OFFCURVE",
"129 113 OFFCURVE",
"121 115 CURVE",
"103 11 LINE",
"111 10 OFFCURVE",
"120 0 OFFCURVE",
"131 0 CURVE SMOOTH",
"223 0 OFFCURVE",
"299 5 OFFCURVE",
"335 211 CURVE SMOOTH",
"348 286 OFFCURVE",
"339 387 OFFCURVE",
"288 387 CURVE",
"339 387 OFFCURVE",
"381 473 OFFCURVE",
"392 533 CURVE SMOOTH",
"410 637 OFFCURVE",
"382 708 OFFCURVE",
"275 708 CURVE SMOOTH",
"114 708 OFFCURVE",
"85 605 OFFCURVE",
"63 481 CURVE SMOOTH",
"-22 0 LINE"
);
}
);
width = 376;
},
{
layerId = "2009CD91-3BC4-40DB-AFF0-7394B85F3EFC";
paths = (
{
closed = 1;
nodes = (
"102 15 LINE",
"102 525 LINE SMOOTH",
"102 599 OFFCURVE",
"128 636 OFFCURVE",
"183 636 CURVE SMOOTH",
"247 636 OFFCURVE",
"274 605 OFFCURVE",
"274 533 CURVE SMOOTH",
"274 463 OFFCURVE",
"240 428 OFFCURVE",
"166 424 CURVE",
"166 359 LINE",
"274 357 OFFCURVE",
"274 329 OFFCURVE",
"274 207 CURVE SMOOTH",
"274 127 OFFCURVE",
"265 87 OFFCURVE",
"183 87 CURVE SMOOTH",
"176 87 OFFCURVE",
"171 88 OFFCURVE",
"166 90 CURVE",
"166 22 LINE",
"173 19 OFFCURVE",
"178 15 OFFCURVE",
"181 15 CURVE SMOOTH",
"273 15 OFFCURVE",
"333 19 OFFCURVE",
"333 211 CURVE SMOOTH",
"333 292 OFFCURVE",
"303 387 OFFCURVE",
"270 387 CURVE",
"303 387 OFFCURVE",
"333 465 OFFCURVE",
"333 533 CURVE SMOOTH",
"333 640 OFFCURVE",
"289 693 OFFCURVE",
"200 693 CURVE SMOOTH",
"52 693 OFFCURVE",
"40 604 OFFCURVE",
"40 481 CURVE SMOOTH",
"40 15 LINE"
);
}
);
width = 376;
}
);
unicode = 00DF;
},
{
glyphname = t;
lastChange = "2015-12-19 02:41:21 +0000";
layers = (
{
anchors = (
{
name = bottom;
position = "{144, 0}";
},
{
name = center;
position = "{124, 263}";
},
{
name = top;
position = "{124, 450}";
},
{
name = topright;
position = "{220, 450}";
}
);
layerId = "8E5E9D5F-1CFD-4F58-89B8-A9F3704C2D63";
paths = (
{
closed = 1;
nodes = (
"78 369 LINE",
"78 245 LINE SMOOTH",
"78 6 OFFCURVE",
"99 0 OFFCURVE",
"230 0 CURVE",
"230 80 LINE",
"168 80 OFFCURVE",
"167 85 OFFCURVE",
"167 234 CURVE SMOOTH",
"167 369 LINE",
"229 369 LINE",
"229 450 LINE",
"167 450 LINE",
"167 608 LINE",
"78 608 LINE",
"78 450 LINE",
"17 450 LINE",
"17 369 LINE"
);
}
);
width = 247;
},
{
anchors = (
{
name = bottom;
position = "{94, 0}";
},
{
name = center;
position = "{119, 265}";
},
{
name = top;
position = "{153, 450}";
},
{
name = topright;
position = "{249, 450}";
}
);
layerId = "A2919505-2A95-4438-A60E-B7D4573C3483";
paths = (
{
closed = 1;
nodes = (
"94 375 LINE",
"71 245 LINE SMOOTH",
"29 6 OFFCURVE",
"49 0 OFFCURVE",
"180 0 CURVE",
"194 80 LINE",
"132 80 OFFCURVE",
"132 85 OFFCURVE",
"158 234 CURVE SMOOTH",
"183 375 LINE",
"245 375 LINE",
"258 450 LINE",
"196 450 LINE",
"224 608 LINE",
"135 608 LINE",
"107 450 LINE",
"46 450 LINE",
"33 375 LINE"
);
}
);
width = 233;
},
{
anchors = (
{
name = bottom;
position = "{124, 0}";
},
{
name = center;
position = "{104, 265}";
},
{
name = top;
position = "{104, 450}";
},
{
name = topright;
position = "{200, 450}";
}
);
layerId = "2009CD91-3BC4-40DB-AFF0-7394B85F3EFC";
paths = (
{
closed = 1;
nodes = (
"73 365 LINE",
"73 230 LINE SMOOTH",
"73 19 OFFCURVE",
"81 1 OFFCURVE",
"195 0 CURVE",
"195 50 LINE",
"136 53 OFFCURVE",
"132 74 OFFCURVE",
"132 219 CURVE SMOOTH",
"132 365 LINE",
"194 365 LINE",
"194 430 LINE",
"132 430 LINE",
"132 593 LINE",
"73 593 LINE",
"73 430 LINE",
"12 430 LINE",
"12 365 LINE"
);
}
);
width = 207;
}
);
unicode = 0074;
},
{
glyphname = u;
lastChange = "2016-02-05 01:13:01 +0000";
layers = (
{
anchors = (
{
name = bottom;
position = "{186, 0}";
},
{
name = ogonek;
position = "{263, 18}";
},
{
name = top;
position = "{181, 444}";
},
{
name = topright;
position = "{334, 294}";
}
);
layerId = "8E5E9D5F-1CFD-4F58-89B8-A9F3704C2D63";
paths = (
{
closed = 1;
nodes = (
"246 450 LINE",
"246 115 LINE",
"232 98 OFFCURVE",
"210 89 OFFCURVE",
"189 89 CURVE SMOOTH",
"158 89 OFFCURVE",
"126 109 OFFCURVE",
"126 155 CURVE SMOOTH",
"126 450 LINE",
"37 450 LINE",
"37 159 LINE SMOOTH",
"37 62 OFFCURVE",
"68 4 OFFCURVE",
"145 0 CURVE SMOOTH",
"166 -1 OFFCURVE",
"226 0 OFFCURVE",
"246 25 CURVE",
"246 0 LINE",
"335 0 LINE",
"335 450 LINE"
);
}
);
width = 372;
},
{
anchors = (
{
name = bottom;
position = "{142, 0}";
},
{
name = ogonek;
position = "{291, 10}";
},
{
name = top;
position = "{214, 434}";
},
{
name = topright;
position = "{339, 272}";
}
);
layerId = "A2919505-2A95-4438-A60E-B7D4573C3483";
paths = (
{
closed = 1;
nodes = (
"283 455 LINE",
"223 115 LINE",
"206 98 OFFCURVE",
"182 89 OFFCURVE",
"161 89 CURVE SMOOTH",
"130 89 OFFCURVE",
"102 109 OFFCURVE",
"110 155 CURVE SMOOTH",
"163 455 LINE",
"74 455 LINE",
"22 159 LINE SMOOTH",
"4 61 OFFCURVE",
"26 9 OFFCURVE",
"102 0 CURVE SMOOTH",
"118 -2 OFFCURVE",
"161 -5 OFFCURVE",
"205 15 CURVE",
"203 5 LINE",
"292 5 LINE",
"372 455 LINE"
);
}
);
width = 371;
},
{
anchors = (
{
name = bottom;
position = "{207, 0}";
},
{
name = ogonek;
position = "{350, 10}";
},
{
name = top;
position = "{207, 430}";
},
{
name = topright;
position = "{366, 430}";
}
);
layerId = "2009CD91-3BC4-40DB-AFF0-7394B85F3EFC";
paths = (
{
closed = 1;
nodes = (
"282 430 LINE",
"282 90 LINE",
"267 71 OFFCURVE",
"238 56 OFFCURVE",
"210 54 CURVE SMOOTH",
"174 51 OFFCURVE",
"132 67 OFFCURVE",
"132 145 CURVE SMOOTH",
"132 430 LINE",
"70 430 LINE",
"70 149 LINE SMOOTH",
"70 45 OFFCURVE",
"111 3 OFFCURVE",
"168 -5 CURVE SMOOTH",
"190 -8 OFFCURVE",
"235 -9 OFFCURVE",
"282 22 CURVE",
"282 0 LINE",
"344 0 LINE",
"344 430 LINE"
);
}
);
width = 414;
}
);
leftKerningGroup = noAscender;
leftMetricsKey = n;
rightMetricsKey = n;
unicode = 0075;
},
{
glyphname = v;
lastChange = "2015-12-18 06:21:25 +0000";
layers = (
{
anchors = (
{
name = bottom;
position = "{170, 0}";
},
{
name = top;
position = "{170, 450}";
}
);
layerId = "8E5E9D5F-1CFD-4F58-89B8-A9F3704C2D63";
paths = (
{
closed = 1;
nodes = (
"114 0 LINE",
"226 0 LINE",
"335 450 LINE",
"246 450 LINE",
"170 118 LINE",
"94 450 LINE",
"5 450 LINE"
);
}
);
width = 340;
},
{
anchors = (
{
name = bottom;
position = "{119, 0}";
},
{
name = top;
position = "{207, 450}";
}
);
layerId = "A2919505-2A95-4438-A60E-B7D4573C3483";
paths = (
{
closed = 1;
nodes = (
"68 0 LINE",
"180 0 LINE",
"364 450 LINE",
"275 450 LINE",
"146 118 LINE",
"123 450 LINE",
"34 450 LINE"
);
}
);
width = 329;
},
{
anchors = (
{
name = bottom;
position = "{145, 0}";
},
{
name = top;
position = "{145, 430}";
}
);
layerId = "2009CD91-3BC4-40DB-AFF0-7394B85F3EFC";
paths = (
{
closed = 1;
nodes = (
"103 0 LINE",
"187 0 LINE",
"291 430 LINE",
"229 430 LINE",
"145 63 LINE",
"61 430 LINE",
"-1 430 LINE"
);
}
);
width = 290;
}
);
leftKerningGroup = noAscender;
unicode = 0076;
},
{
glyphname = w;
lastChange = "2015-12-18 06:21:25 +0000";
layers = (
{
anchors = (
{
name = bottom;
position = "{229, 0}";
},
{
name = top;
position = "{231, 440}";
}
);
layerId = "8E5E9D5F-1CFD-4F58-89B8-A9F3704C2D63";
paths = (
{
closed = 1;
nodes = (
"83 0 LINE",
"193 0 LINE",
"233 279 LINE",
"277 0 LINE",
"388 0 LINE",
"452 451 LINE",
"374 451 LINE",
"329 99 LINE",
"264 451 LINE",
"202 451 LINE",
"141 99 LINE",
"83 451 LINE",
"5 451 LINE"
);
}
);
width = 457;
},
{
anchors = (
{
name = bottom;
position = "{190, 0}";
},
{
name = top;
position = "{271, 432}";
}
);
layerId = "A2919505-2A95-4438-A60E-B7D4573C3483";
paths = (
{
closed = 1;
nodes = (
"42 0 LINE",
"160 0 LINE",
"243 252 LINE",
"243 0 LINE",
"362 0 LINE",
"507 449 LINE",
"421 449 LINE",
"315 108 LINE",
"313 449 LINE",
"245 449 LINE",
"123 105 LINE",
"120 449 LINE",
"34 449 LINE"
);
}
);
width = 468;
},
{
anchors = (
{
name = bottom;
position = "{199, 0}";
},
{
name = top;
position = "{198, 430}";
}
);
layerId = "2009CD91-3BC4-40DB-AFF0-7394B85F3EFC";
paths = (
{
closed = 1;
nodes = (
"68 0 LINE",
"158 0 LINE",
"198 310 LINE",
"239 0 LINE",
"329 0 LINE",
"386 430 LINE",
"325 430 LINE",
"284 77 LINE",
"221 430 LINE",
"173 430 LINE",
"114 82 LINE",
"71 430 LINE",
"11 430 LINE"
);
}
);
width = 380;
}
);
leftKerningGroup = noAscender;
unicode = 0077;
},
{
glyphname = x;
lastChange = "2015-12-16 04:29:29 +0000";
layers = (
{
anchors = (
{
name = bottom;
position = "{160, 0}";
},
{
name = top;
position = "{160, 450}";
}
);
layerId = "8E5E9D5F-1CFD-4F58-89B8-A9F3704C2D63";
paths = (
{
closed = 1;
nodes = (
"95 0 LINE",
"159 149 LINE",
"222 0 LINE",
"304 0 LINE",
"213 240 LINE",
"303 450 LINE",
"221 450 LINE",
"159 317 LINE",
"96 450 LINE",
"15 450 LINE",
"109 240 LINE",
"15 0 LINE"
);
}
);
width = 319;
},
{
anchors = (
{
name = bottom;
position = "{112, 0}";
},
{
name = top;
position = "{200, 500}";
}
);
layerId = "A2919505-2A95-4438-A60E-B7D4573C3483";
paths = (
{
closed = 1;
nodes = (
"56 0 LINE",
"137 140 LINE",
"169 0 LINE",
"259 0 LINE",
"212 240 LINE",
"338 450 LINE",
"248 450 LINE",
"170 325 LINE",
"135 450 LINE",
"46 450 LINE",
"101 240 LINE",
"-33 0 LINE"
);
}
);
width = 312;
},
{
anchors = (
{
name = bottom;
position = "{133, 0}";
},
{
name = top;
position = "{133, 430}";
}
);
layerId = "2009CD91-3BC4-40DB-AFF0-7394B85F3EFC";
paths = (
{
closed = 1;
nodes = (
"68 0 LINE",
"132 160 LINE",
"195 0 LINE",
"257 0 LINE",
"175 230 LINE",
"256 430 LINE",
"194 430 LINE",
"132 288 LINE",
"69 430 LINE",
"8 430 LINE",
"92 230 LINE",
"8 0 LINE"
);
}
);
width = 265;
}
);
leftKerningGroup = noAscender;
unicode = 0078;
},
{
glyphname = y;
lastChange = "2015-12-18 06:21:42 +0000";
layers = (
{
anchors = (
{
name = bottom;
position = "{173, 0}";
},
{
name = top;
position = "{182, 450}";
}
);
background = {
paths = (
{
closed = 1;
nodes = (
"128 0 LINE",
"240 0 LINE",
"345 450 LINE",
"256 450 LINE",
"186 118 LINE",
"104 450 LINE",
"15 450 LINE"
);
}
);
};
guideLines = (
{
angle = 78;
position = "{199, 172}";
},
{
position = "{238, 0}";
}
);
layerId = "8E5E9D5F-1CFD-4F58-89B8-A9F3704C2D63";
paths = (
{
closed = 1;
nodes = (
"126 0 LINE",
"126 -97 OFFCURVE",
"67 -178 OFFCURVE",
"36 -178 CURVE SMOOTH",
"6 -178 LINE",
"6 -254 LINE",
"154 -254 OFFCURVE",
"189 -230 OFFCURVE",
"347 450 CURVE",
"258 450 LINE",
"182 118 LINE",
"106 450 LINE",
"17 450 LINE"
);
}
);
width = 345;
},
{
anchors = (
{
name = bottom;
position = "{71, 0}";
},
{
name = top;
position = "{206, 431}";
}
);
layerId = "A2919505-2A95-4438-A60E-B7D4573C3483";
paths = (
{
closed = 1;
nodes = (
"76 0 LINE",
"59 -87 OFFCURVE",
"-4 -178 OFFCURVE",
"-45 -178 CURVE SMOOTH",
"-75 -178 LINE",
"-89 -254 LINE",
"79 -254 OFFCURVE",
"108 -230 OFFCURVE",
"376 450 CURVE",
"287 450 LINE",
"153 118 LINE",
"135 450 LINE",
"46 450 LINE"
);
}
);
width = 329;
},
{
anchors = (
{
name = bottom;
position = "{158, -181}";
},
{
name = top;
position = "{141, 409}";
}
);
guideLines = (
{
position = "{202, 3}";
}
);
layerId = "2009CD91-3BC4-40DB-AFF0-7394B85F3EFC";
paths = (
{
closed = 1;
nodes = (
"118 0 LINE",
"108 -132 OFFCURVE",
"62 -199 OFFCURVE",
"32 -199 CURVE SMOOTH",
"2 -199 LINE",
"2 -254 LINE",
"164 -254 OFFCURVE",
"147 -215 OFFCURVE",
"306 430 CURVE",
"244 430 LINE",
"160 63 LINE",
"76 430 LINE",
"14 430 LINE"
);
}
);
width = 308;
}
);
leftKerningGroup = noAscender;
unicode = 0079;
},
{
glyphname = ydotbelow;
lastChange = "2015-12-18 06:21:42 +0000";
layers = (
{
anchors = (
{
name = top;
position = "{147, 431}";
}
);
layerId = "8E5E9D5F-1CFD-4F58-89B8-A9F3704C2D63";
paths = (
{
closed = 1;
nodes = (
"115 -1 LINE",
"81 -144 OFFCURVE",
"68 -169 OFFCURVE",
"38 -169 CURVE SMOOTH",
"8 -169 LINE",
"8 -254 LINE",
"212 -254 OFFCURVE",
"145 -193 OFFCURVE",
"317 450 CURVE",
"228 450 LINE",
"154 118 LINE",
"160 118 LINE",
"86 449 LINE",
"-3 449 LINE"
);
},
{
closed = 1;
nodes = (
"200 -243 LINE",
"289 -243 LINE",
"289 -155 LINE",
"200 -155 LINE"
);
}
);
width = 329;
},
{
anchors = (
{
name = top;
position = "{185, 422}";
}
);
layerId = "A2919505-2A95-4438-A60E-B7D4573C3483";
paths = (
{
closed = 1;
nodes = (
"75 -1 LINE",
"16 -144 OFFCURVE",
"-2 -169 OFFCURVE",
"-32 -169 CURVE SMOOTH",
"-62 -169 LINE",
"-77 -254 LINE",
"127 -254 OFFCURVE",
"71 -193 OFFCURVE",
"356 450 CURVE",
"267 450 LINE",
"135 118 LINE",
"141 118 LINE",
"125 449 LINE",
"36 449 LINE"
);
},
{
closed = 1;
nodes = (
"117 -243 LINE",
"206 -243 LINE",
"222 -155 LINE",
"133 -155 LINE"
);
}
);
width = 329;
},
{
anchors = (
{
name = top;
position = "{147, 431}";
}
);
layerId = "2009CD91-3BC4-40DB-AFF0-7394B85F3EFC";
paths = (
{
closed = 1;
nodes = (
"111 19 LINE",
"76 -128 OFFCURVE",
"61 -182 OFFCURVE",
"19 -182 CURVE SMOOTH",
"4 -182 LINE",
"4 -243 LINE SMOOTH",
"185 -243 OFFCURVE",
"107 -220 OFFCURVE",
"278 431 CURVE",
"217 431 LINE",
"134 123 LINE",
"142 123 LINE",
"59 430 LINE",
"-3 430 LINE"
);
},
{
closed = 1;
nodes = (
"175 -238 LINE",
"234 -238 LINE",
"234 -180 LINE",
"175 -180 LINE"
);
}
);
width = 290;
}
);
leftKerningGroup = noAscender;
unicode = 1EF5;
},
{
glyphname = z;
lastChange = "2015-12-18 06:21:52 +0000";
layers = (
{
anchors = (
{
name = bottom;
position = "{151, 0}";
},
{
name = top;
position = "{151, 450}";
}
);
layerId = "8E5E9D5F-1CFD-4F58-89B8-A9F3704C2D63";
paths = (
{
closed = 1;
nodes = (
"284 0 LINE",
"284 84 LINE",
"118 84 LINE",
"274 363 LINE",
"274 450 LINE",
"18 450 LINE",
"18 366 LINE",
"184 366 LINE",
"18 84 LINE",
"18 0 LINE"
);
}
);
width = 302;
},
{
anchors = (
{
name = bottom;
position = "{108, 0}";
},
{
name = top;
position = "{187, 450}";
}
);
layerId = "A2919505-2A95-4438-A60E-B7D4573C3483";
paths = (
{
closed = 1;
nodes = (
"241 0 LINE",
"255 84 LINE",
"89 84 LINE",
"295 363 LINE",
"310 450 LINE",
"54 450 LINE",
"39 366 LINE",
"205 366 LINE",
"-11 84 LINE",
"-25 0 LINE"
);
}
);
width = 302;
},
{
anchors = (
{
name = bottom;
position = "{133, 0}";
},
{
name = top;
position = "{133, 430}";
}
);
layerId = "2009CD91-3BC4-40DB-AFF0-7394B85F3EFC";
paths = (
{
closed = 1;
nodes = (
"251 0 LINE",
"251 54 LINE",
"84 54 LINE",
"241 362 LINE",
"241 430 LINE",
"15 430 LINE",
"15 376 LINE",
"183 376 LINE",
"15 65 LINE",
"15 0 LINE"
);
}
);
width = 266;
}
);
leftKerningGroup = noAscender;
unicode = 007A;
},
{
glyphname = o.001;
layers = (
{
anchors = (
{
name = bottom;
position = "{186, 0}";
},
{
name = center;
position = "{186, 225}";
},
{
name = ogonek;
position = "{333, 10}";
},
{
name = top;
position = "{182, 435}";
},
{
name = topright;
position = "{350, 450}";
}
);
layerId = "8E5E9D5F-1CFD-4F58-89B8-A9F3704C2D63";
paths = (
{
closed = 1;
nodes = (
"337 -9 OFFCURVE",
"352 98 OFFCURVE",
"352 226 CURVE SMOOTH",
"352 354 OFFCURVE",
"337 455 OFFCURVE",
"186 455 CURVE SMOOTH",
"35 455 OFFCURVE",
"20 354 OFFCURVE",
"20 226 CURVE SMOOTH",
"20 98 OFFCURVE",
"35 -9 OFFCURVE",
"186 -9 CURVE SMOOTH"
);
},
{
closed = 1;
nodes = (
"110 72 OFFCURVE",
"109 98 OFFCURVE",
"109 220 CURVE SMOOTH",
"109 342 OFFCURVE",
"110 371 OFFCURVE",
"186 371 CURVE SMOOTH",
"262 371 OFFCURVE",
"263 342 OFFCURVE",
"263 220 CURVE SMOOTH",
"263 98 OFFCURVE",
"262 72 OFFCURVE",
"186 72 CURVE SMOOTH"
);
}
);
width = 372;
},
{
anchors = (
{
name = bottom;
position = "{140, 0}";
},
{
name = center;
position = "{184, 250}";
},
{
name = ogonek;
position = "{287, 10}";
},
{
name = top;
position = "{213, 435}";
},
{
name = topright;
position = "{392, 500}";
}
);
layerId = "A2919505-2A95-4438-A60E-B7D4573C3483";
paths = (
{
closed = 1;
nodes = (
"290 -9 OFFCURVE",
"324 98 OFFCURVE",
"346 226 CURVE SMOOTH",
"369 354 OFFCURVE",
"372 455 OFFCURVE",
"221 455 CURVE SMOOTH",
"70 455 OFFCURVE",
"37 354 OFFCURVE",
"14 226 CURVE SMOOTH",
"-8 98 OFFCURVE",
"-12 -9 OFFCURVE",
"139 -9 CURVE SMOOTH"
);
},
{
closed = 1;
nodes = (
"77 72 OFFCURVE",
"81 98 OFFCURVE",
"102 220 CURVE SMOOTH",
"124 342 OFFCURVE",
"130 371 OFFCURVE",
"206 371 CURVE SMOOTH",
"282 371 OFFCURVE",
"278 342 OFFCURVE",
"256 220 CURVE SMOOTH",
"235 98 OFFCURVE",
"229 72 OFFCURVE",
"153 72 CURVE SMOOTH"
);
}
);
width = 368;
},
{
anchors = (
{
name = bottom;
position = "{163, -3}";
},
{
name = center;
position = "{163, 215}";
},
{
name = ogonek;
position = "{310, 0}";
},
{
name = top;
position = "{163, 433}";
},
{
name = topright;
position = "{327, 430}";
}
);
layerId = "2009CD91-3BC4-40DB-AFF0-7394B85F3EFC";
paths = (
{
closed = 1;
nodes = (
"295 -4 OFFCURVE",
"309 98 OFFCURVE",
"309 215 CURVE SMOOTH",
"309 332 OFFCURVE",
"295 433 OFFCURVE",
"163 433 CURVE SMOOTH",
"31 433 OFFCURVE",
"17 332 OFFCURVE",
"17 215 CURVE SMOOTH",
"17 98 OFFCURVE",
"31 -4 OFFCURVE",
"163 -4 CURVE SMOOTH"
);
},
{
closed = 1;
nodes = (
"87 55 OFFCURVE",
"79 99 OFFCURVE",
"79 211 CURVE SMOOTH",
"79 323 OFFCURVE",
"87 370 OFFCURVE",
"163 370 CURVE SMOOTH",
"239 370 OFFCURVE",
"247 323 OFFCURVE",
"247 211 CURVE SMOOTH",
"247 99 OFFCURVE",
"239 55 OFFCURVE",
"163 55 CURVE SMOOTH"
);
}
);
width = 326;
}
);
leftKerningGroup = o;
rightKerningGroup = o;
},
{
glyphname = wmod;
lastChange = "2015-11-26 06:53:02 +0000";
layers = (
{
anchors = (
{
name = bottom;
position = "{200, 0}";
},
{
name = top;
position = "{204, 432}";
}
);
layerId = "8E5E9D5F-1CFD-4F58-89B8-A9F3704C2D63";
paths = (
{
closed = 1;
nodes = (
"7 451 LINE",
"73 451 LINE",
"95 590 LINE",
"120 451 LINE",
"185 451 LINE",
"222 700 LINE",
"175 700 LINE",
"149 510 LINE",
"115 700 LINE",
"77 700 LINE",
"42 509 LINE",
"6 700 LINE",
"-41 700 LINE"
);
}
);
width = 212;
},
{
anchors = (
{
name = bottom;
position = "{200, 0}";
},
{
name = top;
position = "{204, 432}";
}
);
layerId = "2009CD91-3BC4-40DB-AFF0-7394B85F3EFC";
paths = (
{
closed = 1;
nodes = (
"12 456 LINE",
"68 456 LINE",
"95 625 LINE",
"125 456 LINE",
"180 456 LINE",
"215 693 LINE",
"180 693 LINE",
"150 491 LINE",
"110 693 LINE",
"82 693 LINE",
"42 495 LINE",
"1 693 LINE",
"-34 693 LINE"
);
}
);
width = 212;
},
{
anchors = (
{
name = bottom;
position = "{340, 0}";
},
{
name = top;
position = "{344, 432}";
}
);
layerId = "A2919505-2A95-4438-A60E-B7D4573C3483";
paths = (
{
closed = 1;
nodes = (
"107 451 LINE",
"173 451 LINE",
"219 590 LINE",
"220 451 LINE",
"285 451 LINE",
"365 700 LINE",
"318 700 LINE",
"259 510 LINE",
"258 700 LINE",
"220 700 LINE",
"152 509 LINE",
"149 700 LINE",
"102 700 LINE"
);
}
);
width = 468;
}
);
unicode = 02B7;
},
{
glyphname = "alef-hb";
lastChange = "2015-12-15 12:43:15 +0000";
layers = (
{
guideLines = (
{
angle = -64;
position = "{90, 485}";
}
);
layerId = "8E5E9D5F-1CFD-4F58-89B8-A9F3704C2D63";
paths = (
{
closed = 1;
nodes = (
"35 0 LINE",
"129 0 LINE",
"129 130 LINE SMOOTH",
"129 196 OFFCURVE",
"119 316 OFFCURVE",
"162 336 CURVE",
"323 0 LINE",
"419 0 LINE",
"308 234 LINE",
"374 261 OFFCURVE",
"415 342 OFFCURVE",
"417 464 CURVE SMOOTH",
"417 598 LINE",
"322 598 LINE",
"322 466 LINE SMOOTH",
"320 408 OFFCURVE",
"309 338 OFFCURVE",
"268 318 CURVE",
"132 599 LINE",
"35 599 LINE",
"124 414 LINE",
"56 385 OFFCURVE",
"33 258 OFFCURVE",
"34 134 CURVE SMOOTH"
);
}
);
width = 450;
},
{
layerId = "2009CD91-3BC4-40DB-AFF0-7394B85F3EFC";
width = 600;
},
{
layerId = "A2919505-2A95-4438-A60E-B7D4573C3483";
width = 600;
}
);
unicode = 05D0;
},
{
glyphname = "dalet-hb";
lastChange = "2015-12-08 10:08:15 +0000";
layers = (
{
layerId = "8E5E9D5F-1CFD-4F58-89B8-A9F3704C2D63";
paths = (
{
closed = 1;
nodes = (
"344 600 LINE",
"229 600 OFFCURVE",
"196 557 OFFCURVE",
"196 415 CURVE SMOOTH",
"196 0 LINE",
"291 0 LINE",
"291 478 LINE",
"296 494 OFFCURVE",
"297 502 OFFCURVE",
"344 502 CURVE"
);
},
{
closed = 1;
nodes = (
"25 508 LINE SMOOTH",
"25 504 OFFCURVE",
"27 502 OFFCURVE",
"30 502 CURVE SMOOTH",
"383 502 LINE",
"392 600 LINE",
"38 600 LINE SMOOTH",
"36 600 OFFCURVE",
"33 597 OFFCURVE",
"33 595 CURVE SMOOTH"
);
}
);
width = 417;
},
{
layerId = "2009CD91-3BC4-40DB-AFF0-7394B85F3EFC";
paths = (
{
closed = 1;
nodes = (
"314 557 LINE",
"218 554 OFFCURVE",
"192 515 OFFCURVE",
"192 385 CURVE SMOOTH",
"192 3 LINE",
"261 3 LINE",
"261 450 LINE",
"269 476 OFFCURVE",
"279 484 OFFCURVE",
"314 485 CURVE"
);
},
{
closed = 1;
nodes = (
"22 488 LINE SMOOTH",
"22 486 OFFCURVE",
"23 485 OFFCURVE",
"25 485 CURVE SMOOTH",
"354 485 LINE",
"361 557 LINE",
"31 557 LINE SMOOTH",
"30 557 OFFCURVE",
"28 555 OFFCURVE",
"28 554 CURVE SMOOTH"
);
}
);
width = 383;
},
{
layerId = "A2919505-2A95-4438-A60E-B7D4573C3483";
paths = (
{
closed = 1;
nodes = (
"410 600 LINE",
"295 600 OFFCURVE",
"254 557 OFFCURVE",
"229 415 CURVE SMOOTH",
"156 0 LINE",
"251 0 LINE",
"335 478 LINE",
"343 494 OFFCURVE",
"346 502 OFFCURVE",
"393 502 CURVE"
);
},
{
closed = 1;
nodes = (
"75 508 LINE SMOOTH",
"74 504 OFFCURVE",
"76 502 OFFCURVE",
"79 502 CURVE SMOOTH",
"432 502 LINE",
"458 600 LINE",
"104 600 LINE SMOOTH",
"102 600 OFFCURVE",
"98 597 OFFCURVE",
"98 595 CURVE SMOOTH"
);
}
);
width = 417;
}
);
unicode = 05D3;
},
{
glyphname = "he-hb";
lastChange = "2015-12-08 10:09:27 +0000";
layers = (
{
layerId = "8E5E9D5F-1CFD-4F58-89B8-A9F3704C2D63";
paths = (
{
closed = 1;
nodes = (
"35 400 LINE",
"35 0 LINE",
"130 0 LINE",
"130 400 LINE"
);
},
{
closed = 1;
nodes = (
"86 510 OFFCURVE",
"121 513 OFFCURVE",
"186 513 CURVE SMOOTH",
"250 513 OFFCURVE",
"305 504 OFFCURVE",
"305 420 CURVE SMOOTH",
"305 0 LINE",
"400 0 LINE",
"400 415 LINE SMOOTH",
"400 533 OFFCURVE",
"383 600 OFFCURVE",
"257 600 CURVE SMOOTH",
"40 600 LINE SMOOTH",
"37 600 OFFCURVE",
"35 598 OFFCURVE",
"35 595 CURVE",
"44 508 LINE SMOOTH",
"44 504 OFFCURVE",
"47 503 OFFCURVE",
"50 504 CURVE SMOOTH"
);
}
);
width = 435;
},
{
layerId = "A2919505-2A95-4438-A60E-B7D4573C3483";
paths = (
{
closed = 1;
nodes = (
"56 400 LINE",
"-15 0 LINE",
"80 0 LINE",
"151 400 LINE"
);
},
{
closed = 1;
nodes = (
"126 510 OFFCURVE",
"161 513 OFFCURVE",
"226 513 CURVE SMOOTH",
"290 513 OFFCURVE",
"344 504 OFFCURVE",
"329 420 CURVE SMOOTH",
"255 0 LINE",
"350 0 LINE",
"423 415 LINE SMOOTH",
"444 533 OFFCURVE",
"439 600 OFFCURVE",
"313 600 CURVE SMOOTH",
"96 600 LINE SMOOTH",
"93 600 OFFCURVE",
"90 598 OFFCURVE",
"90 595 CURVE",
"84 508 LINE SMOOTH",
"83 504 OFFCURVE",
"86 503 OFFCURVE",
"89 504 CURVE SMOOTH"
);
}
);
width = 415;
},
{
layerId = "2009CD91-3BC4-40DB-AFF0-7394B85F3EFC";
paths = (
{
closed = 1;
nodes = (
"25 377 LINE",
"25 0 LINE",
"91 0 LINE",
"91 377 LINE"
);
},
{
closed = 1;
nodes = (
"50 489 OFFCURVE",
"64 491 OFFCURVE",
"163 491 CURVE SMOOTH",
"228 491 OFFCURVE",
"295 485 OFFCURVE",
"295 390 CURVE SMOOTH",
"295 0 LINE",
"361 0 LINE",
"361 385 LINE SMOOTH",
"361 519 OFFCURVE",
"336 557 OFFCURVE",
"234 557 CURVE SMOOTH",
"25 557 LINE SMOOTH",
"23 557 OFFCURVE",
"22 556 OFFCURVE",
"22 553 CURVE SMOOTH",
"28 486 LINE SMOOTH",
"28 484 OFFCURVE",
"30 483 OFFCURVE",
"32 484 CURVE SMOOTH"
);
}
);
width = 383;
}
);
unicode = 05D4;
},
{
glyphname = "het-hb";
lastChange = "2015-12-08 10:10:55 +0000";
layers = (
{
layerId = "8E5E9D5F-1CFD-4F58-89B8-A9F3704C2D63";
paths = (
{
closed = 1;
nodes = (
"130 2 LINE",
"130 511 LINE",
"269 511 LINE SMOOTH",
"324 511 OFFCURVE",
"355 489 OFFCURVE",
"355 420 CURVE SMOOTH",
"355 2 LINE",
"450 2 LINE",
"450 415 LINE SMOOTH",
"450 533 OFFCURVE",
"433 600 OFFCURVE",
"307 600 CURVE SMOOTH",
"40 600 LINE SMOOTH",
"37 600 OFFCURVE",
"35 598 OFFCURVE",
"35 595 CURVE SMOOTH",
"35 2 LINE"
);
}
);
width = 485;
},
{
layerId = "A2919505-2A95-4438-A60E-B7D4573C3483";
paths = (
{
closed = 1;
nodes = (
"91 2 LINE",
"181 511 LINE",
"320 511 LINE SMOOTH",
"375 511 OFFCURVE",
"402 489 OFFCURVE",
"390 420 CURVE SMOOTH",
"316 2 LINE",
"411 2 LINE",
"484 415 LINE SMOOTH",
"505 533 OFFCURVE",
"500 600 OFFCURVE",
"374 600 CURVE SMOOTH",
"107 600 LINE SMOOTH",
"104 600 OFFCURVE",
"101 598 OFFCURVE",
"101 595 CURVE SMOOTH",
"-4 2 LINE"
);
}
);
width = 485;
},
{
layerId = "2009CD91-3BC4-40DB-AFF0-7394B85F3EFC";
paths = (
{
closed = 1;
nodes = (
"94 0 LINE",
"94 499 LINE",
"246 499 LINE SMOOTH",
"314 499 OFFCURVE",
"345 466 OFFCURVE",
"345 395 CURVE SMOOTH",
"345 0 LINE",
"414 0 LINE",
"414 390 LINE SMOOTH",
"414 524 OFFCURVE",
"386 562 OFFCURVE",
"284 562 CURVE SMOOTH",
"29 562 LINE",
"27 562 OFFCURVE",
"25 560 OFFCURVE",
"25 558 CURVE",
"25 0 LINE"
);
}
);
width = 439;
}
);
unicode = 05D7;
},
{
glyphname = "tav-hb";
lastChange = "2015-12-08 13:08:22 +0000";
layers = (
{
layerId = "8E5E9D5F-1CFD-4F58-89B8-A9F3704C2D63";
paths = (
{
closed = 1;
nodes = (
"110 0 LINE SMOOTH",
"194 0 OFFCURVE",
"211 17 OFFCURVE",
"211 101 CURVE SMOOTH",
"211 513 LINE",
"326 513 OFFCURVE",
"346 499 OFFCURVE",
"346 420 CURVE SMOOTH",
"346 0 LINE",
"441 0 LINE",
"441 415 LINE SMOOTH",
"441 533 OFFCURVE",
"424 600 OFFCURVE",
"298 600 CURVE SMOOTH",
"71 600 LINE SMOOTH",
"68 600 OFFCURVE",
"66 598 OFFCURVE",
"66 595 CURVE",
"75 508 LINE",
"75 504 OFFCURVE",
"78 503 OFFCURVE",
"81 504 CURVE",
"92 506 OFFCURVE",
"104 507 OFFCURVE",
"116 509 CURVE",
"116 131 LINE SMOOTH",
"116 80 OFFCURVE",
"114 80 OFFCURVE",
"65 80 CURVE SMOOTH",
"37 80 LINE SMOOTH",
"35 80 OFFCURVE",
"33 78 OFFCURVE",
"33 76 CURVE SMOOTH",
"25 6 LINE SMOOTH",
"25 2 OFFCURVE",
"27 0 OFFCURVE",
"30 0 CURVE SMOOTH"
);
}
);
width = 466;
},
{
layerId = "A2919505-2A95-4438-A60E-B7D4573C3483";
paths = (
{
closed = 1;
nodes = (
"60 0 LINE SMOOTH",
"144 0 OFFCURVE",
"164 17 OFFCURVE",
"179 101 CURVE SMOOTH",
"251 513 LINE",
"366 513 OFFCURVE",
"384 499 OFFCURVE",
"370 420 CURVE SMOOTH",
"296 0 LINE",
"391 0 LINE",
"464 415 LINE SMOOTH",
"485 533 OFFCURVE",
"480 600 OFFCURVE",
"354 600 CURVE SMOOTH",
"127 600 LINE SMOOTH",
"124 600 OFFCURVE",
"121 598 OFFCURVE",
"121 595 CURVE",
"115 508 LINE",
"114 504 OFFCURVE",
"117 503 OFFCURVE",
"120 504 CURVE",
"131 506 OFFCURVE",
"143 507 OFFCURVE",
"156 509 CURVE",
"89 131 LINE SMOOTH",
"80 80 OFFCURVE",
"78 80 OFFCURVE",
"29 80 CURVE SMOOTH",
"1 80 LINE SMOOTH",
"-1 80 OFFCURVE",
"-3 78 OFFCURVE",
"-4 76 CURVE SMOOTH",
"-24 6 LINE SMOOTH",
"-25 2 OFFCURVE",
"-23 0 OFFCURVE",
"-20 0 CURVE SMOOTH"
);
}
);
width = 466;
},
{
layerId = "2009CD91-3BC4-40DB-AFF0-7394B85F3EFC";
width = 600;
}
);
unicode = 05EA;
},
{
glyphname = zero;
lastChange = "2015-12-19 00:53:11 +0000";
layers = (
{
layerId = "8E5E9D5F-1CFD-4F58-89B8-A9F3704C2D63";
paths = (
{
closed = 1;
nodes = (
"434 -6 OFFCURVE",
"451 155 OFFCURVE",
"451 351 CURVE SMOOTH",
"451 547 OFFCURVE",
"433 701 OFFCURVE",
"239 701 CURVE SMOOTH",
"46 701 OFFCURVE",
"30 548 OFFCURVE",
"30 352 CURVE SMOOTH",
"30 156 OFFCURVE",
"47 -6 OFFCURVE",
"239 -6 CURVE SMOOTH"
);
},
{
closed = 1;
nodes = (
"126 80 OFFCURVE",
"116 154 OFFCURVE",
"116 346 CURVE SMOOTH",
"116 532 OFFCURVE",
"126 614 OFFCURVE",
"241 614 CURVE SMOOTH",
"356 614 OFFCURVE",
"366 533 OFFCURVE",
"366 347 CURVE SMOOTH",
"366 155 OFFCURVE",
"356 80 OFFCURVE",
"241 80 CURVE SMOOTH"
);
}
);
width = 481;
},
{
layerId = "A2919505-2A95-4438-A60E-B7D4573C3483";
paths = (
{
closed = 1;
nodes = (
"397 -11 OFFCURVE",
"444 155 OFFCURVE",
"479 351 CURVE SMOOTH",
"513 547 OFFCURVE",
"522 706 OFFCURVE",
"324 706 CURVE SMOOTH",
"127 706 OFFCURVE",
"83 548 OFFCURVE",
"48 352 CURVE SMOOTH",
"14 156 OFFCURVE",
"1 -11 OFFCURVE",
"198 -11 CURVE SMOOTH"
);
},
{
closed = 1;
nodes = (
"108 90 OFFCURVE",
"119 154 OFFCURVE",
"153 346 CURVE SMOOTH",
"186 532 OFFCURVE",
"199 609 OFFCURVE",
"309 609 CURVE SMOOTH",
"419 609 OFFCURVE",
"406 533 OFFCURVE",
"373 347 CURVE SMOOTH",
"339 155 OFFCURVE",
"328 90 OFFCURVE",
"218 90 CURVE SMOOTH"
);
}
);
width = 491;
},
{
layerId = "2009CD91-3BC4-40DB-AFF0-7394B85F3EFC";
paths = (
{
closed = 1;
nodes = (
"400 -6 OFFCURVE",
"416 156 OFFCURVE",
"416 351 CURVE",
"416 546 OFFCURVE",
"399 706 OFFCURVE",
"219 706 CURVE SMOOTH",
"40 706 OFFCURVE",
"25 547 OFFCURVE",
"25 352 CURVE SMOOTH",
"25 157 OFFCURVE",
"40 -6 OFFCURVE",
"219 -6 CURVE SMOOTH"
);
},
{
closed = 1;
nodes = (
"91 55 OFFCURVE",
"91 154 OFFCURVE",
"91 346 CURVE SMOOTH",
"91 532 OFFCURVE",
"91 649 OFFCURVE",
"221 649 CURVE SMOOTH",
"351 649 OFFCURVE",
"351 533 OFFCURVE",
"351 347 CURVE SMOOTH",
"351 155 OFFCURVE",
"351 55 OFFCURVE",
"221 55 CURVE SMOOTH"
);
}
);
width = 441;
}
);
leftMetricsKey = O;
rightMetricsKey = O;
unicode = 0030;
},
{
glyphname = one;
lastChange = "2015-12-19 00:37:14 +0000";
layers = (
{
layerId = "8E5E9D5F-1CFD-4F58-89B8-A9F3704C2D63";
paths = (
{
closed = 1;
nodes = (
"167 5 OFFCURVE",
"190 5 OFFCURVE",
"221 5 CURVE",
"221 234 OFFCURVE",
"221 470 OFFCURVE",
"221 700 CURVE",
"190 700 OFFCURVE",
"166 700 OFFCURVE",
"136 700 CURVE",
"136 469 OFFCURVE",
"136 232 OFFCURVE",
"136 5 CURVE"
);
},
{
closed = 1;
nodes = (
"136 574 LINE",
"136 700 LINE",
"50 574 LINE"
);
}
);
width = 271;
},
{
layerId = "A2919505-2A95-4438-A60E-B7D4573C3483";
paths = (
{
closed = 1;
nodes = (
"126 5 OFFCURVE",
"149 5 OFFCURVE",
"180 5 CURVE",
"220 234 OFFCURVE",
"262 470 OFFCURVE",
"302 700 CURVE",
"271 700 OFFCURVE",
"247 700 OFFCURVE",
"217 700 CURVE",
"177 469 OFFCURVE",
"135 232 OFFCURVE",
"95 5 CURVE"
);
},
{
closed = 1;
nodes = (
"195 574 LINE",
"217 700 LINE",
"109 574 LINE"
);
}
);
width = 273;
},
{
layerId = "2009CD91-3BC4-40DB-AFF0-7394B85F3EFC";
paths = (
{
closed = 1;
nodes = (
"123 0 OFFCURVE",
"136 0 OFFCURVE",
"157 0 CURVE",
"157 219 OFFCURVE",
"157 479 OFFCURVE",
"157 700 CURVE",
"135 700 OFFCURVE",
"122 700 OFFCURVE",
"101 700 CURVE",
"101 480 OFFCURVE",
"101 217 OFFCURVE",
"101 0 CURVE"
);
},
{
closed = 1;
nodes = (
"101 601 LINE",
"101 700 LINE",
"45 601 LINE"
);
}
);
width = 203;
}
);
leftMetricsKey = I;
rightMetricsKey = I;
unicode = 0031;
},
{
glyphname = two;
lastChange = "2015-12-21 23:03:13 +0000";
layers = (
{
layerId = "8E5E9D5F-1CFD-4F58-89B8-A9F3704C2D63";
paths = (
{
closed = 1;
nodes = (
"123 2 LINE",
"131 125 OFFCURVE",
"313 330 OFFCURVE",
"313 513 CURVE SMOOTH",
"313 628 OFFCURVE",
"271 707 OFFCURVE",
"163 707 CURVE SMOOTH",
"95 707 OFFCURVE",
"33 667 OFFCURVE",
"33 650 CURVE",
"33 567 LINE",
"48 574 OFFCURVE",
"101 624 OFFCURVE",
"159 624 CURVE SMOOTH",
"216 624 OFFCURVE",
"230 576 OFFCURVE",
"230 514 CURVE SMOOTH",
"230 356 OFFCURVE",
"48 124 OFFCURVE",
"40 2 CURVE"
);
},
{
closed = 1;
nodes = (
"318 2 LINE",
"318 86 LINE",
"79 86 LINE",
"42 2 LINE"
);
}
);
width = 351;
},
{
layerId = "A2919505-2A95-4438-A60E-B7D4573C3483";
paths = (
{
closed = 1;
nodes = (
"79 2 LINE",
"109 125 OFFCURVE",
"326 330 OFFCURVE",
"358 513 CURVE SMOOTH",
"374 602 OFFCURVE",
"360 702 OFFCURVE",
"252 702 CURVE SMOOTH",
"184 702 OFFCURVE",
"106 662 OFFCURVE",
"103 645 CURVE",
"88 562 LINE",
"104 569 OFFCURVE",
"150 619 OFFCURVE",
"215 619 CURVE SMOOTH",
"272 619 OFFCURVE",
"287 571 OFFCURVE",
"277 514 CURVE SMOOTH",
"249 356 OFFCURVE",
"26 124 OFFCURVE",
"-4 2 CURVE"
);
},
{
closed = 1;
nodes = (
"274 2 LINE",
"289 86 LINE",
"50 86 LINE",
"-2 2 LINE"
);
}
);
width = 351;
},
{
layerId = "2009CD91-3BC4-40DB-AFF0-7394B85F3EFC";
paths = (
{
closed = 1;
nodes = (
"92 0 LINE",
"111 128 OFFCURVE",
"279 361 OFFCURVE",
"279 533 CURVE SMOOTH",
"279 651 OFFCURVE",
"234 715 OFFCURVE",
"154 715 CURVE SMOOTH",
"96 715 OFFCURVE",
"30 684 OFFCURVE",
"30 673 CURVE SMOOTH",
"30 621 LINE",
"51 639 OFFCURVE",
"91 662 OFFCURVE",
"132 662 CURVE SMOOTH",
"191 662 OFFCURVE",
"227 616 OFFCURVE",
"227 534 CURVE SMOOTH",
"227 379 OFFCURVE",
"60 122 OFFCURVE",
"39 0 CURVE"
);
},
{
closed = 1;
nodes = (
"285 0 LINE",
"285 56 LINE",
"71 56 LINE",
"47 0 LINE"
);
}
);
width = 315;
}
);
leftMetricsKey = S;
rightMetricsKey = S;
unicode = 0032;
},
{
glyphname = three;
lastChange = "2015-12-27 15:00:29 +0000";
layers = (
{
layerId = "8E5E9D5F-1CFD-4F58-89B8-A9F3704C2D63";
paths = (
{
closed = 1;
nodes = (
"33 612 LINE",
"38 612 OFFCURVE",
"52 624 OFFCURVE",
"113 624 CURVE SMOOTH",
"215 624 OFFCURVE",
"241 596 OFFCURVE",
"241 531 CURVE SMOOTH",
"241 449 OFFCURVE",
"227 396 OFFCURVE",
"127 394 CURVE",
"127 309 LINE",
"235 309 OFFCURVE",
"241 292 OFFCURVE",
"241 207 CURVE SMOOTH",
"241 118 OFFCURVE",
"229 76 OFFCURVE",
"114 76 CURVE SMOOTH",
"65 76 OFFCURVE",
"56 84 OFFCURVE",
"33 96 CURVE",
"33 19 LINE",
"46 10 OFFCURVE",
"57 -3 OFFCURVE",
"112 -3 CURVE SMOOTH",
"244 -3 OFFCURVE",
"324 29 OFFCURVE",
"324 211 CURVE SMOOTH",
"324 311 OFFCURVE",
"286 339 OFFCURVE",
"251 352 CURVE",
"286 359 OFFCURVE",
"324 447 OFFCURVE",
"324 531 CURVE SMOOTH",
"324 658 OFFCURVE",
"257 707 OFFCURVE",
"131 707 CURVE SMOOTH",
"59 707 OFFCURVE",
"33 698 OFFCURVE",
"33 677 CURVE SMOOTH"
);
}
);
width = 357;
},
{
layerId = "A2919505-2A95-4438-A60E-B7D4573C3483";
paths = (
{
closed = 1;
nodes = (
"98 612 LINE",
"103 612 OFFCURVE",
"119 624 OFFCURVE",
"180 624 CURVE SMOOTH",
"282 624 OFFCURVE",
"303 596 OFFCURVE",
"292 531 CURVE SMOOTH",
"277 449 OFFCURVE",
"254 396 OFFCURVE",
"153 394 CURVE",
"138 309 LINE",
"246 309 OFFCURVE",
"249 292 OFFCURVE",
"234 207 CURVE SMOOTH",
"219 118 OFFCURVE",
"199 76 OFFCURVE",
"84 76 CURVE SMOOTH",
"35 76 OFFCURVE",
"28 84 OFFCURVE",
"7 96 CURVE",
"-7 19 LINE",
"5 10 OFFCURVE",
"13 -3 OFFCURVE",
"68 -3 CURVE SMOOTH",
"200 -3 OFFCURVE",
"286 29 OFFCURVE",
"318 211 CURVE SMOOTH",
"336 311 OFFCURVE",
"303 339 OFFCURVE",
"270 352 CURVE",
"306 359 OFFCURVE",
"360 447 OFFCURVE",
"375 531 CURVE SMOOTH",
"397 658 OFFCURVE",
"339 707 OFFCURVE",
"213 707 CURVE SMOOTH",
"141 707 OFFCURVE",
"113 698 OFFCURVE",
"109 677 CURVE SMOOTH"
);
}
);
width = 358;
},
{
layerId = "2009CD91-3BC4-40DB-AFF0-7394B85F3EFC";
paths = (
{
closed = 1;
nodes = (
"30 643 LINE",
"42 646 OFFCURVE",
"63 659 OFFCURVE",
"95 659 CURVE SMOOTH",
"198 659 OFFCURVE",
"238 630 OFFCURVE",
"238 531 CURVE SMOOTH",
"238 429 OFFCURVE",
"208 386 OFFCURVE",
"124 380 CURVE",
"124 324 LINE",
"222 322 OFFCURVE",
"238 302 OFFCURVE",
"238 207 CURVE SMOOTH",
"238 75 OFFCURVE",
"206 41 OFFCURVE",
"96 41 CURVE SMOOTH",
"61 41 OFFCURVE",
"44 55 OFFCURVE",
"30 61 CURVE",
"30 17 LINE",
"42 9 OFFCURVE",
"53 -8 OFFCURVE",
"94 -8 CURVE SMOOTH",
"242 -8 OFFCURVE",
"291 40 OFFCURVE",
"291 211 CURVE SMOOTH",
"291 308 OFFCURVE",
"251 347 OFFCURVE",
"198 348 CURVE",
"251 349 OFFCURVE",
"291 443 OFFCURVE",
"291 531 CURVE SMOOTH",
"291 663 OFFCURVE",
"238 712 OFFCURVE",
"113 712 CURVE SMOOTH",
"53 712 OFFCURVE",
"30 695 OFFCURVE",
"30 687 CURVE SMOOTH"
);
}
);
width = 321;
}
);
leftMetricsKey = S;
rightMetricsKey = S;
unicode = 0033;
},
{
glyphname = four;
lastChange = "2015-12-19 00:42:44 +0000";
layers = (
{
layerId = "8E5E9D5F-1CFD-4F58-89B8-A9F3704C2D63";
paths = (
{
closed = 1;
nodes = (
"220 197 LINE",
"220 0 LINE",
"303 0 LINE",
"303 197 LINE",
"388 197 LINE",
"388 279 LINE",
"303 279 LINE",
"303 700 LINE",
"204 700 LINE",
"30 283 LINE",
"30 197 LINE"
);
},
{
closed = 1;
nodes = (
"220 543 LINE",
"220 279 LINE",
"110 279 LINE"
);
}
);
width = 418;
},
{
layerId = "A2919505-2A95-4438-A60E-B7D4573C3483";
paths = (
{
closed = 1;
nodes = (
"215 197 LINE",
"180 0 LINE",
"263 0 LINE",
"298 197 LINE",
"383 197 LINE",
"397 279 LINE",
"312 279 LINE",
"386 700 LINE",
"287 700 LINE",
"40 283 LINE",
"25 197 LINE"
);
},
{
closed = 1;
nodes = (
"276 543 LINE",
"229 279 LINE",
"119 279 LINE"
);
}
);
width = 418;
},
{
layerId = "2009CD91-3BC4-40DB-AFF0-7394B85F3EFC";
paths = (
{
closed = 1;
nodes = (
"210 232 LINE",
"210 0 LINE",
"265 0 LINE",
"265 232 LINE",
"353 232 LINE",
"353 294 LINE",
"265 294 LINE",
"265 700 LINE",
"204 700 LINE",
"45 294 LINE",
"45 232 LINE"
);
},
{
closed = 1;
nodes = (
"210 589 LINE",
"210 294 LINE",
"97 294 LINE"
);
}
);
width = 399;
}
);
unicode = 0034;
},
{
glyphname = five;
lastChange = "2015-12-19 09:30:09 +0000";
layers = (
{
layerId = "8E5E9D5F-1CFD-4F58-89B8-A9F3704C2D63";
paths = (
{
closed = 1;
nodes = (
"200 -4 OFFCURVE",
"283 51 OFFCURVE",
"290 206 CURVE SMOOTH",
"296 347 OFFCURVE",
"233 418 OFFCURVE",
"118 418 CURVE",
"118 615 LINE",
"295 614 LINE",
"295 699 LINE",
"33 700 LINE",
"33 334 LINE",
"123 336 OFFCURVE",
"206 313 OFFCURVE",
"206 202 CURVE SMOOTH",
"206 82 OFFCURVE",
"111 71 OFFCURVE",
"33 71 CURVE",
"33 2 LINE",
"107 -6 LINE"
);
}
);
width = 328;
},
{
layerId = "A2919505-2A95-4438-A60E-B7D4573C3483";
paths = (
{
closed = 1;
nodes = (
"156 -4 OFFCURVE",
"249 51 OFFCURVE",
"283 206 CURVE SMOOTH",
"314 347 OFFCURVE",
"284 418 OFFCURVE",
"149 418 CURVE",
"183 615 LINE",
"360 614 LINE",
"375 699 LINE",
"113 700 LINE",
"49 334 LINE",
"189 336 OFFCURVE",
"218 313 OFFCURVE",
"199 202 CURVE SMOOTH",
"177 82 OFFCURVE",
"81 71 OFFCURVE",
"3 71 CURVE",
"-10 2 LINE",
"63 -6 LINE"
);
}
);
width = 328;
},
{
layerId = "2009CD91-3BC4-40DB-AFF0-7394B85F3EFC";
paths = (
{
closed = 1;
nodes = (
"190 5 OFFCURVE",
"243 73 OFFCURVE",
"242 207 CURVE SMOOTH",
"240 420 OFFCURVE",
"113 399 OFFCURVE",
"85 404 CURVE",
"85 632 LINE",
"256 631 LINE",
"256 699 LINE",
"30 700 LINE",
"30 348 LINE",
"118 347 OFFCURVE",
"187 341 OFFCURVE",
"187 202 CURVE SMOOTH",
"187 117 OFFCURVE",
"168 56 OFFCURVE",
"30 55 CURVE",
"30 10 LINE",
"83 3 LINE"
);
}
);
width = 286;
}
);
leftMetricsKey = S;
rightMetricsKey = S;
unicode = 0035;
},
{
glyphname = six;
lastChange = "2016-01-22 10:19:25 +0000";
layers = (
{
layerId = "8E5E9D5F-1CFD-4F58-89B8-A9F3704C2D63";
paths = (
{
closed = 1;
nodes = (
"31 93 OFFCURVE",
"43 -3 OFFCURVE",
"187 -3 CURVE SMOOTH",
"333 -3 OFFCURVE",
"346 92 OFFCURVE",
"346 206 CURVE SMOOTH",
"346 324 OFFCURVE",
"332 412 OFFCURVE",
"187 412 CURVE SMOOTH",
"157 412 OFFCURVE",
"132 408 OFFCURVE",
"109 400 CURVE",
"112 573 OFFCURVE",
"112 630 OFFCURVE",
"189 630 CURVE SMOOTH",
"233 630 OFFCURVE",
"259 597 OFFCURVE",
"261 541 CURVE",
"346 541 LINE",
"344 682 OFFCURVE",
"268 707 OFFCURVE",
"184 707 CURVE SMOOTH",
"8 707 OFFCURVE",
"31 575 OFFCURVE",
"31 207 CURVE SMOOTH"
);
},
{
closed = 1;
nodes = (
"117 307 OFFCURVE",
"117 335 OFFCURVE",
"189 335 CURVE SMOOTH",
"261 335 OFFCURVE",
"261 307 OFFCURVE",
"261 206 CURVE SMOOTH",
"261 104 OFFCURVE",
"261 76 OFFCURVE",
"189 76 CURVE SMOOTH",
"117 76 OFFCURVE",
"117 103 OFFCURVE",
"117 205 CURVE SMOOTH"
);
}
);
width = 376;
},
{
layerId = "A2919505-2A95-4438-A60E-B7D4573C3483";
paths = (
{
closed = 1;
nodes = (
"3 93 OFFCURVE",
"-1 -8 OFFCURVE",
"147 -8 CURVE SMOOTH",
"297 -8 OFFCURVE",
"328 92 OFFCURVE",
"348 206 CURVE SMOOTH",
"369 324 OFFCURVE",
"371 417 OFFCURVE",
"222 417 CURVE SMOOTH",
"193 417 OFFCURVE",
"168 413 OFFCURVE",
"147 407 CURVE",
"181 579 OFFCURVE",
"211 620 OFFCURVE",
"259 620 CURVE SMOOTH",
"304 620 OFFCURVE",
"320 584 OFFCURVE",
"311 531 CURVE",
"406 531 LINE",
"432 680 OFFCURVE",
"356 707 OFFCURVE",
"270 707 CURVE SMOOTH",
"85 707 OFFCURVE",
"99 587 OFFCURVE",
"23 207 CURVE SMOOTH"
);
},
{
closed = 1;
nodes = (
"137 307 OFFCURVE",
"141 330 OFFCURVE",
"208 330 CURVE SMOOTH",
"275 330 OFFCURVE",
"271 307 OFFCURVE",
"253 206 CURVE SMOOTH",
"235 104 OFFCURVE",
"231 81 OFFCURVE",
"164 81 CURVE SMOOTH",
"97 81 OFFCURVE",
"101 103 OFFCURVE",
"119 205 CURVE SMOOTH"
);
}
);
width = 386;
},
{
layerId = "2009CD91-3BC4-40DB-AFF0-7394B85F3EFC";
paths = (
{
closed = 1;
nodes = (
"26 55 OFFCURVE",
"42 -7 OFFCURVE",
"172 -7 CURVE SMOOTH",
"305 -7 OFFCURVE",
"316 74 OFFCURVE",
"316 206 CURVE",
"316 339 OFFCURVE",
"304 414 OFFCURVE",
"172 414 CURVE SMOOTH",
"136 414 OFFCURVE",
"105 407 OFFCURVE",
"79 395 CURVE",
"81 601 OFFCURVE",
"82 669 OFFCURVE",
"174 669 CURVE SMOOTH",
"222 669 OFFCURVE",
"254 635 OFFCURVE",
"260 580 CURVE",
"315 580 LINE",
"310 677 OFFCURVE",
"267 716 OFFCURVE",
"169 716 CURVE SMOOTH",
"0 716 OFFCURVE",
"26 545 OFFCURVE",
"26 207 CURVE SMOOTH"
);
},
{
closed = 1;
nodes = (
"87 324 OFFCURVE",
"87 367 OFFCURVE",
"174 367 CURVE SMOOTH",
"261 367 OFFCURVE",
"261 324 OFFCURVE",
"261 206 CURVE SMOOTH",
"261 85 OFFCURVE",
"261 42 OFFCURVE",
"174 42 CURVE SMOOTH",
"87 42 OFFCURVE",
"87 84 OFFCURVE",
"87 205 CURVE SMOOTH"
);
}
);
width = 341;
}
);
leftMetricsKey = G;
rightMetricsKey = G;
unicode = 0036;
},
{
glyphname = seven;
lastChange = "2015-12-18 04:12:34 +0000";
layers = (
{
layerId = "8E5E9D5F-1CFD-4F58-89B8-A9F3704C2D63";
paths = (
{
closed = 1;
nodes = (
"174 0 LINE",
"167 97 OFFCURVE",
"233 442 OFFCURVE",
"291 620 CURVE",
"291 699 LINE",
"10 699 LINE",
"10 620 LINE",
"207 620 LINE",
"163 530 OFFCURVE",
"75 100 OFFCURVE",
"79 0 CURVE"
);
}
);
width = 301;
},
{
layerId = "A2919505-2A95-4438-A60E-B7D4573C3483";
paths = (
{
closed = 1;
nodes = (
"144 0 LINE",
"150 89 OFFCURVE",
"276 439 OFFCURVE",
"367 620 CURVE",
"384 700 LINE",
"93 700 LINE",
"75 616 LINE",
"260 616 LINE",
"195 512 OFFCURVE",
"38 90 OFFCURVE",
"29 0 CURVE"
);
}
);
width = 314;
},
{
layerId = "2009CD91-3BC4-40DB-AFF0-7394B85F3EFC";
paths = (
{
closed = 1;
nodes = (
"142 0 LINE",
"141 114 OFFCURVE",
"204 481 OFFCURVE",
"259 651 CURVE",
"259 700 LINE",
"8 700 LINE",
"8 651 LINE",
"190 651 LINE",
"166 572 OFFCURVE",
"79 50 OFFCURVE",
"77 0 CURVE"
);
}
);
width = 267;
}
);
leftMetricsKey = T;
rightMetricsKey = T;
unicode = 0037;
},
{
glyphname = eight;
lastChange = "2016-01-22 10:19:25 +0000";
layers = (
{
layerId = "8E5E9D5F-1CFD-4F58-89B8-A9F3704C2D63";
paths = (
{
closed = 1;
nodes = (
"33 89 OFFCURVE",
"46 -7 OFFCURVE",
"189 -7 CURVE SMOOTH",
"334 -7 OFFCURVE",
"347 88 OFFCURVE",
"347 207 CURVE SMOOTH",
"347 287 OFFCURVE",
"351 353 OFFCURVE",
"302 387 CURVE",
"351 417 OFFCURVE",
"347 471 OFFCURVE",
"347 533 CURVE SMOOTH",
"347 638 OFFCURVE",
"333 708 OFFCURVE",
"189 708 CURVE SMOOTH",
"46 708 OFFCURVE",
"33 638 OFFCURVE",
"33 534 CURVE SMOOTH",
"33 471 OFFCURVE",
"29 417 OFFCURVE",
"78 388 CURVE",
"29 354 OFFCURVE",
"33 287 OFFCURVE",
"33 208 CURVE SMOOTH"
);
},
{
closed = 1;
nodes = (
"119 307 OFFCURVE",
"119 335 OFFCURVE",
"191 335 CURVE SMOOTH",
"263 335 OFFCURVE",
"263 307 OFFCURVE",
"263 206 CURVE SMOOTH",
"263 100 OFFCURVE",
"263 72 OFFCURVE",
"191 72 CURVE SMOOTH",
"119 72 OFFCURVE",
"119 99 OFFCURVE",
"119 205 CURVE SMOOTH"
);
},
{
closed = 1;
nodes = (
"119 610 OFFCURVE",
"119 635 OFFCURVE",
"191 635 CURVE SMOOTH",
"263 635 OFFCURVE",
"263 610 OFFCURVE",
"263 520 CURVE SMOOTH",
"263 440 OFFCURVE",
"263 416 OFFCURVE",
"191 416 CURVE SMOOTH",
"119 416 OFFCURVE",
"119 439 OFFCURVE",
"119 520 CURVE SMOOTH"
);
}
);
width = 380;
},
{
layerId = "A2919505-2A95-4438-A60E-B7D4573C3483";
paths = (
{
closed = 1;
nodes = (
"5 93 OFFCURVE",
"2 -8 OFFCURVE",
"149 -8 CURVE SMOOTH",
"298 -8 OFFCURVE",
"329 92 OFFCURVE",
"349 207 CURVE SMOOTH",
"363 284 OFFCURVE",
"379 350 OFFCURVE",
"340 387 CURVE",
"391 419 OFFCURVE",
"397 474 OFFCURVE",
"407 533 CURVE SMOOTH",
"424 628 OFFCURVE",
"422 703 OFFCURVE",
"274 703 CURVE SMOOTH",
"127 703 OFFCURVE",
"100 628 OFFCURVE",
"83 534 CURVE SMOOTH",
"73 474 OFFCURVE",
"59 419 OFFCURVE",
"98 388 CURVE",
"47 351 OFFCURVE",
"39 284 OFFCURVE",
"26 208 CURVE SMOOTH"
);
},
{
closed = 1;
nodes = (
"139 307 OFFCURVE",
"143 330 OFFCURVE",
"210 330 CURVE SMOOTH",
"277 330 OFFCURVE",
"273 307 OFFCURVE",
"255 206 CURVE SMOOTH",
"237 104 OFFCURVE",
"233 81 OFFCURVE",
"166 81 CURVE SMOOTH",
"99 81 OFFCURVE",
"103 103 OFFCURVE",
"121 205 CURVE SMOOTH"
);
},
{
closed = 1;
nodes = (
"191 600 OFFCURVE",
"194 620 OFFCURVE",
"261 620 CURVE SMOOTH",
"328 620 OFFCURVE",
"325 600 OFFCURVE",
"311 520 CURVE SMOOTH",
"297 440 OFFCURVE",
"293 421 OFFCURVE",
"226 421 CURVE SMOOTH",
"159 421 OFFCURVE",
"162 439 OFFCURVE",
"177 520 CURVE SMOOTH"
);
}
);
width = 390;
},
{
layerId = "2009CD91-3BC4-40DB-AFF0-7394B85F3EFC";
paths = (
{
closed = 1;
nodes = (
"30 76 OFFCURVE",
"41 -6 OFFCURVE",
"171 -6 CURVE SMOOTH",
"303 -6 OFFCURVE",
"314 75 OFFCURVE",
"314 207 CURVE SMOOTH",
"314 302 OFFCURVE",
"309 376 OFFCURVE",
"268 388 CURVE",
"309 398 OFFCURVE",
"314 459 OFFCURVE",
"314 533 CURVE SMOOTH",
"314 652 OFFCURVE",
"303 709 OFFCURVE",
"171 709 CURVE SMOOTH",
"41 709 OFFCURVE",
"30 652 OFFCURVE",
"30 534 CURVE SMOOTH",
"30 458 OFFCURVE",
"35 398 OFFCURVE",
"78 390 CURVE",
"35 388 OFFCURVE",
"30 303 OFFCURVE",
"30 208 CURVE SMOOTH"
);
},
{
closed = 1;
nodes = (
"86 307 OFFCURVE",
"86 350 OFFCURVE",
"173 350 CURVE SMOOTH",
"260 350 OFFCURVE",
"260 307 OFFCURVE",
"260 206 CURVE SMOOTH",
"260 86 OFFCURVE",
"260 43 OFFCURVE",
"173 43 CURVE SMOOTH",
"86 43 OFFCURVE",
"86 85 OFFCURVE",
"86 205 CURVE SMOOTH"
);
},
{
closed = 1;
nodes = (
"86 626 OFFCURVE",
"86 666 OFFCURVE",
"173 666 CURVE SMOOTH",
"260 666 OFFCURVE",
"260 626 OFFCURVE",
"260 520 CURVE SMOOTH",
"260 440 OFFCURVE",
"260 401 OFFCURVE",
"173 401 CURVE SMOOTH",
"86 401 OFFCURVE",
"86 439 OFFCURVE",
"86 520 CURVE SMOOTH"
);
}
);
width = 344;
}
);
leftMetricsKey = S;
rightMetricsKey = S;
unicode = 0038;
},
{
glyphname = nine;
lastChange = "2016-01-22 10:19:25 +0000";
layers = (
{
layerId = "8E5E9D5F-1CFD-4F58-89B8-A9F3704C2D63";
paths = (
{
closed = 1;
nodes = (
"346 707 OFFCURVE",
"189 707 CURVE SMOOTH",
"43 707 OFFCURVE",
"30 612 OFFCURVE",
"30 493 CURVE SMOOTH",
"30 375 OFFCURVE",
"44 287 OFFCURVE",
"189 287 CURVE SMOOTH",
"219 287 OFFCURVE",
"244 291 OFFCURVE",
"267 299 CURVE",
"263 114 OFFCURVE",
"250 74 OFFCURVE",
"187 74 CURVE SMOOTH",
"143 74 OFFCURVE",
"117 107 OFFCURVE",
"115 163 CURVE",
"30 163 LINE",
"31 22 OFFCURVE",
"82 -3 OFFCURVE",
"189 -3 CURVE SMOOTH",
"338 -3 OFFCURVE",
"344 107 OFFCURVE",
"344 374 CURVE SMOOTH",
"344 589 OFFCURVE"
);
},
{
closed = 1;
nodes = (
"259 392 OFFCURVE",
"259 364 OFFCURVE",
"187 364 CURVE SMOOTH",
"115 364 OFFCURVE",
"115 392 OFFCURVE",
"115 493 CURVE SMOOTH",
"115 595 OFFCURVE",
"115 628 OFFCURVE",
"187 628 CURVE SMOOTH",
"259 628 OFFCURVE",
"259 596 OFFCURVE",
"259 494 CURVE SMOOTH"
);
}
);
width = 374;
},
{
layerId = "A2919505-2A95-4438-A60E-B7D4573C3483";
paths = (
{
closed = 1;
nodes = (
"420 707 OFFCURVE",
"275 707 CURVE SMOOTH",
"125 707 OFFCURVE",
"93 607 OFFCURVE",
"73 493 CURVE SMOOTH",
"52 375 OFFCURVE",
"51 282 OFFCURVE",
"200 282 CURVE SMOOTH",
"229 282 OFFCURVE",
"253 286 OFFCURVE",
"274 292 CURVE",
"240 120 OFFCURVE",
"222 79 OFFCURVE",
"162 79 CURVE SMOOTH",
"117 79 OFFCURVE",
"101 115 OFFCURVE",
"111 168 CURVE",
"16 168 LINE",
"-11 19 OFFCURVE",
"40 -8 OFFCURVE",
"149 -8 CURVE SMOOTH",
"316 -8 OFFCURVE",
"332 127 OFFCURVE",
"389 447 CURVE",
"424 620 OFFCURVE"
);
},
{
closed = 1;
nodes = (
"284 392 OFFCURVE",
"280 369 OFFCURVE",
"213 369 CURVE SMOOTH",
"146 369 OFFCURVE",
"150 392 OFFCURVE",
"168 493 CURVE SMOOTH",
"186 595 OFFCURVE",
"190 618 OFFCURVE",
"257 618 CURVE SMOOTH",
"324 618 OFFCURVE",
"320 596 OFFCURVE",
"302 494 CURVE SMOOTH"
);
}
);
width = 384;
},
{
layerId = "2009CD91-3BC4-40DB-AFF0-7394B85F3EFC";
paths = (
{
closed = 1;
nodes = (
"317 707 OFFCURVE",
"170 707 CURVE SMOOTH",
"37 707 OFFCURVE",
"26 621 OFFCURVE",
"25 493 CURVE SMOOTH",
"26 377 OFFCURVE",
"37 302 OFFCURVE",
"169 302 CURVE SMOOTH",
"205 302 OFFCURVE",
"236 309 OFFCURVE",
"263 321 CURVE",
"260 165 OFFCURVE",
"245 45 OFFCURVE",
"168 45 CURVE SMOOTH",
"119 45 OFFCURVE",
"88 79 OFFCURVE",
"82 134 CURVE",
"26 134 LINE",
"29 27 OFFCURVE",
"63 -2 OFFCURVE",
"170 -2 CURVE SMOOTH",
"291 -2 OFFCURVE",
"309 49 OFFCURVE",
"309 415 CURVE SMOOTH",
"309 618 OFFCURVE"
);
},
{
closed = 1;
nodes = (
"255 392 OFFCURVE",
"254 349 OFFCURVE",
"167 349 CURVE SMOOTH",
"80 349 OFFCURVE",
"81 392 OFFCURVE",
"80 493 CURVE SMOOTH",
"81 610 OFFCURVE",
"81 658 OFFCURVE",
"168 658 CURVE SMOOTH",
"256 658 OFFCURVE",
"254 610 OFFCURVE",
"254 494 CURVE SMOOTH"
);
}
);
width = 334;
}
);
leftMetricsKey = six;
rightMetricsKey = six;
unicode = 0039;
},
{
glyphname = asterisk;
lastChange = "2015-12-19 09:31:38 +0000";
layers = (
{
layerId = "8E5E9D5F-1CFD-4F58-89B8-A9F3704C2D63";
paths = (
{
closed = 1;
nodes = (
"374 448 LINE",
"225 562 LINE",
"111 711 LINE",
"58 658 LINE",
"207 544 LINE",
"321 395 LINE"
);
},
{
closed = 1;
nodes = (
"225 544 LINE",
"374 658 LINE",
"321 711 LINE",
"207 562 LINE",
"58 448 LINE",
"111 395 LINE"
);
},
{
closed = 1;
nodes = (
"253 367 LINE",
"233 553 LINE",
"253 739 LINE",
"179 739 LINE",
"199 553 LINE",
"179 367 LINE"
);
},
{
closed = 1;
nodes = (
"216 536 LINE",
"402 516 LINE",
"402 590 LINE",
"216 570 LINE",
"30 590 LINE",
"30 516 LINE"
);
}
);
width = 432;
},
{
layerId = "A2919505-2A95-4438-A60E-B7D4573C3483";
paths = (
{
closed = 1;
nodes = (
"413 448 LINE",
"284 562 LINE",
"196 711 LINE",
"134 658 LINE",
"263 544 LINE",
"351 395 LINE"
);
},
{
closed = 1;
nodes = (
"281 544 LINE",
"450 658 LINE",
"406 711 LINE",
"266 562 LINE",
"97 448 LINE",
"141 395 LINE"
);
},
{
closed = 1;
nodes = (
"278 367 LINE",
"291 553 LINE",
"343 739 LINE",
"269 739 LINE",
"257 553 LINE",
"204 367 LINE"
);
},
{
closed = 1;
nodes = (
"271 536 LINE",
"453 516 LINE",
"466 590 LINE",
"277 570 LINE",
"94 590 LINE",
"81 516 LINE"
);
}
);
width = 432;
},
{
layerId = "2009CD91-3BC4-40DB-AFF0-7394B85F3EFC";
paths = (
{
closed = 1;
nodes = (
"344 447 LINE",
"203 555 LINE",
"95 696 LINE",
"58 659 LINE",
"199 551 LINE",
"307 410 LINE"
);
},
{
closed = 1;
nodes = (
"203 551 LINE",
"344 659 LINE",
"307 696 LINE",
"199 555 LINE",
"58 447 LINE",
"95 410 LINE"
);
},
{
closed = 1;
nodes = (
"227 377 LINE",
"208 553 LINE",
"227 729 LINE",
"175 729 LINE",
"194 553 LINE",
"175 377 LINE"
);
},
{
closed = 1;
nodes = (
"201 546 LINE",
"377 527 LINE",
"377 579 LINE",
"201 560 LINE",
"25 579 LINE",
"25 527 LINE"
);
}
);
width = 402;
}
);
unicode = 002A;
},
{
glyphname = backslash;
lastChange = "2015-12-19 01:02:35 +0000";
layers = (
{
layerId = "8E5E9D5F-1CFD-4F58-89B8-A9F3704C2D63";
paths = (
{
closed = 1;
nodes = (
"328 0 LINE",
"138 700 LINE",
"30 700 LINE",
"220 0 LINE"
);
}
);
width = 358;
},
{
layerId = "A2919505-2A95-4438-A60E-B7D4573C3483";
paths = (
{
closed = 1;
nodes = (
"289 0 LINE",
"222 700 LINE",
"114 700 LINE",
"181 0 LINE"
);
}
);
width = 359;
},
{
layerId = "2009CD91-3BC4-40DB-AFF0-7394B85F3EFC";
paths = (
{
closed = 1;
nodes = (
"308.386 15 LINE",
"126.529 685 LINE",
"49.614 685 LINE",
"231.471 15 LINE"
);
}
);
width = 358;
}
);
unicode = 005C;
},
{
glyphname = colon;
lastChange = "2015-12-19 09:31:53 +0000";
layers = (
{
layerId = "8E5E9D5F-1CFD-4F58-89B8-A9F3704C2D63";
paths = (
{
closed = 1;
nodes = (
"160 344 LINE",
"160 454 LINE",
"48 454 LINE",
"48 344 LINE"
);
},
{
closed = 1;
nodes = (
"159 0 LINE",
"159 108 LINE",
"49 108 LINE",
"49 0 LINE"
);
}
);
width = 208;
},
{
layerId = "A2919505-2A95-4438-A60E-B7D4573C3483";
paths = (
{
closed = 1;
nodes = (
"171 344 LINE",
"190 454 LINE",
"78 454 LINE",
"59 344 LINE"
);
},
{
closed = 1;
nodes = (
"109 0 LINE",
"128 108 LINE",
"18 108 LINE",
"-1 0 LINE"
);
}
);
width = 208;
},
{
layerId = "2009CD91-3BC4-40DB-AFF0-7394B85F3EFC";
paths = (
{
closed = 1;
nodes = (
"145 359 LINE",
"145 439 LINE",
"63 439 LINE",
"63 359 LINE"
);
},
{
closed = 1;
nodes = (
"144 15 LINE",
"144 93 LINE",
"64 93 LINE",
"64 15 LINE"
);
}
);
width = 208;
}
);
unicode = 003A;
},
{
glyphname = comma;
lastChange = "2015-12-19 09:30:23 +0000";
layers = (
{
layerId = "8E5E9D5F-1CFD-4F58-89B8-A9F3704C2D63";
paths = (
{
closed = 1;
nodes = (
"79 -66 LINE",
"79 -66 OFFCURVE",
"143 32 OFFCURVE",
"155 126 CURVE",
"47 116 LINE SMOOTH",
"57 117 OFFCURVE",
"8 -75 OFFCURVE",
"15 -74 CURVE SMOOTH"
);
}
);
width = 169;
},
{
layerId = "A2919505-2A95-4438-A60E-B7D4573C3483";
paths = (
{
closed = 1;
nodes = (
"17 -66 LINE",
"17 -66 OFFCURVE",
"99 32 OFFCURVE",
"127 126 CURVE",
"17 116 LINE SMOOTH",
"28 117 OFFCURVE",
"-55 -75 OFFCURVE",
"-48 -74 CURVE SMOOTH"
);
}
);
width = 169;
},
{
layerId = "2009CD91-3BC4-40DB-AFF0-7394B85F3EFC";
paths = (
{
closed = 1;
nodes = (
"62 -52 LINE",
"75 -32 OFFCURVE",
"115 38 OFFCURVE",
"129 109 CURVE",
"53 102 LINE",
"56 50 OFFCURVE",
"25 -56 OFFCURVE",
"5 -59 CURVE"
);
}
);
width = 161;
}
);
unicode = 002C;
},
{
glyphname = exclam;
lastChange = "2015-12-11 13:29:23 +0000";
layers = (
{
layerId = "8E5E9D5F-1CFD-4F58-89B8-A9F3704C2D63";
paths = (
{
closed = 1;
nodes = (
"117 186 LINE",
"117 232 LINE",
"131 701 LINE",
"34 701 LINE",
"47 232 LINE",
"47 186 LINE"
);
},
{
closed = 1;
nodes = (
"127 0 LINE",
"127 116 LINE",
"38 116 LINE",
"38 0 LINE"
);
}
);
width = 165;
},
{
layerId = "A2919505-2A95-4438-A60E-B7D4573C3483";
paths = (
{
closed = 1;
nodes = (
"92 186 LINE",
"100 232 LINE",
"197 701 LINE",
"108 701 LINE",
"38 232 LINE",
"30 186 LINE"
);
},
{
closed = 1;
nodes = (
"73 0 LINE",
"93 116 LINE",
"4 116 LINE",
"-16 0 LINE"
);
}
);
width = 158;
},
{
layerId = "2009CD91-3BC4-40DB-AFF0-7394B85F3EFC";
paths = (
{
closed = 1;
nodes = (
"103 201 LINE",
"103 232 LINE",
"111 700 LINE",
"46 700 LINE",
"53 232 LINE",
"53 201 LINE"
);
},
{
closed = 1;
nodes = (
"108 15 LINE",
"108 101 LINE",
"49 101 LINE",
"49 15 LINE"
);
}
);
width = 158;
}
);
unicode = 0021;
},
{
glyphname = numbersign;
lastChange = "2015-12-19 09:31:25 +0000";
layers = (
{
layerId = "8E5E9D5F-1CFD-4F58-89B8-A9F3704C2D63";
paths = (
{
closed = 1;
nodes = (
"170 0 LINE",
"360 700 LINE",
"252 700 LINE",
"62 0 LINE"
);
},
{
closed = 1;
nodes = (
"370 0 LINE",
"560 700 LINE",
"452 700 LINE",
"262 0 LINE"
);
},
{
closed = 1;
nodes = (
"571 211 LINE",
"571 309 LINE",
"21 309 LINE",
"21 211 LINE"
);
},
{
closed = 1;
nodes = (
"611 421 LINE",
"611 519 LINE",
"61 519 LINE",
"61 421 LINE"
);
}
);
width = 632;
},
{
layerId = "A2919505-2A95-4438-A60E-B7D4573C3483";
paths = (
{
closed = 1;
nodes = (
"120 0 LINE",
"433 700 LINE",
"325 700 LINE",
"12 0 LINE"
);
},
{
closed = 1;
nodes = (
"320 0 LINE",
"633 700 LINE",
"525 700 LINE",
"212 0 LINE"
);
},
{
closed = 1;
nodes = (
"558 211 LINE",
"575 309 LINE",
"25 309 LINE",
"8 211 LINE"
);
},
{
closed = 1;
nodes = (
"635 421 LINE",
"653 519 LINE",
"103 519 LINE",
"85 421 LINE"
);
}
);
width = 632;
},
{
layerId = "2009CD91-3BC4-40DB-AFF0-7394B85F3EFC";
paths = (
{
closed = 1;
nodes = (
"127 -6 LINE",
"304 700 LINE",
"246 700 LINE",
"69 -6 LINE"
);
},
{
closed = 1;
nodes = (
"328 -6 LINE",
"503 700 LINE",
"446 700 LINE",
"270 -6 LINE"
);
},
{
closed = 1;
nodes = (
"522 235 LINE",
"522 285 LINE",
"21 285 LINE",
"21 235 LINE"
);
},
{
closed = 1;
nodes = (
"562 445 LINE",
"562 495 LINE",
"61 495 LINE",
"61 445 LINE"
);
}
);
width = 583;
}
);
unicode = 0023;
},
{
glyphname = period;
lastChange = "2015-12-19 01:03:10 +0000";
layers = (
{
layerId = "8E5E9D5F-1CFD-4F58-89B8-A9F3704C2D63";
paths = (
{
closed = 1;
nodes = (
"133 0 LINE",
"133 116 LINE",
"15 116 LINE",
"15 0 LINE"
);
}
);
width = 148;
},
{
layerId = "A2919505-2A95-4438-A60E-B7D4573C3483";
paths = (
{
closed = 1;
nodes = (
"94 0 LINE",
"114 116 LINE",
"-4 116 LINE",
"-24 0 LINE"
);
}
);
width = 149;
},
{
layerId = "2009CD91-3BC4-40DB-AFF0-7394B85F3EFC";
paths = (
{
closed = 1;
nodes = (
"118 15 LINE",
"118 101 LINE",
"30 101 LINE",
"30 15 LINE"
);
}
);
width = 148;
}
);
unicode = 002E;
},
{
glyphname = question;
lastChange = "2015-11-26 11:44:23 +0000";
layers = (
{
layerId = "8E5E9D5F-1CFD-4F58-89B8-A9F3704C2D63";
paths = (
{
closed = 1;
nodes = (
"185 176 LINE",
"185 228 LINE SMOOTH",
"185 389 OFFCURVE",
"275 336 OFFCURVE",
"275 510 CURVE SMOOTH",
"275 667 OFFCURVE",
"186 712 OFFCURVE",
"100 704 CURVE SMOOTH",
"56 700 OFFCURVE",
"25 683 OFFCURVE",
"17 659 CURVE SMOOTH",
"18 557 OFFCURVE",
"11 542 OFFCURVE",
"20 542 CURVE SMOOTH",
"22 542 OFFCURVE",
"55 596 OFFCURVE",
"103 607 CURVE SMOOTH",
"152 618 OFFCURVE",
"173 577 OFFCURVE",
"173 532 CURVE SMOOTH",
"173 383 OFFCURVE",
"86 449 OFFCURVE",
"86 232 CURVE",
"87 176 LINE"
);
},
{
closed = 1;
nodes = (
"185 0 LINE",
"185 116 LINE",
"88 116 LINE",
"88 0 LINE"
);
}
);
width = 290;
},
{
layerId = "A2919505-2A95-4438-A60E-B7D4573C3483";
paths = (
{
closed = 1;
nodes = (
"166 176 LINE",
"175 228 LINE SMOOTH",
"204 389 OFFCURVE",
"284 336 OFFCURVE",
"315 510 CURVE SMOOTH",
"343 667 OFFCURVE",
"262 712 OFFCURVE",
"174 704 CURVE SMOOTH",
"129 700 OFFCURVE",
"95 683 OFFCURVE",
"83 659 CURVE SMOOTH",
"66 557 OFFCURVE",
"57 542 OFFCURVE",
"66 542 CURVE SMOOTH",
"68 542 OFFCURVE",
"110 596 OFFCURVE",
"160 607 CURVE SMOOTH",
"211 618 OFFCURVE",
"225 577 OFFCURVE",
"217 532 CURVE SMOOTH",
"191 383 OFFCURVE",
"115 449 OFFCURVE",
"77 232 CURVE",
"68 176 LINE"
);
},
{
closed = 1;
nodes = (
"135 0 LINE",
"155 116 LINE",
"58 116 LINE",
"38 0 LINE"
);
}
);
width = 290;
},
{
layerId = "2009CD91-3BC4-40DB-AFF0-7394B85F3EFC";
paths = (
{
closed = 1;
nodes = (
"150 191 LINE",
"150 228 LINE SMOOTH",
"150 415 OFFCURVE",
"240 376 OFFCURVE",
"240 525 CURVE SMOOTH",
"240 648 OFFCURVE",
"181 713 OFFCURVE",
"81 704 CURVE SMOOTH",
"44 701 OFFCURVE",
"11 688 OFFCURVE",
"11 669 CURVE SMOOTH",
"11 632 OFFCURVE",
"7 599 OFFCURVE",
"15 599 CURVE SMOOTH",
"20 599 OFFCURVE",
"47 629 OFFCURVE",
"80 637 CURVE SMOOTH",
"132 648 OFFCURVE",
"168 611 OFFCURVE",
"168 547 CURVE SMOOTH",
"168 383 OFFCURVE",
"81 404 OFFCURVE",
"81 232 CURVE SMOOTH",
"82 191 LINE"
);
},
{
closed = 1;
nodes = (
"150 0 LINE",
"150 86 LINE",
"83 86 LINE",
"83 0 LINE"
);
}
);
width = 250;
}
);
unicode = 003F;
},
{
glyphname = quotesingle;
lastChange = "2015-12-19 01:01:18 +0000";
layers = (
{
layerId = "8E5E9D5F-1CFD-4F58-89B8-A9F3704C2D63";
paths = (
{
closed = 1;
nodes = (
"101 511 LINE",
"138 703 LINE",
"30 693 LINE",
"37 503 LINE"
);
}
);
width = 168;
},
{
layerId = "A2919505-2A95-4438-A60E-B7D4573C3483";
paths = (
{
closed = 1;
nodes = (
"152 511 LINE",
"223 703 LINE",
"113 693 LINE",
"87 503 LINE"
);
}
);
width = 169;
},
{
layerId = "2009CD91-3BC4-40DB-AFF0-7394B85F3EFC";
paths = (
{
closed = 1;
nodes = (
"88.332 524.533 LINE",
"119.491 686.222 LINE",
"45.512 679.372 LINE",
"51.387 519.915 LINE"
);
}
);
width = 168;
}
);
unicode = 0027;
},
{
glyphname = semicolon;
lastChange = "2015-12-19 09:29:48 +0000";
layers = (
{
layerId = "8E5E9D5F-1CFD-4F58-89B8-A9F3704C2D63";
paths = (
{
closed = 1;
nodes = (
"79 -66 LINE",
"79 -66 OFFCURVE",
"143 92 OFFCURVE",
"155 186 CURVE",
"47 176 LINE SMOOTH",
"57 177 OFFCURVE",
"8 -75 OFFCURVE",
"15 -74 CURVE SMOOTH"
);
},
{
closed = 1;
nodes = (
"160 335 LINE",
"160 445 LINE",
"48 445 LINE",
"48 335 LINE"
);
}
);
width = 185;
},
{
layerId = "A2919505-2A95-4438-A60E-B7D4573C3483";
paths = (
{
closed = 1;
nodes = (
"17 -66 LINE",
"17 -66 OFFCURVE",
"109 92 OFFCURVE",
"138 186 CURVE",
"28 176 LINE SMOOTH",
"38 177 OFFCURVE",
"-55 -75 OFFCURVE",
"-48 -74 CURVE SMOOTH"
);
},
{
closed = 1;
nodes = (
"169 335 LINE",
"188 445 LINE",
"76 445 LINE",
"57 335 LINE"
);
}
);
width = 169;
},
{
layerId = "2009CD91-3BC4-40DB-AFF0-7394B85F3EFC";
paths = (
{
closed = 1;
nodes = (
"68.334 -52.216 LINE",
"80.433 -21.407 OFFCURVE",
"122.897 89.86 OFFCURVE",
"137.225 169.29 CURVE",
"60.21 162.159 LINE",
"65.728 97.011 OFFCURVE",
"33.348 -56.227 OFFCURVE",
"12.879 -59.151 CURVE"
);
},
{
closed = 1;
nodes = (
"145 350 LINE",
"145 430 LINE",
"63 430 LINE",
"63 350 LINE"
);
}
);
width = 175;
}
);
unicode = 003B;
},
{
glyphname = slash;
lastChange = "2015-11-24 02:19:44 +0000";
layers = (
{
layerId = "8E5E9D5F-1CFD-4F58-89B8-A9F3704C2D63";
paths = (
{
closed = 1;
nodes = (
"138 0 LINE",
"328 700 LINE",
"220 700 LINE",
"30 0 LINE"
);
}
);
width = 358;
},
{
layerId = "A2919505-2A95-4438-A60E-B7D4573C3483";
paths = (
{
closed = 1;
nodes = (
"30 0 LINE",
"138 0 LINE",
"328 700 LINE",
"220 700 LINE"
);
}
);
width = 358;
},
{
layerId = "2009CD91-3BC4-40DB-AFF0-7394B85F3EFC";
paths = (
{
closed = 1;
nodes = (
"126.529 15 LINE",
"308.386 685 LINE",
"231.471 685 LINE",
"49.614 15 LINE"
);
}
);
width = 358;
}
);
unicode = 002F;
},
{
glyphname = braceleft;
lastChange = "2015-12-19 00:57:18 +0000";
layers = (
{
layerId = "8E5E9D5F-1CFD-4F58-89B8-A9F3704C2D63";
paths = (
{
closed = 1;
nodes = (
"286 -33 LINE",
"166 -33 OFFCURVE",
"184 95 OFFCURVE",
"186 262 CURVE SMOOTH",
"186 284 OFFCURVE",
"116 326 OFFCURVE",
"116 348 CURVE SMOOTH",
"116 383 OFFCURVE",
"186 402 OFFCURVE",
"186 434 CURVE SMOOTH",
"188 578 OFFCURVE",
"172 699 OFFCURVE",
"286 699 CURVE",
"286 756 LINE",
"107 756 OFFCURVE",
"106 593 OFFCURVE",
"100 434 CURVE SMOOTH",
"99 399 OFFCURVE",
"30 383 OFFCURVE",
"30 348 CURVE SMOOTH",
"30 316 OFFCURVE",
"99 295 OFFCURVE",
"100 262 CURVE SMOOTH",
"105 92 OFFCURVE",
"105 -90 OFFCURVE",
"286 -90 CURVE"
);
}
);
width = 331;
},
{
layerId = "A2919505-2A95-4438-A60E-B7D4573C3483";
paths = (
{
closed = 1;
nodes = (
"230 -33 LINE",
"110 -33 OFFCURVE",
"151 95 OFFCURVE",
"182 262 CURVE SMOOTH",
"186 284 OFFCURVE",
"123 326 OFFCURVE",
"127 348 CURVE SMOOTH",
"134 383 OFFCURVE",
"207 402 OFFCURVE",
"213 434 CURVE SMOOTH",
"240 578 OFFCURVE",
"245 699 OFFCURVE",
"359 699 CURVE",
"369 756 LINE",
"190 756 OFFCURVE",
"161 593 OFFCURVE",
"127 434 CURVE SMOOTH",
"119 399 OFFCURVE",
"48 383 OFFCURVE",
"41 348 CURVE SMOOTH",
"36 316 OFFCURVE",
"101 295 OFFCURVE",
"96 262 CURVE SMOOTH",
"71 92 OFFCURVE",
"39 -90 OFFCURVE",
"220 -90 CURVE"
);
}
);
width = 331;
},
{
layerId = "2009CD91-3BC4-40DB-AFF0-7394B85F3EFC";
paths = (
{
closed = 1;
nodes = (
"271 -47 LINE",
"150 -37 OFFCURVE",
"169 102 OFFCURVE",
"171 262 CURVE",
"171 274 OFFCURVE",
"121 318 OFFCURVE",
"121 348 CURVE SMOOTH",
"121 392 OFFCURVE",
"171 414 OFFCURVE",
"171 434 CURVE SMOOTH",
"173 571 OFFCURVE",
"156 703 OFFCURVE",
"271 713 CURVE",
"271 741 LINE",
"122 732 OFFCURVE",
"121 588 OFFCURVE",
"115 433 CURVE SMOOTH",
"114 388 OFFCURVE",
"45 371 OFFCURVE",
"45 348 CURVE SMOOTH",
"45 327 OFFCURVE",
"114 305 OFFCURVE",
"115 262 CURVE SMOOTH",
"120 98 OFFCURVE",
"120 -65 OFFCURVE",
"271 -75 CURVE"
);
}
);
width = 331;
}
);
unicode = 007B;
},
{
glyphname = bracketleft;
lastChange = "2015-12-19 01:00:32 +0000";
layers = (
{
layerId = "8E5E9D5F-1CFD-4F58-89B8-A9F3704C2D63";
paths = (
{
closed = 1;
nodes = (
"246 -90 LINE",
"246 -33 LINE",
"116 -33 LINE",
"116 699 LINE",
"246 699 LINE",
"246 756 LINE",
"30 756 LINE",
"30 -90 LINE"
);
}
);
width = 291;
},
{
layerId = "A2919505-2A95-4438-A60E-B7D4573C3483";
paths = (
{
closed = 1;
nodes = (
"191 -90 LINE",
"201 -33 LINE",
"71 -33 LINE",
"200 699 LINE",
"330 699 LINE",
"340 756 LINE",
"124 756 LINE",
"-25 -90 LINE"
);
}
);
width = 292;
},
{
layerId = "2009CD91-3BC4-40DB-AFF0-7394B85F3EFC";
paths = (
{
closed = 1;
nodes = (
"231 -75 LINE",
"231 -48 LINE",
"101 -48 LINE",
"101 714 LINE",
"231 714 LINE",
"231 741 LINE",
"45 741 LINE",
"45 -75 LINE"
);
}
);
width = 291;
}
);
unicode = 005B;
},
{
glyphname = bracketright;
lastChange = "2015-12-19 01:00:49 +0000";
layers = (
{
layerId = "8E5E9D5F-1CFD-4F58-89B8-A9F3704C2D63";
paths = (
{
closed = 1;
nodes = (
"261 -90 LINE",
"261 756 LINE",
"45 756 LINE",
"45 699 LINE",
"175 699 LINE",
"175 -33 LINE",
"45 -33 LINE",
"45 -90 LINE"
);
}
);
width = 291;
},
{
layerId = "A2919505-2A95-4438-A60E-B7D4573C3483";
paths = (
{
closed = 1;
nodes = (
"206 -90 LINE",
"355 756 LINE",
"139 756 LINE",
"129 699 LINE",
"259 699 LINE",
"130 -33 LINE",
"0 -33 LINE",
"-10 -90 LINE"
);
}
);
width = 292;
},
{
layerId = "2009CD91-3BC4-40DB-AFF0-7394B85F3EFC";
paths = (
{
closed = 1;
nodes = (
"246 -75 LINE",
"246 741 LINE",
"60 741 LINE",
"60 714 LINE",
"190 714 LINE",
"190 -48 LINE",
"60 -48 LINE",
"60 -75 LINE"
);
}
);
width = 291;
}
);
unicode = 005D;
},
